<?xml version="1.0" encoding="utf-8"?>
<!DOCTYPE svg PUBLIC "-//W3C//DTD SVG 1.0//EN" "http://www.w3.org/TR/2001/REC-SVG-20010904/DTD/svg10.dtd">
<svg version="1.0" xmlns="http://www.w3.org/2000/svg" width="1536px" height="1024px" viewBox="0 0 1536 1024" preserveAspectRatio="xMidYMid meet">
 <g fill="#ffffff">
  <path d="M0 512 l0 -512 768 0 768 0 0 512 0 512 -768 0 -768 0 0 -512z m450 180.2 c0 -0.4 -2.1 -2.4 -4.7 -4.3 -2.7 -2 -8.4 -6.9 -12.8 -10.9 -5.4 -4.9 -4.2 -3.5 3.7 4.4 10.5 10.5 13.8 13.1 13.8 10.8z m-112.3 -19.2 c9.3 -20 19.2 -50.2 22.8 -68.8 l1.8 -9.4 3.7 0.4 3.8 0.3 -2.5 -4.3 c-1.9 -3.3 -2.4 -5.2 -2 -8 2 -14.2 9.9 -59.1 10.7 -60.9 0.5 -1.2 4.2 -4 8.2 -6.2 7.7 -4.3 8.5 -5.1 2.5 -2.6 -2 0.8 -5.2 1.5 -7.2 1.5 -4.1 0 -4.1 0.1 -2.5 -14.5 1 -9 3.3 -45.5 4.6 -72 0.7 -13.9 0.7 -14 3.8 -17 1.7 -1.7 4.2 -3.7 5.4 -4.5 2.3 -1.5 2.2 -1.5 -2.2 -1.2 l-4.6 0.4 0 -8.3 c0 -4.6 0.7 -16.9 1.5 -27.4 0.8 -10.4 2.2 -28.4 3 -40 2.2 -30.2 1.7 -28.1 7.5 -28.9 10.8 -1.4 8.1 -8.1 -4.7 -11.5 -3.4 -0.9 -4.9 -0.9 -7.8 0.3 -4.1 1.8 -4.4 3.7 -1 6.4 2.4 1.9 2.5 2.5 2.5 12.3 0 5.7 -0.5 16.1 -1.2 23.2 l-1.2 12.7 -2.9 0 -2.9 0 2.7 4.6 c2.5 4.3 2.7 5.3 2.1 11.8 -0.3 3.9 -2.2 27.9 -4.1 53.2 -1.9 25.4 -3.7 46.9 -4.1 47.8 -0.3 0.9 -1.5 1.6 -2.7 1.6 -2 0 -2 0.1 0.3 2.5 2.2 2.3 2.2 2.9 1.6 12.7 -1.4 20.9 -3.6 47.5 -4.6 54.8 -1.9 13.3 -1.8 13 -5.3 13 l-3.2 0 2.8 2.5 c3.6 3.4 3.5 4.6 -1.4 30.5 -8.5 45.4 -15.4 68.5 -29.3 98.4 -2.5 5.4 -4.6 10.1 -4.6 10.3 0 2 8 -9.7 10.7 -15.7z m63.3 -31.5 c0 -0.3 -0.2 -0.5 -0.5 -0.5 -0.3 0 -0.5 0.2 -0.5 0.5 0 0.3 0.2 0.5 0.5 0.5 0.3 0 0.5 -0.2 0.5 -0.5z m-3 -4 c0 -0.3 -0.2 -0.5 -0.5 -0.5 -0.3 0 -0.5 0.2 -0.5 0.5 0 0.3 0.2 0.5 0.5 0.5 0.3 0 0.5 -0.2 0.5 -0.5z m-3 -4 c0 -0.3 -0.2 -0.5 -0.5 -0.5 -0.3 0 -0.5 0.2 -0.5 0.5 0 0.3 0.2 0.5 0.5 0.5 0.3 0 0.5 -0.2 0.5 -0.5z m-3 -4 c0 -0.3 -0.2 -0.5 -0.5 -0.5 -0.3 0 -0.5 0.2 -0.5 0.5 0 0.3 0.2 0.5 0.5 0.5 0.3 0 0.5 -0.2 0.5 -0.5z m-2 -3 c0 -0.3 -0.2 -0.5 -0.5 -0.5 -0.3 0 -0.5 0.2 -0.5 0.5 0 0.3 0.2 0.5 0.5 0.5 0.3 0 0.5 -0.2 0.5 -0.5z m-2 -2.9 c0 -0.3 -0.5 -0.8 -1.2 -1.2 -0.7 -0.4 -0.8 -0.3 -0.4 0.4 0.7 1.2 1.6 1.6 1.6 0.8z m-2 -3 c0 -0.3 -0.5 -0.8 -1.2 -1.2 -0.7 -0.4 -0.8 -0.3 -0.4 0.4 0.7 1.2 1.6 1.6 1.6 0.8z m-2 -3 c0 -0.3 -0.5 -0.8 -1.2 -1.2 -0.7 -0.4 -0.8 -0.3 -0.4 0.4 0.7 1.2 1.6 1.6 1.6 0.8z m-2 -3 c0 -0.3 -0.5 -0.8 -1.2 -1.2 -0.7 -0.4 -0.8 -0.3 -0.4 0.4 0.7 1.2 1.6 1.6 1.6 0.8z m-2 -3 c0 -0.3 -0.5 -0.8 -1.2 -1.2 -0.7 -0.4 -0.8 -0.3 -0.4 0.4 0.7 1.2 1.6 1.6 1.6 0.8z m-2 -3.1 c0 -0.3 -0.2 -0.5 -0.5 -0.5 -0.3 0 -0.5 0.2 -0.5 0.5 0 0.3 0.2 0.5 0.5 0.5 0.3 0 0.5 -0.2 0.5 -0.5z m-2 -3 c0 -0.3 -0.2 -0.5 -0.5 -0.5 -0.3 0 -0.5 0.2 -0.5 0.5 0 0.3 0.2 0.5 0.5 0.5 0.3 0 0.5 -0.2 0.5 -0.5z m-1 -2 c0 -0.3 -0.2 -0.5 -0.5 -0.5 -0.3 0 -0.5 0.2 -0.5 0.5 0 0.3 0.2 0.5 0.5 0.5 0.3 0 0.5 -0.2 0.5 -0.5z m-2 -3 c0 -0.3 -0.2 -0.5 -0.5 -0.5 -0.3 0 -0.5 0.2 -0.5 0.5 0 0.3 0.2 0.5 0.5 0.5 0.3 0 0.5 -0.2 0.5 -0.5z m347.3 -0.5 c10.7 -1.1 17.8 -4.1 24.5 -10.4 8.9 -8.3 14.4 -22.9 12.8 -33.8 -1.7 -11.4 -11.2 -24.5 -21.7 -29.9 -10.5 -5.3 -27.2 -6.6 -39.2 -2.9 -21.4 6.6 -34.2 30.5 -26.8 50.1 6.4 16.7 20.3 26.5 39.6 27.7 1.1 0.1 6 -0.3 10.8 -0.8z m219.4 -2.4 c2.6 -1.3 5.9 -3.6 7.2 -5 1.8 -1.9 3.4 -2.6 6.3 -2.6 3.6 0 3.8 0.2 3.8 3 0 5.5 2.8 7 12.9 7 10.2 0 14.1 -1.9 14.1 -7 0 -3.7 -1.6 -4.8 -7.5 -5.2 l-5 -0.3 -0.3 -30.9 c-0.1 -20.8 -0.6 -31.4 -1.3 -32.3 -0.8 -0.9 -4.3 -1.3 -12.7 -1.3 -12.7 0 -15.2 1 -15.2 5.8 0 4.4 2.6 6.2 9.2 6.2 l5.8 0 0 20.9 0 20.9 -3.8 3.9 c-5 5.2 -10.4 7.6 -17.9 8.1 -7.5 0.5 -12.1 -0.9 -15.9 -4.9 l-2.9 -3 -0.3 -27.9 c-0.2 -21.7 -0.6 -28.1 -1.7 -29 -0.8 -0.7 -5.2 -1 -12 -0.8 -10.3 0.3 -10.9 0.4 -12.8 2.9 -1.7 2.4 -1.8 3 -0.6 5.5 1.2 2.5 2.1 3 6.8 3.4 l5.4 0.5 0.2 21 c0.1 17.7 0.4 21.8 2 26.4 2.4 6.7 9.5 14.7 15 16.7 5.6 2 15.1 1.1 21.2 -2z m-311.7 0.4 c2.4 -2.4 2.6 -6.3 0.4 -8.4 -1.3 -1.3 -4.3 -1.6 -17 -1.6 l-15.4 0 0 -26.5 0 -26.5 16.4 0 c15 0 16.5 -0.2 19 -2.1 3.2 -2.5 3.4 -6.2 0.4 -8.3 -1.8 -1.3 -5.5 -1.6 -19.5 -1.6 l-17.2 0 -0.7 -3.6 c-1.5 -7.8 1.3 -15.4 6.7 -18.1 3 -1.6 22.9 -1.7 28.2 -0.2 4.8 1.3 7.3 0.5 9.1 -2.9 1 -2 1.1 -3.2 0.3 -5 -1.6 -3.4 -5.2 -4.9 -14.9 -6.2 -14.1 -1.9 -26.8 1.5 -35.7 9.6 -6.5 5.8 -7.4 8.3 -6.6 18.1 l0.7 8.3 -10.1 0 c-8.8 0 -10.4 0.3 -12.1 2 -2.6 2.6 -2.5 5.4 0.2 8 1.9 1.7 3.5 2 11.5 2 l9.3 0 0 26.5 0 26.5 -9.4 0 c-8.7 0 -9.6 0.2 -11 2.2 -2.1 3 -2 4.7 0.6 7.5 l2.1 2.3 31.4 0 c30 0 31.4 -0.1 33.3 -2z m217.4 -0.1 c3.2 -2.5 3.6 -7.3 0.7 -8.9 -1.1 -0.5 -8.3 -1 -16 -1 l-14.1 0 0 -16.7 c0 -19 0.8 -21.7 7.6 -29.3 5.5 -6.1 9.9 -8 18.6 -8 6.4 0 7.8 0.4 11.8 3 5.5 3.6 6.4 3.7 10.6 0.5 6.1 -4.7 5.2 -9.5 -2.9 -13.7 -3.5 -1.9 -5.8 -2.3 -13.2 -2.3 -7.9 0 -9.7 0.4 -14.8 2.8 -3.7 1.8 -7.4 4.8 -10.4 8.3 -3.9 4.5 -5.2 5.4 -8 5.4 l-3.3 0 0 -5.3 c0 -3.1 -0.6 -6.1 -1.6 -7.5 -1.4 -2.1 -2.3 -2.2 -13.4 -2.2 -11.5 0 -11.9 0.1 -13.8 2.5 -1.2 1.5 -1.8 3.4 -1.5 4.5 1 3.6 4.2 5 12 5 l7.3 0 0 26.5 0 26.5 -7.7 0 c-5.7 0 -8.1 0.4 -9.5 1.7 -2.4 2.2 -2.3 5.2 0.4 8 2.1 2.3 2.2 2.3 30.3 2.3 27 0 28.3 -0.1 30.9 -2.1z m193.5 0.8 c1.4 -0.6 2.9 -2.5 3.4 -4 1.3 -4.1 -1.2 -6.5 -7.2 -6.9 l-4.6 -0.3 -0.3 -22.1 c-0.1 -13 0.2 -23.3 0.8 -24.8 2.5 -6.7 15.9 -9.1 21.9 -4 l3.1 2.6 0 28.8 c0 24.9 0.2 29.1 1.6 30.4 1.2 1.2 3.7 1.6 10.3 1.6 7.3 0 9.1 -0.3 10.8 -2 5.2 -4.7 3.1 -10 -3.9 -10 l-3.8 0 0 -23.8 0 -23.8 3 -2.9 c2.7 -2.6 4 -3 10.1 -3.3 6.2 -0.4 7.3 -0.2 9.5 1.9 l2.4 2.2 0 28.7 c0 35 -0.7 33 12.1 33 8.2 0 9.2 -0.2 11.4 -2.5 2.9 -2.8 3.1 -4.2 1 -7.2 -1 -1.4 -2.8 -2.3 -5.3 -2.5 l-3.7 -0.3 -0.5 -25.5 c-0.5 -28 -0.6 -28.5 -7.2 -35 -3.7 -3.7 -8.5 -6 -12.5 -6 -4.2 0 -12.8 4.4 -15.4 7.9 -3.2 4.4 -7.8 4.3 -10 -0.2 -1.9 -3.9 -8.2 -7.7 -13 -7.7 -5 0 -12.2 2.7 -14.9 5.6 -1.7 1.7 -3.4 2.4 -6 2.4 -3 0 -3.7 -0.4 -4.7 -3 l-1.1 -3 -9.1 0 c-8 0 -9.3 0.2 -11.1 2.2 -2.5 2.7 -2.5 3.9 0 7.1 1.3 1.6 3.5 2.8 6 3.2 l4 0.7 0 25.9 0 25.9 -3.3 0 c-6.9 0 -8.9 7.2 -2.9 10.4 3.5 2 25.5 2.2 29.1 0.3z m-666.9 -0.2 c0 -0.3 -0.2 -0.5 -0.5 -0.5 -0.3 0 -0.5 0.2 -0.5 0.5 0 0.3 0.2 0.5 0.5 0.5 0.3 0 0.5 -0.2 0.5 -0.5z m-43 -76.2 c0 -2.7 -7.4 -11.6 -11.7 -14 -3.6 -2 -4.1 -2.1 -6.1 -0.7 -2 1.4 -2.1 1.7 -0.7 4.3 3.7 7.3 18.5 15.6 18.5 10.4z m64 -10.8 c0 -0.3 -0.2 -0.5 -0.5 -0.5 -0.3 0 -0.5 0.2 -0.5 0.5 0 0.3 0.2 0.5 0.5 0.5 0.3 0 0.5 -0.2 0.5 -0.5z m16.5 -11.3 c-0.8 -0.2 -1.5 -0.9 -1.5 -1.5 0 -0.7 -0.9 0.2 -2 1.8 -2.8 4.3 -2.5 4.8 1.5 2.3 2.2 -1.5 2.9 -2.4 2 -2.6z m37.3 -19.6 c3.5 -1.8 9.8 -8.4 8.9 -9.2 -1 -1 -8.2 4.1 -10.7 7.5 -2.4 3.5 -2.1 3.7 1.8 1.7z m140.9 -34 c2.7 -1.3 5.7 -3.1 6.8 -4 1.8 -1.5 1.7 -1.5 -1.7 -0.1 -2.1 0.8 -6.5 1.5 -9.8 1.5 -5.1 0 -6.5 -0.4 -8.5 -2.4 -3.1 -3.1 -4 -9.3 -3.1 -21.9 0.8 -12.7 3 -22.4 7 -31.2 3.9 -8.4 8.2 -13.6 14.5 -17.3 4.1 -2.4 5.6 -2.7 13.6 -2.7 5 0 10.1 0.4 11.5 0.8 l2.5 0.8 -2.5 -1.5 c-1.4 -0.8 -4.8 -2 -7.6 -2.7 -15.4 -3.5 -37.5 14.1 -46 36.7 -3.8 10.2 -5.8 23.7 -4.5 30.3 3 14.9 14.5 20.6 27.8 13.7z m40.3 0.3 l3.5 -1.8 -4.6 -0.1 c-5.3 0 -5.9 -0.8 -5.9 -7.1 0 -3.5 4.3 -25.2 12.4 -62.1 1.3 -6 1.9 -10.8 1.4 -10.8 -0.5 0 -1.8 1.6 -3 3.6 -1.9 3.2 -2.5 3.5 -5.7 3.2 l-3.6 -0.3 -0.1 9 c0 13.6 -4.8 31.3 -12.2 45.8 -0.2 0.4 0.4 0.7 1.4 0.7 1.5 0 1.6 0.8 1 7.9 -0.7 8.7 0.2 12.2 3.8 13.9 2.6 1.3 6.9 0.6 11.6 -1.9z m46.8 0.4 l3.7 -1.8 -4.5 -0.5 -4.5 -0.5 0.1 -10 c0.1 -7.4 1.5 -17.1 5.3 -37.5 8 -42.5 13.5 -73.9 13 -74.5 -0.5 -0.5 -23 2.3 -23.6 2.9 -0.2 0.2 2 0.6 4.8 0.9 6.3 0.8 7.9 2 7.9 6.1 0 3 -7.6 47.8 -13.5 80.1 -5.2 27.9 -5.3 29 -3.9 32.4 2.2 5.3 7.4 6.1 15.2 2.4z m67 -0.7 c6.2 -3.1 6.4 -4 0.6 -2.5 -4.6 1.3 -16.8 0.7 -20.5 -1.1 -6.6 -3.1 -9.9 -12.9 -8.3 -24.6 l0.9 -6.9 7 -1.3 c10.4 -1.9 21.3 -5 26.8 -7.9 10.8 -5.4 19.7 -17.4 18.3 -24.5 -1.5 -7.7 -9.2 -12.8 -19.2 -12.8 -3.2 0.1 -7.2 0.7 -8.9 1.4 -2.8 1.2 -2.7 1.3 2.7 0.8 11 -0.9 15.8 3.2 15.8 13.5 0 7.8 -1.6 11.9 -6.4 16.1 -7 6.1 -22.5 12.2 -31.2 12.2 l-4.4 0 0 -4.3 c0 -8.5 5.8 -23 12.2 -30.4 l3.3 -3.8 -4.2 3.3 c-12.9 10.1 -22.7 29.5 -24 47.3 -0.5 6.8 -0.3 8.3 2.1 13.5 5.3 11.6 12 15.6 25.1 15 5.2 -0.2 8.4 -1 12.3 -3z m42 2 c1.5 -0.8 4.7 -3.5 7.2 -6.1 4.5 -4.6 4.5 -4.7 1 -2.6 -4.5 2.7 -10.9 2.8 -14.3 0.1 -2.2 -1.7 -2.6 -1.8 -3.1 -0.4 -1.1 3 -0.6 5.8 1.6 8.1 2.5 2.7 3.9 2.8 7.6 0.9z m60.4 -1.5 l3.3 -2.1 -5.1 0 c-8.2 0 -8.9 -1.1 -14.1 -20 -5.1 -19 -6 -24.4 -4.4 -25.4 1.9 -1.2 1.2 -2.6 -1.2 -2.6 -2.1 0 -2.7 -1.2 -6 -11.9 -3.9 -12.6 -6.6 -17 -11.7 -19.1 -2.6 -1.1 -3.7 -1 -7.4 0.4 -7.1 2.7 -7.6 4.3 -1.6 4.8 2.7 0.3 5.6 1.1 6.4 1.7 2.1 1.7 11.6 30.8 11.6 35.4 0 2.1 -0.5 4.7 -1 5.8 -1 1.7 -0.7 1.9 2 1.9 1.6 0 3 0.2 3 0.5 0 1.7 6.5 24.5 7.6 26.6 0.7 1.5 2.6 3.7 4.1 4.9 3.4 2.7 9.5 2.3 14.5 -0.9z m56.6 0 c2.1 -1.1 4.5 -2.7 5.3 -3.7 1.3 -1.6 1.2 -1.6 -0.8 -0.6 -2.7 1.5 -13.8 1.6 -16.5 0.1 -3.4 -1.8 -4.8 -7 -4.8 -18.3 0 -36.2 15.2 -59.1 38.2 -57.4 6.2 0.5 5.9 -0.7 -0.4 -1.7 -4.5 -0.8 -13.4 1.6 -19.6 5.2 -2.4 1.4 -7.2 5.4 -10.6 8.8 -11.1 10.8 -18.6 30 -18.6 46.9 0 9.2 1.9 14.3 6.7 18.9 5.4 5.1 13.4 5.7 21.1 1.8z m37.5 0.7 l5.2 -2.3 -4.5 -0.5 -4.5 -0.5 -0.2 -7 c-0.2 -5.5 1.2 -14 6.5 -39.2 5 -23.6 6.5 -32.3 5.5 -32.3 -0.7 0 -1.9 1.4 -2.8 3 -1.2 2.4 -2.2 3 -4.8 3 -3.2 0 -3.2 0.1 -2.9 3.9 0.7 7.4 -5.8 35.1 -10.4 44.4 -2.8 5.7 -2.8 5.7 -0.9 5.7 1.8 0 2 4.6 0.5 11.8 -1.3 5.8 -0.1 9.8 3.2 11.2 3.4 1.3 4.5 1.2 10.1 -1.2z m104.2 -0.3 l4 -2.4 -4.2 -0.1 c-7.1 0 -7 -1 0.8 -40.7 2.7 -13.9 4.9 -26 4.9 -26.9 0 -5.6 -6.7 -12.4 -12.2 -12.4 -3.5 0 -12.5 3.4 -15.8 6 l-2.5 1.9 4.2 -1.1 c5.8 -1.4 12.9 -0.3 14.8 2.5 2.5 3.6 1.8 12.1 -3.5 38.3 -6.1 29.8 -6.2 32 -2.6 35.1 3.5 3 7.1 2.9 12.1 -0.2z m53.4 1 c2.3 -0.8 5.2 -2.3 6.5 -3.2 2.2 -1.8 2.1 -1.8 -5.1 -1.5 -12.9 0.7 -14.9 -2.7 -14 -24.3 0.9 -19.8 5.2 -34 13.1 -43.2 4.8 -5.5 10.8 -8.3 19.8 -9 6.3 -0.6 6.9 -0.8 4.3 -1.5 -12 -3.4 -32 10.4 -41 28.3 -11.5 22.7 -9.6 47.9 3.9 54 5 2.3 7.1 2.3 12.5 0.4z m43.1 -1 l2.5 -1.4 -3.1 -0.1 c-1.7 0 -3.7 -0.7 -4.4 -1.5 -2 -2.4 -0.7 -14.1 3.9 -36.6 2.2 -10.8 6.5 -33.7 9.6 -51 3 -17.3 5.7 -32.2 6 -33.3 0.3 -1.7 -0.1 -1.8 -4.8 -1.2 -2.9 0.4 -7.8 1 -10.9 1.3 -7 0.7 -7.6 2.1 -1 2.5 l4.7 0.3 0.3 5 c0.2 2.8 -0.9 12.5 -2.4 21.8 -2.6 16 -2.8 16.7 -5.1 16.7 -2.4 0 -3.1 1.4 -1.3 2.5 1.7 1 1.1 8.6 -1.5 21.6 -3.4 16.7 -5.1 22.4 -8.7 28.7 -2.8 5 -2.9 5.2 -0.9 5.2 2 0 2.1 0.5 1.8 8.6 -0.2 8.3 -0.1 8.6 2.7 11.1 2.4 2 3.5 2.3 6.5 1.8 1.9 -0.4 4.7 -1.3 6.1 -2z m63.6 -1 c3 -1.5 5.4 -2.8 5.2 -2.9 -0.2 -0.2 -4 0.2 -8.6 0.7 -7.3 1 -8.7 0.8 -12.9 -0.9 -3.2 -1.3 -5.7 -3.3 -7.8 -6.3 -2.9 -4.1 -3 -4.7 -3 -14.6 0 -5.7 0.2 -10.6 0.5 -10.8 0.3 -0.3 5.5 -1.7 11.6 -3 20.6 -4.7 32.7 -11.5 37.3 -21 4.2 -8.7 1.8 -16.8 -6.4 -21.4 -4.6 -2.6 -10.8 -2.9 -17 -0.8 l-4 1.3 6.7 0.1 c6 0.1 7.1 0.4 10 3 3.2 2.9 3.3 3.1 3.3 11.4 0 8 -0.2 8.7 -3.1 12.4 -1.7 2.1 -4.6 4.8 -6.4 6.1 -4.5 3 -21.4 8.2 -26.9 8.2 l-4.4 0 0.6 -6.4 c0.8 -8.3 5.9 -21.3 10.6 -26.8 l3.6 -4.3 -3.8 3 c-5.2 4 -13.1 14.5 -16.7 22.1 -3.4 7 -7 21 -7 27 0 6.8 2.8 14.2 7.2 19 7.9 8.6 20 10.5 31.4 4.9z m-217.4 -3 c3 -19.1 8.2 -41.7 11.3 -48.7 0.5 -1.3 0.3 -1.8 -1 -1.8 -1.5 0 -1.7 -0.7 -1.2 -4.7 0.3 -2.7 1.4 -8.5 2.5 -13 1.1 -4.7 1.6 -8.5 1.1 -9 -1 -1 -20.3 1.7 -21.5 3 -0.4 0.4 1.3 0.7 3.9 0.7 5 0 7.7 1.8 7.7 5.1 0 2 -1.8 12.7 -8.6 50.9 -1.9 10.7 -3.4 20.2 -3.4 21.3 0 1.5 0.7 1.8 4.2 1.5 l4.3 -0.3 0.7 -5z m273.2 -10.2 c3.3 -17 6.8 -29.7 9.6 -35.3 2.5 -4.9 2.5 -5 -0.5 -5 -3.2 0 -3.2 -1.5 0.1 -14.8 3.4 -13.4 3.3 -13.5 -9.1 -11.6 -4.9 0.7 -9.4 1.4 -10 1.4 -2.5 0.1 2.3 2 5.1 2 1.6 0 3.5 0.5 4.2 1.2 1.9 1.9 1.4 10.8 -1.3 24.6 -2.9 14.5 -9.5 50.1 -9.5 51.4 0 0.4 1.9 0.8 4.3 0.8 l4.3 0 2.8 -14.7z m-830.8 6.1 c1.2 -3.3 1.4 -4.8 0.6 -5.6 -2.5 -2.5 -6.6 4.8 -5.1 9 1.2 3.1 2.4 2.2 4.5 -3.4z m-112.6 -25.9 c0 -2.7 -4 -9.5 -8.1 -14 -4.9 -5.3 -8.8 -7.1 -11.8 -5.5 -2.8 1.5 -2.6 3.4 0.9 8.5 3.6 5.3 8.2 9 13.6 10.9 5.1 1.9 5.4 1.9 5.4 0.1z m80 -9 c0 -0.3 -0.2 -0.5 -0.5 -0.5 -0.3 0 -0.5 0.2 -0.5 0.5 0 0.3 0.2 0.5 0.5 0.5 0.3 0 0.5 -0.2 0.5 -0.5z m907.2 -22.6 c1.1 -0.6 2.9 -3.1 4 -5.5 1.8 -4.1 1.8 -4.7 0.5 -6.8 -0.9 -1.3 -2.9 -2.9 -4.6 -3.6 -4.5 -1.8 -10.4 0.7 -16.6 7.1 -4.2 4.2 -4.5 4.8 -2 3.5 5.9 -3.1 13 -1.4 14.6 3.4 1.2 3.4 1.3 3.4 4.1 1.9z m-452.3 -5.9 c3.2 0 6.2 0.5 6.9 1.2 1.5 1.5 3.5 -0.2 5.3 -4.4 1.2 -2.9 1.1 -3.2 -1.5 -5.4 -2.6 -2.3 -2.9 -2.3 -6.4 -0.9 -2 0.9 -6.4 4.3 -9.7 7.7 -3.3 3.4 -4.7 5.1 -3.1 4 2.1 -1.7 4.3 -2.2 8.5 -2.2z m-114.9 -7.5 c0 -0.3 -0.2 -0.5 -0.5 -0.5 -0.3 0 -0.5 0.2 -0.5 0.5 0 0.3 0.2 0.5 0.5 0.5 0.3 0 0.5 -0.2 0.5 -0.5z m390.7 -1.2 c-0.4 -0.3 -1 -0.3 -1.4 0 -0.3 0.4 0 0.7 0.7 0.7 0.7 0 1 -0.3 0.7 -0.7z m71.3 0.2 c0 -0.3 -0.2 -0.5 -0.5 -0.5 -0.3 0 -0.5 0.2 -0.5 0.5 0 0.3 0.2 0.5 0.5 0.5 0.3 0 0.5 -0.2 0.5 -0.5z m-732.6 -9.4 c4.7 -3.2 10.6 -9.8 10.6 -11.7 0 -0.6 -0.9 -1.9 -1.9 -2.8 -1.7 -1.5 -2.2 -1.6 -5.2 -0.3 -6.6 2.8 -11.5 7.3 -14.6 13.4 l-3 6 4.8 -0.8 c2.8 -0.4 6.8 -2.1 9.3 -3.8z m-119.6 -77 c-1.4 -4.8 -9.1 -12.3 -12.5 -11.9 -3.4 0.4 -6.7 4.8 -5.8 7.7 1.1 3.7 6.6 9.1 11.7 11.7 2.7 1.4 5.2 3.3 5.6 4.2 1.1 2.8 2 -7.9 1 -11.7z"/>
  <path d="M700.6 587.6 c-5.7 -2.1 -10.8 -6.7 -13.6 -12.2 -2.2 -4.2 -2.5 -6.2 -2.5 -14.4 0 -8.1 0.4 -10.2 2.4 -14.2 2.9 -5.7 5.1 -7.8 11.1 -11 3.9 -2 5.9 -2.3 15.6 -2.3 10.6 0 11.3 0.1 15.9 3 2.7 1.7 6.3 5 8 7.4 2.9 4.2 3 4.5 3 16.4 0 10.6 -0.3 12.7 -2.2 16.2 -2.5 4.7 -5.4 7.6 -10.3 10.1 -4.7 2.4 -21.8 3 -27.4 1z"/>
 </g>
 <g fill="#002241">
  <path d="M433 684.3 c-22.8 -22.9 -45.7 -51.4 -59.9 -74.7 -3.3 -5.5 -6.5 -10.4 -6.9 -10.8 -0.6 -0.6 -1.7 3 -2.7 8.4 -3.6 18.6 -13.6 48.9 -22.8 68.8 -3.6 7.8 -12 19 -14.3 19 -0.7 0 -1.9 -0.7 -2.7 -1.5 -2 -1.9 -1.1 -5.3 4.9 -18.2 10 -21.3 16.8 -41 22.3 -64.3 4.1 -17.3 11.1 -54.8 10.5 -56.3 -0.3 -0.7 -2.4 -2.6 -4.7 -4.4 -2.3 -1.8 -9.7 -7.5 -16.5 -12.7 -8.8 -6.8 -13.8 -9.9 -17.5 -11 -5.7 -1.7 -12.9 -7.1 -15.2 -11.7 -5 -9.5 3 -15.3 13.1 -9.4 4.7 2.7 11 10.7 11.5 14.5 0.3 1.5 2.7 4.3 6.9 7.7 8.6 7 22.8 16.8 23.5 16.1 0.9 -0.9 3.3 -17.6 4 -27.8 0.4 -5.2 0.8 -10.6 1 -12 0.2 -1.4 0.6 -6.8 1 -12 0.3 -5.2 0.8 -12 1.1 -15.1 l0.6 -5.5 -17.9 -15.5 c-9.8 -8.4 -23 -20.5 -29.4 -26.7 -9.1 -8.8 -12.7 -11.6 -16.5 -12.9 -8.9 -3 -18.3 -14.9 -16.9 -21.4 0.7 -2.9 4.7 -5.9 8 -5.9 7.1 0 20.5 14.6 20.5 22.3 0 4.8 50.5 51.4 52.2 48.3 0.5 -0.8 2.4 -22.3 4.3 -47.8 1.9 -25.4 3.7 -48.3 4 -50.7 0.6 -5 1 -4.2 -20 -37.1 -7.2 -11.3 -14.3 -22.6 -15.8 -25.3 -1.9 -3.2 -4.1 -5.4 -7 -6.8 -8.4 -4.2 -12.7 -9.9 -12.7 -16.9 0 -3.3 0.6 -4.8 3 -7.2 2.7 -2.7 3.6 -3 7.1 -2.5 4.8 0.6 9.9 4.3 13 9.4 1.9 3 2.4 5.3 2.5 11.3 l0.1 7.5 10.1 16.2 c5.6 8.9 11.7 18.4 13.6 21 1.8 2.6 4.2 6.4 5.2 8.3 l1.8 3.5 1.2 -11.5 c0.7 -6.3 1.3 -15.4 1.3 -20.2 0.1 -8.3 0 -8.8 -2.9 -11.6 -8.6 -8.6 1.8 -16 16.5 -11.7 13.4 3.8 15.8 15.5 3.5 17.1 -5.8 0.8 -5.3 -1.3 -7.5 28.9 -0.8 11.6 -2.2 29.6 -3 40 -1.6 19.8 -1.9 29.5 -1 29.5 3.8 0 26.9 -16.1 49 -34.1 9.1 -7.3 10.8 -9.3 14.2 -15.9 3.8 -7.2 11.9 -13.1 19.1 -13.8 4.4 -0.4 5.1 -0.2 7 2.3 3 3.7 2.8 6.4 -0.8 11.3 -4.8 6.7 -16.3 14.1 -19.8 12.7 -2 -0.8 -6.7 2.2 -18 11.3 -11.7 9.4 -30.7 23.7 -42 31.6 -4.6 3.2 -8.9 6.8 -9.7 8 -0.8 1.3 -1.5 7 -1.9 15.1 -1.8 37.9 -4 69.7 -5.2 77.3 -0.5 3.1 -0.4 3.3 1.8 2.7 1.3 -0.4 6 -2.4 10.5 -4.6 7.4 -3.5 8.4 -4.4 11.3 -9.5 3.3 -5.7 12.6 -30.6 16 -42.6 1.5 -5.3 1.6 -7.4 0.8 -10.1 -1.5 -4.8 -0.2 -10.2 3.1 -14 2.6 -2.8 3.1 -3 5.5 -1.9 3.9 1.7 4.8 5.1 3.1 11 -0.8 2.7 -2.4 6 -3.4 7.3 -1 1.4 -2.4 4.5 -3.1 6.9 -1.9 7.3 -8.7 28 -11.4 35.3 -1.4 3.7 -2.6 7 -2.6 7.2 0 0.9 7.9 -3.5 17.3 -9.6 5 -3.3 11.7 -8.7 14.8 -11.9 7.8 -8.2 16 -10 16.7 -3.7 0.6 4.8 -9.3 13.7 -15.2 13.7 -1.5 0 -6 2.4 -10.8 5.9 -8.1 5.6 -33.3 21 -47.1 28.5 -3.8 2.1 -7.2 4.7 -7.7 5.9 -0.8 1.8 -9.8 53.8 -10.3 58.7 -0.3 3.6 24.7 41.7 39 59.5 10.4 13 31 34.1 40.6 41.5 7.2 5.5 8.2 7.9 4.5 10.4 -4.6 3.2 -6.4 2.2 -19.8 -11.1z"/>
  <path d="M582.4 686 c-4.5 -1.8 -5.4 -4.7 -5.4 -16.7 0 -10.6 0.1 -11.3 2 -11.3 1.9 0 2 0.7 2 10.5 0 9.3 0.2 10.7 2.1 12.6 1.6 1.6 2.9 2 5.3 1.5 5.5 -1.1 6.6 -3.6 6.6 -14.7 0 -9.9 0 -9.9 2.5 -9.9 l2.5 0 0 14 0 14 -2.5 0 c-1.5 0 -2.5 -0.6 -2.5 -1.4 0 -1.1 -0.8 -1 -3.7 0.5 -4 2.1 -5.7 2.2 -8.9 0.9z"/>
  <path d="M759.6 685.9 c-13.8 -3.8 -11.8 -27.1 2.4 -28.6 6 -0.6 10.5 2.2 11.9 7.4 2.1 7.4 2.2 7.3 -8.8 7.3 -5.5 0 -10.2 0.4 -10.5 0.8 -1 1.6 2.9 7.7 5.8 9.1 2.5 1.2 3.6 1.2 7.7 -0.2 4 -1.2 4.9 -1.3 5.3 -0.1 1.2 3.1 -7.9 5.9 -13.8 4.3z m10.4 -18.7 c0 -6 -7.9 -8.4 -12.5 -3.7 -4.5 4.4 -3.4 5.5 5 5.5 6.5 0 7.5 -0.2 7.5 -1.8z"/>
  <path d="M836.6 685.9 c-11.4 -3.2 -13.2 -21.4 -2.5 -27.1 9.3 -5 19.9 1.4 19.9 11.9 0 5.8 -2.7 12.1 -5.9 13.7 -3.7 1.9 -8.2 2.5 -11.5 1.5z m7.7 -4 c3.5 -1.6 5.2 -5.4 5.1 -11.1 -0.1 -6.2 -3.1 -9.8 -8.4 -9.8 -4.8 0 -7.7 2.3 -9 6.9 -1.4 5.3 -0.3 9.7 3.2 12.6 3.2 2.7 5.4 3.1 9.1 1.4z"/>
  <path d="M920.5 686 c-4.7 -1 -7.1 -2.7 -8.5 -5.9 -1.8 -4.4 -0.5 -9.5 3.3 -13.4 l3.3 -3.2 -2.3 -4 c-2.9 -5.2 -2.9 -8 0.2 -11 1.7 -1.8 3.5 -2.5 6.3 -2.5 9.2 0 12.3 8.1 5.7 14.7 l-3.5 3.5 4.6 5.4 c2.6 3 4.9 5.3 5.1 5.1 0.2 -0.2 0.4 -2.1 0.5 -4.1 0.1 -3.1 0.5 -3.6 2.5 -3.6 2.8 0 3 2.3 0.8 7.7 -1.5 3.6 -1.5 3.7 1.6 6.9 3.1 3.2 3.1 3.2 1 4.4 -1.9 1 -2.5 0.8 -4.3 -1.5 -1.8 -2.3 -2.2 -2.5 -3.7 -1.1 -2.2 2 -8.9 3.4 -12.6 2.6z m9.3 -5.6 l2.3 -1.5 -4.7 -5.2 c-2.6 -2.9 -5.1 -5.6 -5.5 -6.1 -1.1 -1.2 -3.6 1 -5.5 4.7 -1.3 2.3 -1.3 3.5 -0.4 5.7 2.1 5 8.2 6.1 13.8 2.4z m-1.8 -26.9 c0 -0.8 -1.1 -2.2 -2.5 -3.1 -2.3 -1.5 -2.7 -1.5 -5 0 -3.1 2 -3.1 2.9 -0.3 7.4 l2.1 3.5 2.9 -3.2 c1.5 -1.7 2.8 -3.8 2.8 -4.6z"/>
  <path d="M1036.5 686.5 c-0.5 -0.2 -2.2 -0.6 -3.7 -0.9 -2 -0.5 -2.8 -1.3 -2.8 -2.7 0 -1.6 0.4 -1.9 1.8 -1.4 4.3 1.6 7.3 1.7 9.7 0.1 4.4 -2.9 3.3 -5.4 -4 -8.7 -7.8 -3.5 -9.5 -6.1 -7.1 -10.7 1.9 -3.7 7.6 -5.8 13 -4.8 2.6 0.5 3.6 1.2 3.6 2.6 0 1.7 -0.5 1.8 -5 1.3 -4 -0.5 -5.4 -0.2 -7 1.2 -1.1 1 -2 2.2 -2 2.7 0 0.5 2.8 2.2 6.3 3.8 3.5 1.6 6.9 3.5 7.6 4.4 2.1 2.4 1 8.6 -1.9 10.7 -2.6 1.7 -6.7 2.9 -8.5 2.4z"/>
  <path d="M1112.5 686 c-7 -1.5 -10.5 -6.2 -10.5 -13.9 0 -8.4 4 -13.6 11.4 -14.8 7 -1.1 12 2.8 13.2 10.6 l0.7 4.1 -10.7 0 c-6.6 0 -10.6 0.4 -10.6 1 0 0.6 0.6 2.6 1.4 4.5 2 4.7 7.5 6.4 13 4.1 2.1 -0.9 4 -1.6 4.2 -1.6 0.8 0 0.4 3.9 -0.4 4.4 -2 1.2 -8.9 2.2 -11.7 1.6z m9.5 -19 c0 -5.5 -8.8 -8.1 -12.7 -3.7 -4.5 5 -4 5.7 4.7 5.7 7.3 0 8 -0.2 8 -2z"/>
  <path d="M558 673.5 l0 -12.5 -2.8 0 c-1.9 0 -2.9 -0.5 -2.9 -1.5 0 -1 1 -1.5 2.9 -1.5 2.7 0 2.8 -0.2 2.8 -5 0 -6.7 3.2 -10.3 8.8 -9.8 2.6 0.2 3.8 0.8 4 2.1 0.3 1.3 -0.3 1.7 -2.7 1.7 -4.1 0 -6.1 2.4 -6.1 7.1 0 3.8 0.1 3.9 3.5 3.9 2.4 0 3.5 0.5 3.5 1.5 0 1 -1.1 1.5 -3.5 1.5 l-3.5 0 0 12.5 c0 11.8 -0.1 12.5 -2 12.5 -1.9 0 -2 -0.7 -2 -12.5z"/>
  <path d="M612 672 c0 -13.3 0.1 -14 2 -14 1.3 0 2 0.7 2 2 0 1.7 0.2 1.7 2.5 -0.6 2.9 -2.8 6.8 -2.9 7.3 -0.1 0.3 1.2 -0.3 1.7 -2.2 1.7 -5.4 0 -7.6 4.8 -7.6 16.6 0 7.7 -0.2 8.4 -2 8.4 -1.9 0 -2 -0.7 -2 -14z"/>
  <path d="M650 666 l0 -20 7 0 c9 0 13.5 1.8 15.7 6.4 2.9 6.2 -0.8 13.4 -8 15.9 -0.5 0.1 1.3 3.6 4 7.7 2.7 4.1 5.3 8.1 5.7 8.8 0.5 0.8 -0.1 1.2 -2.1 1.2 -2.4 -0.1 -3.5 -1.3 -8.1 -8.5 -4.3 -6.8 -5.9 -8.5 -7.8 -8.5 -2.3 0 -2.4 0.2 -2.4 8.5 0 7.8 -0.2 8.5 -2 8.5 -1.9 0 -2 -0.7 -2 -20z m16 -3.5 c3.1 -3.3 3.1 -8.2 0.1 -10.7 -1.6 -1.2 -3.9 -1.8 -7.2 -1.8 l-4.9 0 0 7.5 0 7.5 4.8 0 c3.9 0 5.3 -0.5 7.2 -2.5z"/>
  <path d="M684.8 683.1 c-3.2 -2.9 -3.3 -3.1 -3.3 -11.1 0 -7.9 0.1 -8.2 3.2 -11.1 4.2 -3.7 7.5 -4.5 12.4 -3 4.6 1.4 6.9 4.4 7.6 10.1 l0.6 4 -10.2 0 c-10 0 -10.1 0 -10.1 2.4 0 1.4 1.1 3.8 2.4 5.3 2 2.3 3.2 2.8 7 2.7 2.4 0 5.6 -0.8 7 -1.8 2.5 -1.6 2.6 -1.6 2.6 0.7 0 3.1 -3.5 4.7 -10.5 4.7 -4.6 0 -6 -0.5 -8.7 -2.9z m15.2 -15.9 c0 -7.9 -12.2 -8.3 -14.5 -0.4 -0.6 2.1 -0.4 2.2 6.9 2.2 6.6 0 7.6 -0.2 7.6 -1.8z"/>
  <path d="M717 673.5 l0 -12.5 -2.9 0 c-1.6 0 -3.1 -0.6 -3.5 -1.5 -0.4 -1.2 0.3 -1.5 2.9 -1.5 l3.5 0 0 -5 c0 -6.5 3.2 -10 9.1 -10 3.4 0 3.9 0.3 3.9 2.3 0 2 -0.4 2.3 -3 1.9 -4.3 -0.6 -6 1.2 -6 6.4 l0 4.4 4 0 c2.9 0 4 0.4 4 1.5 0 1.1 -1.1 1.5 -4 1.5 l-4 0 0 12.5 c0 11.8 -0.1 12.5 -2 12.5 -1.9 0 -2 -0.7 -2 -12.5z"/>
  <path d="M737 664.5 c0 -20.8 0.1 -21.5 2 -21.5 1.9 0 2 0.7 2 21.5 0 20.8 -0.1 21.5 -2 21.5 -1.9 0 -2 -0.7 -2 -21.5z"/>
  <path d="M781 685.6 c0 -0.4 2.1 -3.7 4.6 -7.6 l4.6 -6.9 -1.9 -2.8 c-1.1 -1.5 -3 -4.5 -4.2 -6.5 l-2.3 -3.8 2.6 0 c2.1 0 3.2 1 5.4 5 1.5 2.7 2.9 5 3.2 5 0.3 0 2 -2.3 3.8 -5 2.5 -3.9 3.8 -5 5.8 -5 2.5 0 2.5 0 -2 6.5 -2.5 3.6 -4.6 6.8 -4.6 7 0 0.2 1.7 3 3.8 6.2 5.7 8.7 5.6 8.3 2.8 8.3 -1.9 0 -3.2 -1.2 -5.8 -5.5 -1.8 -3 -3.6 -5.3 -4 -5.2 -0.5 0.1 -2.3 2.5 -4.1 5.2 -2 3.1 -4.1 5.1 -5.5 5.3 -1.2 0.2 -2.2 0.1 -2.2 -0.2z"/>
  <path d="M813 672 l0 -14 2.5 0 2.5 0 0 14 0 14 -2.5 0 -2.5 0 0 -14z"/>
  <path d="M863 672 l0 -14 2.5 0 c1.7 0 2.5 0.6 2.5 1.7 0 1.5 0.1 1.5 1.8 0 4.4 -4 12.9 -2.9 15.1 1.9 0.6 1.4 1.1 7.4 1.1 13.4 0 10.3 -0.1 11 -2 11 -1.9 0 -2 -0.7 -2 -10.5 0 -9.2 -0.3 -10.8 -2 -12.5 -2.7 -2.7 -6.3 -2.5 -9.7 0.4 -2.7 2.3 -2.8 2.9 -3.1 12.5 -0.4 9.1 -0.6 10.1 -2.3 10.1 -1.8 0 -1.9 -0.9 -1.9 -14z"/>
  <path d="M966.2 666.3 l0.3 -19.8 6 -0.3 c7.5 -0.4 12.8 1.1 15.4 4.5 3.9 4.9 2 13.5 -3.6 16.3 -1.5 0.8 -3 1.5 -3.2 1.7 -0.2 0.1 2.2 3.8 5.3 8.2 3.1 4.4 5.6 8.3 5.6 8.6 0 0.3 -1.1 0.5 -2.5 0.5 -2.1 0 -3.5 -1.5 -8 -8.5 -4.5 -6.9 -6 -8.5 -8 -8.5 -2.5 0 -2.5 0.1 -2.5 8.5 0 8.4 0 8.5 -2.5 8.5 l-2.5 0 0.2 -19.7z m16.3 -3.8 c5.5 -5.4 1.5 -12.5 -7.1 -12.5 l-4.4 0 0 7.5 0 7.5 4.5 0 c3.5 0 5.2 -0.6 7 -2.5z"/>
  <path d="M1003.9 684.5 c-8.8 -4.8 -7.1 -23.1 2.4 -26.5 8.9 -3 15.7 1.5 15.7 10.5 l0 3.5 -10 0 c-5.5 0 -10 0.4 -10 0.9 0 2.9 2.6 7.4 5.1 8.6 3.4 1.8 5.3 1.8 10.2 0.1 3.4 -1.3 3.7 -1.2 3.7 0.5 0 1 -0.9 2.3 -1.9 2.9 -2.8 1.5 -12.1 1.2 -15.2 -0.5z m14.1 -17.5 c0 -2.9 -3.5 -6 -6.9 -6 -3.5 0 -8.1 3.5 -8.1 6.1 0 1.7 0.8 1.9 7.5 1.9 6.8 0 7.5 -0.2 7.5 -2z"/>
  <path d="M1057 672 l0 -14 2.5 0 2.5 0 0 14 0 14 -2.5 0 -2.5 0 0 -14z"/>
  <path d="M1073 664.5 l0 -21.5 2.4 0 c1.8 0 2.3 0.5 2.1 2.3 -0.1 1.2 -0.3 10.9 -0.4 21.5 -0.1 18.5 -0.2 19.2 -2.1 19.2 -1.9 0 -2 -0.7 -2 -21.5z"/>
  <path d="M1089 672 c0 -13.3 0.1 -14 2 -14 1.9 0 2 0.7 2 14 0 13.3 -0.1 14 -2 14 -1.9 0 -2 -0.7 -2 -14z"/>
  <path d="M1135.9 685.8 c0 -0.2 -0.3 -6.5 -0.6 -14 l-0.5 -13.8 2.6 0 c1.8 0 2.6 0.5 2.6 1.8 0 1 0.3 1.3 0.8 0.6 2.1 -3.2 8.2 -4.3 12.5 -2.3 3.8 1.7 4.7 5 4.7 16.9 0 10.3 -0.1 11 -2 11 -1.9 0 -2 -0.7 -2 -10.3 0 -7.7 -0.4 -10.8 -1.6 -12.5 -2.1 -3 -7.3 -3 -10.2 0.1 -2 2.1 -2.2 3.4 -2.2 12.5 0 9.5 -0.1 10.2 -2 10.2 -1.1 0 -2 -0.1 -2.1 -0.2z"/>
  <path d="M1167 684.2 c0 -1 3.2 -6.4 7 -11.9 3.9 -5.6 7 -10.4 7 -10.7 0 -0.3 -3.1 -0.6 -7 -0.6 -5.6 0 -7 -0.3 -7 -1.5 0 -1.2 1.8 -1.5 10 -1.5 7.8 0 10 0.3 10 1.4 0 0.7 -3.3 6 -7.4 11.7 l-7.3 10.4 7.3 0.3 c6.6 0.3 7.4 0.5 7.4 2.2 0 1.9 -0.7 2 -10 2 -9 0 -10 -0.2 -10 -1.8z"/>
  <path d="M580.6 650.4 c-0.9 -2.2 1.7 -4.9 3.9 -4 1 0.3 1.5 1.5 1.3 2.8 -0.4 2.9 -4.2 3.7 -5.2 1.2z"/>
  <path d="M591.5 651 c-1.2 -2 0.6 -5.1 2.8 -4.8 3.1 0.4 3.1 5.2 0 5.6 -1.1 0.2 -2.4 -0.2 -2.8 -0.8z"/>
  <path d="M813.1 650.6 c-1.6 -2 -0.3 -4.6 2.4 -4.6 2.7 0 3.6 1.7 2.3 4.3 -1 2 -3.1 2.2 -4.7 0.3z"/>
  <path d="M1057.5 650.4 c-1.1 -1.2 -1.2 -2 -0.4 -3.5 1.4 -2.8 4.3 -2 4.7 1.2 0.4 3.2 -2.1 4.5 -4.3 2.3z"/>
  <path d="M1089.2 650.8 c-1.7 -1.7 -1.5 -4.7 0.4 -5.5 2.3 -0.9 5.1 2.3 3.8 4.4 -1.4 2.2 -2.7 2.6 -4.2 1.1z"/>
  <path d="M699 602.9 c-3 -0.5 -8.3 -2.3 -11.7 -4 -27.6 -13.4 -31 -54.2 -6 -72.5 8.6 -6.4 16.1 -8.4 31.1 -8.4 17.9 0 26.3 2.9 36.1 12.1 20.7 19.6 14.6 57.8 -11 69.5 -8.3 3.8 -25.9 5.3 -38.5 3.3z m26.5 -19.6 c8.8 -4.6 12 -10.6 12 -23 0 -8.6 -0.2 -9.4 -3 -13.4 -1.7 -2.4 -5.3 -5.7 -8 -7.4 -4.3 -2.7 -5.7 -3 -12.9 -3 -11.9 0 -18.9 3.9 -23.7 13.3 -3.3 6.6 -3.3 16.1 0.2 22.7 2.7 5.4 7.9 10 13.5 12.1 5.4 2 16.7 1.3 21.9 -1.3z"/>
  <path d="M915.5 602.6 c-5.5 -2.1 -12.7 -10 -15 -16.7 -1.5 -4.4 -1.9 -9.3 -2.2 -26.4 l-0.4 -21 -5.2 -0.5 c-4.2 -0.4 -5.4 -0.9 -6.4 -3 -1.9 -3.8 -1.6 -9.4 0.8 -12.4 2 -2.6 2.1 -2.6 15.9 -2.6 9.9 0 14 0.4 14.8 1.3 0.7 0.8 1.2 11.3 1.4 28.9 l0.3 27.7 3 3.1 c5.8 6.1 14.6 6.3 23.4 0.5 7.8 -5.2 8.1 -6.2 8.1 -26 l0 -17.5 -5.9 0 c-5.3 0 -6.2 -0.3 -8.1 -2.7 -1.8 -2.3 -2.1 -3.6 -1.6 -7.2 1.1 -7.8 1.8 -8.1 18.6 -8.1 11.1 0 15 0.3 15.9 1.3 0.7 0.9 1.2 11.5 1.3 32.3 l0.3 30.9 5.2 0.3 c6.4 0.4 7.7 1.8 7.6 8.5 -0.1 4.2 -0.5 5.5 -2.7 7.4 -2.5 2.1 -3.6 2.3 -14.7 2.3 -10.6 0 -12.1 -0.2 -13.9 -2 -1.1 -1.1 -2 -3.3 -2 -5 0 -3.7 -0.9 -3.8 -4.1 -0.4 -4.7 5.1 -11.6 7.7 -21.4 8.1 -6.2 0.2 -10.2 -0.1 -13 -1.1z"/>
  <path d="M558.2 600.7 c-2.7 -2.8 -3 -10.1 -0.6 -13.5 1.4 -2 2.3 -2.2 11 -2.2 l9.4 0 0 -23.5 0 -23.5 -9.3 0 c-11.7 0 -13.7 -1.3 -13.7 -9 0 -7.9 1.7 -9 14.1 -9 9.6 0 10 -0.1 9.4 -2 -1.3 -4.1 -0.8 -14.5 0.8 -17.6 4.1 -8 15.3 -14.6 28 -16.6 8.8 -1.3 25.7 0.1 30.5 2.6 4.9 2.6 6.6 9.1 3.7 14.6 -1.9 3.6 -5 4.5 -11.8 3.4 -2.9 -0.4 -9.8 -0.8 -15.3 -0.9 -8.8 0 -10.5 0.3 -12.4 2 -3.2 2.8 -5.2 8.1 -4.5 11.6 l0.7 2.9 17.3 0 c19.9 0 21.2 0.5 22.2 7.7 0.5 3.7 0.2 4.6 -2.5 7.3 l-3 3 -16.6 0 -16.6 0 0 23.5 0 23.5 15.4 0 c16.4 0 17.6 0.3 19.1 5.1 1 3.1 -0.3 8.7 -2.6 11 -1.8 1.8 -3.6 1.9 -36.2 1.9 l-34.4 0 -2.1 -2.3z"/>
  <path d="M781.1 600.6 c-3 -3.2 -3.4 -10.5 -0.7 -13.5 1.6 -1.8 3.1 -2.1 9.8 -2.1 l7.8 0 0 -23.5 0 -23.5 -7.4 0 c-9.2 0 -11.6 -1.6 -12.3 -8 -0.4 -3.6 -0.1 -5.1 1.7 -7.2 l2.1 -2.8 14.9 0 c17.4 0 18 0.3 18 9.9 l0 5.4 5.8 -6.1 c8.4 -9 12.8 -10.7 27.7 -10.7 10.5 0 12.5 0.3 16.2 2.2 5.5 3 7.3 5.8 7.3 11.2 0 3.7 -0.5 4.9 -3.6 7.7 -1.9 1.9 -4.3 3.5 -5.2 3.5 -4.7 0.4 -8 -0.4 -12.2 -3.1 -8.2 -5.3 -16.7 -3.5 -24.4 5 -6.6 7.3 -7.6 10.7 -7.6 26.3 l0 13.7 14.3 0 c17.3 0 18.2 0.4 18.2 8 0 4.4 -0.4 5.5 -2.8 7.6 l-2.8 2.4 -31.3 0 -31.3 0 -2.2 -2.4z"/>
  <path d="M1007.5 601.9 c-3.4 -1.9 -4.5 -4.1 -4.5 -8.9 0 -5.6 2.1 -8 6.8 -8 l3.2 0 0 -22.9 0 -22.9 -4 -0.7 c-5.2 -0.9 -8 -4.4 -8 -9.9 0 -2.9 0.7 -4.9 2 -6.4 1.9 -2 3 -2.2 14.1 -2.2 l11.9 0 1.2 2.8 c0.7 1.5 1.3 2.9 1.5 3.1 0.2 0.3 1.6 -0.7 3.1 -2.2 3.8 -3.7 10.3 -5.7 18.1 -5.7 7.8 0 13.4 2.7 16.1 7.7 l1.7 3.2 2.2 -3 c3.3 -4.5 11.3 -7.9 18.4 -7.9 6.9 0 11.2 1.6 15.5 6 6.6 6.5 6.7 7 7.2 35 l0.5 25.5 3.7 0.3 c4.7 0.4 6.8 3.2 6.8 9 0 3.2 -0.6 4.9 -2.5 6.7 -2.3 2.4 -3 2.5 -14.4 2.5 -11.3 0 -12.1 -0.1 -13.5 -2.2 -1.4 -1.9 -1.6 -6.6 -1.6 -30.8 l0 -28.7 -2.5 -2.3 c-3.3 -3.1 -9.5 -2.3 -13.6 1.6 l-2.9 2.8 0 20.8 0 20.8 3.8 0 c4.9 0 7.2 2.4 7.2 7.4 0 4 -1.4 7.4 -3.9 9.3 -1 0.8 -5.7 1.2 -13.3 1.3 -9.3 0 -12 -0.3 -13.2 -1.6 -1.4 -1.3 -1.6 -5.5 -1.6 -30.4 l0 -28.8 -3.1 -2.6 c-1.7 -1.4 -4.3 -2.6 -5.7 -2.6 -3.7 0 -9 3.5 -10.2 6.6 -0.6 1.5 -0.9 10.8 -0.8 21.8 l0.3 19.1 4.5 0.3 c6.6 0.5 8.3 2.5 7.8 9 -0.7 8.4 -1.2 8.7 -20.1 9 -10.7 0.1 -16.9 -0.2 -18.2 -0.9z"/>
  <path d="M777.5 453.3 c-3 -0.7 -6.3 -4.2 -7 -7.3 -0.9 -4 1.1 -10.6 3.7 -12.4 2.1 -1.5 2.4 -1.4 5.4 1.9 1.7 1.9 3.7 3.5 4.4 3.5 2.6 0 9.6 -4.9 12.9 -9.1 4.7 -5.8 14.1 -20.1 14.1 -21.3 0 -2.3 -10.2 -31.5 -11.3 -32.4 -3 -2.5 -6.3 -2.4 -9.6 0.3 -3 2.6 -3.2 2.6 -5.6 1.1 -1.4 -0.9 -2.5 -2.1 -2.5 -2.6 0 -2 7.6 -9.4 11.5 -11.1 8.2 -3.8 17.3 -1.6 21.4 5.1 1 1.7 3.3 8 5.1 14 1.8 6.1 3.6 11 3.9 11 0.3 -0.1 2.9 -3.5 5.6 -7.7 13 -19.9 26 -28.4 33.9 -22.2 3.5 2.7 3.6 9.1 0.3 14 -2.6 3.9 -5.8 4.7 -9.2 2.5 -5.8 -3.8 -11.2 -0.3 -22.1 14.3 l-6.2 8.3 1.8 5.7 c0.9 3.1 2.9 10.8 4.5 17.1 3 12.1 5.4 16 9.7 16 2.5 0 7 -2.5 10.6 -6 2.2 -2.1 2.4 -2.1 4.3 -0.4 1 0.9 1.9 2.2 1.9 2.9 0 1.9 -10.6 11.4 -14.5 13 -5.3 2.3 -14.7 2 -17.9 -0.6 -3.7 -2.9 -5 -5.8 -8.6 -19.4 -1.7 -6.6 -3.3 -12.1 -3.5 -12.4 -0.6 -0.5 -0.2 -1.1 -6 8.4 -5.2 8.4 -17.2 21.8 -21.5 23.9 -3.3 1.7 -7 2.4 -9.5 1.9z"/>
  <path d="M1032.2 452.9 c-1.8 -0.4 -4.1 -1.4 -5.2 -2.4 -3.8 -3.4 -3.5 -8.4 2.4 -38 3.1 -15.5 5.6 -29.3 5.6 -30.7 0 -7.1 -8.4 -9.4 -16 -4.4 -6.3 4.2 -16.8 15.5 -19.5 21.1 -2.9 5.9 -6.6 20.7 -9.8 39.5 l-2.3 13.5 -7.7 0.3 c-7 0.3 -7.7 0.1 -7.7 -1.6 0 -1.5 8.7 -52.5 11.8 -69.5 1.2 -6.2 -0.1 -7.7 -6.9 -7.7 -5.2 0 -5.7 -0.7 -4 -5.3 0.8 -2.1 2 -2.5 13.5 -4.2 15.3 -2.2 16.2 -1.8 15.2 6 -0.3 2.7 -1.5 8.4 -2.5 12.5 -1.1 4.1 -1.8 7.6 -1.6 7.8 0.1 0.2 1.4 -1.7 2.9 -4.2 3.9 -6.6 14.7 -17 20.8 -20 2.9 -1.4 7.9 -3.1 11.1 -3.7 5.4 -0.9 6.3 -0.8 10.5 1.3 5.6 2.8 8.2 7.3 8.2 14.1 0 2.7 -2 15.1 -4.4 27.5 -6.1 31 -6.6 34 -6 35.7 1 2.4 5.1 1.7 8.7 -1.5 3.3 -2.9 3.5 -2.9 5.1 -1.1 2.1 2.3 1.3 4.2 -3.1 8.2 -6.4 5.9 -12.6 8.2 -19.1 6.8z"/>
  <path d="M567.2 450.9 c-9 -4.6 -12.5 -15.1 -10.4 -31.6 2.7 -21.5 11.7 -38 26.4 -48.9 12.3 -9 26.1 -10.7 37.9 -4.6 l5.8 3 2 -3.4 c1.8 -3.1 2.5 -3.4 6.6 -3.4 4.2 0 4.5 0.2 4 2.3 -1.8 7.4 -14.5 67.8 -14.9 70.9 -0.3 2 -0.3 4.4 0 5.3 1 2.5 5.7 1.7 10.3 -1.6 l4.3 -3.2 2.1 2.1 2.1 2.2 -3.3 3.4 c-7.1 7.3 -19.4 11.4 -26 8.6 -4.2 -1.7 -5.5 -5.6 -4.8 -14.5 l0.5 -7.5 -3.5 5.2 c-5.3 7.8 -7.9 10.3 -14.6 13.9 -8.2 4.4 -18.1 5.1 -24.5 1.8z m21.5 -11 c7.7 -2.9 17.8 -14 22.6 -24.9 3.3 -7.6 7.9 -27.2 8.1 -34.5 0.1 -5.6 0 -6 -2.9 -7.5 -1.8 -0.9 -5.6 -1.5 -9.5 -1.5 -5.3 0 -7.4 0.5 -11.1 2.7 -12.1 7.1 -19.6 23.6 -21.5 46.8 -1.3 16.5 3.6 23 14.3 18.9z"/>
  <path d="M660.2 452 c-1.3 -0.6 -3 -2.7 -3.9 -4.7 -1.7 -4.2 -1.3 -8.5 4.2 -37.8 1.4 -7.7 5 -28.2 8 -45.5 4.6 -26.3 5.3 -31.6 4.2 -32.8 -0.8 -0.7 -3.9 -1.6 -7 -1.9 -5.4 -0.6 -5.7 -0.7 -5.7 -3.4 0 -1.5 0.4 -3 0.9 -3.3 1.1 -0.7 22.6 -3.6 26.9 -3.6 1.8 0 3.5 0.6 3.8 1.4 0.5 1.4 -4.5 30.7 -13.6 79.6 -2.9 15.1 -5.2 30.7 -5.3 34.5 l-0.2 7 2.9 0.3 c2.1 0.3 3.7 -0.4 6 -2.7 l3.1 -3 2.4 2 2.4 2 -5.4 5.2 c-7.2 7 -16.4 9.6 -23.7 6.7z"/>
  <path d="M717 452.1 c-8 -2.6 -11.7 -6.1 -15.6 -14.5 -2.5 -5.5 -2.6 -6.5 -2.2 -16.5 0.9 -18.5 7.5 -33.8 19.8 -46.1 4 -4 9.1 -7.8 13 -9.8 5.8 -2.9 7.5 -3.3 15.1 -3.4 14.6 -0.2 21.9 5 22.7 16.2 0.6 7.5 -2.4 14.5 -8.8 20.4 -7.7 7.2 -18.2 11.5 -36.5 14.8 l-7 1.3 -0.8 4.5 c-0.5 2.7 -0.4 6.5 0.3 9.6 3.4 16.2 23.4 17.9 38 3.3 2.7 -2.7 5.3 -4.9 5.8 -4.9 0.5 0 1.7 0.8 2.6 1.9 1.6 1.7 1.5 2.1 -2.3 6.8 -4.7 6 -10.9 11.2 -17.1 14.4 -3.7 1.9 -6.4 2.3 -14.5 2.6 -5.5 0.1 -11.1 -0.1 -12.5 -0.6z m10.6 -48.2 c17.6 -5.4 26.4 -13.3 26.4 -23.4 0 -2.7 -0.8 -4.4 -2.9 -6.5 -3.9 -3.9 -7.2 -4.6 -12.6 -2.6 -7.5 2.9 -15 13.4 -18.9 26.5 -2.7 9.3 -2.7 9.3 8 6z"/>
  <path d="M882.6 452 c-4.1 -1.3 -8.5 -5.8 -10.9 -11 -1.6 -3.6 -2 -6.4 -1.9 -15 0.4 -30.5 16.4 -55.8 39.6 -62.5 8.5 -2.5 16.9 -1.6 24 2.4 l5.6 3.1 1.5 -3 c1.4 -2.7 2 -3 6.6 -3 4.3 0 5 0.2 4.5 1.8 -2.3 7.7 -14.6 70.5 -14.4 73.2 0.3 3 0.7 3.5 3.2 3.8 2 0.3 4 -0.6 6.8 -2.8 3.8 -3.1 4 -3.1 5.3 -1.4 2 2.7 1.9 2.9 -2.2 7 -5.5 5.6 -13.3 8.7 -19.9 8.2 -7.5 -0.6 -8.9 -2.3 -8.9 -10.1 0 -3.4 0.4 -8 0.8 -10.2 0.9 -4 0.9 -4 -3.2 2.3 -8 12.3 -15.5 17.3 -26.6 17.8 -3.8 0.2 -8.3 -0.1 -9.9 -0.6z m21.2 -12.9 c7.9 -4 17.5 -17.1 21.7 -29.5 3.2 -9.7 7.7 -31.4 6.9 -33.8 -1.5 -4.9 -14.5 -7 -21.4 -3.4 -6.2 3.2 -10.1 6.7 -13.4 12 -10.8 17.1 -14.4 50.6 -5.9 55.5 2.8 1.6 8 1.3 12.1 -0.8z"/>
  <path d="M1080.4 451.1 c-8.1 -3.7 -11.4 -11.5 -11.4 -27.1 0 -19.5 5.7 -34.4 18.2 -47.5 5 -5.4 8.9 -8.4 13.7 -10.7 5.9 -3 7.5 -3.3 15.1 -3.3 7.8 0.1 11.2 0.9 17.1 4.2 0.9 0.5 6.3 -34.2 5.6 -36 -0.4 -1.2 -1.8 -1.7 -4.4 -1.7 -6.2 0 -8.3 -0.9 -8.3 -3.6 0 -3.2 2.1 -4 15 -5.4 5.8 -0.7 11.1 -1.4 11.8 -1.6 0.7 -0.2 2.1 0 3.1 0.6 1.7 0.8 1.4 2.8 -3.5 30.7 -2.9 16.4 -7.6 41.3 -10.3 55.3 -6.4 32.4 -6.8 35.2 -4.7 36.9 1.9 1.6 4.9 0.7 9 -3 3.3 -2.8 3.4 -2.8 5 -1 1.7 1.9 1.7 2.1 -0.5 5 -6.7 9.1 -21.2 13.2 -27.6 7.7 -2.7 -2.3 -2.8 -2.8 -2.8 -11.1 0 -6.2 -0.3 -8.2 -1 -6.9 -2.5 4.2 -8.6 11.3 -12.3 14.2 -7.8 6.2 -18.7 8 -26.8 4.3z m21.9 -11.5 c4.2 -1.7 11.7 -10.1 16.7 -18.5 4.1 -7 6.5 -14.8 10 -32.5 1.8 -8.9 2 -11.3 1 -13.2 -2.8 -5.2 -14.2 -6.4 -22.4 -2.4 -5 2.4 -10.6 8.3 -13.7 14.2 -5.1 9.8 -9.1 33.6 -7.5 44.3 1.3 8.5 7.5 11.7 15.9 8.1z"/>
  <path d="M1177.3 451 c-14.3 -5.7 -19.6 -21.9 -14.3 -43.9 3.8 -15.9 12.3 -29.4 23.8 -38.1 13.3 -10 29.3 -11.3 38.6 -3.1 4.8 4.2 6.5 12.6 4.1 20.8 -3.5 11.9 -15.7 19.7 -38.9 25 -6.1 1.3 -11.3 2.7 -11.6 3 -0.3 0.2 -0.5 3.7 -0.5 7.7 0 6.3 0.4 7.8 2.8 11.5 4.1 6.2 9.7 8.5 17.6 7.2 7.6 -1.2 11 -3 17.3 -9.2 4.9 -4.7 5.3 -4.8 7.5 -3.4 1.3 0.9 2.3 2 2.3 2.5 0 2.3 -14.9 15.9 -20.4 18.5 -8 3.9 -20.5 4.5 -28.3 1.5z m14.8 -49 c10.7 -3.3 14.8 -5.7 19.3 -11.3 2.6 -3.3 3.1 -4.7 3.1 -9.4 0 -4.9 -0.3 -5.8 -3.3 -8.4 -8.4 -7.5 -20.4 0 -26.9 16.8 -3.8 9.8 -4.9 15.3 -3.1 15.3 0.8 0 5.7 -1.3 10.9 -3z"/>
  <path d="M1243 450.2 c0 -1.5 6.9 -39.5 10 -55 1.6 -8.3 3 -16.2 3 -17.5 0 -3 -1.8 -4.7 -4.9 -4.7 -1.5 0 -3.6 -0.3 -4.9 -0.6 -2 -0.6 -2.2 -1.1 -1.6 -3.8 0.3 -1.7 0.7 -3.2 0.9 -3.4 0.1 -0.1 5.7 -1 12.4 -1.9 l12.1 -1.7 2.2 2.1 2.1 2.2 -2.9 12 c-1.6 6.7 -2.7 12.1 -2.4 12 0.3 0 1.8 -2.7 3.4 -6 3.7 -7.5 12.8 -17.6 18.1 -20 7.3 -3.3 16.9 -1.8 19.5 3 2.8 5.3 -0.8 16.3 -6.1 18.5 -4.4 1.9 -7.6 1 -8.8 -2.5 -1.1 -3.3 -4.5 -5 -7.6 -3.9 -2.8 1 -10.8 11.1 -14.9 18.9 -4.3 8.2 -7.4 19 -11.2 38.4 l-2.8 14.7 -7.8 0 c-4.3 0 -7.8 -0.4 -7.8 -0.8z"/>
 </g>
</svg>