<?xml version="1.0" encoding="UTF-8"?>
<svg version="1.1" xmlns="http://www.w3.org/2000/svg" width="1536" height="1024">
<path d="M0 0 C506.88 0 1013.76 0 1536 0 C1536 337.92 1536 675.84 1536 1024 C1029.12 1024 522.24 1024 0 1024 C0 686.08 0 348.16 0 0 Z " fill="#FEFEFE" transform="translate(0,0)"/>
<path d="M0 0 C4.69944419 2.63315161 8.07448937 6.62775481 10.32421875 11.48828125 C11.19898934 14.73959621 11.14915129 17.76077233 11.1875 21.125 C11.5645228 29.43589395 14.84123018 34.50828166 19.59521484 41.01171875 C22.27940592 44.81082409 24.67359593 48.79850597 27.125 52.75 C30.85101241 58.69233725 34.64180317 64.53141064 38.79296875 70.1875 C40 72 40 72 41 75 C42.69383193 61.67957411 43.53524581 48.41741577 44 35 C43.38125 34.731875 42.7625 34.46375 42.125 34.1875 C40 33 40 33 38 30 C37.45359931 24.75455334 37.45359931 24.75455334 39.3125 22.1875 C43.90563679 18.95529263 49.65004466 19.49713214 55 20 C59.92888772 21.26311329 63.82313225 22.98734635 67.6875 26.3125 C69.4634456 29.94896004 69.01897688 32.14244468 68 36 C65.50494038 38.49505962 64.32671112 38.35948376 60.875 38.625 C59.96492188 38.69976562 59.05484375 38.77453125 58.1171875 38.8515625 C57.41851562 38.90054688 56.71984375 38.94953125 56 39 C55.89510254 40.52185913 55.89510254 40.52185913 55.78808594 42.07446289 C53.60407276 73.72207633 51.31602474 105.36179759 49 137 C51.06445676 135.9086414 53.12648524 134.81268867 55.1875 133.71484375 C56.33605469 133.10503662 57.48460937 132.49522949 58.66796875 131.86694336 C63.11831251 129.37340741 67.1414025 126.49205051 71.18359375 123.390625 C73.43673952 121.66563598 75.70309612 119.95852588 77.96875 118.25 C97.76446957 104.38430152 97.76446957 104.38430152 112.8125 86 C116.41159518 79.82480827 121.43759735 75.80347853 128 73 C131.07476271 72.48573511 133.92671139 72.45964156 137 73 C139.625 75.0625 139.625 75.0625 141 78 C141.274547 82.85033041 139.88993062 85.51116669 136.875 89.125 C132.03517968 94.24251493 126.32200074 99.32934137 119.078125 100.2421875 C111.95918461 101.27721075 108.01118417 104.90511939 102.70361328 109.54736328 C99.39124262 112.371755 95.93952728 115.02072995 92.5 117.6875 C91.35494995 118.57695312 91.35494995 118.57695312 90.18676758 119.484375 C80.20832651 127.20188993 70.0766861 134.7336385 59.76171875 141.99609375 C58.7876709 142.68300293 58.7876709 142.68300293 57.79394531 143.38378906 C56.59515797 144.22565182 55.39290524 145.06261128 54.18652344 145.89355469 C51.4750408 147.79242174 49.86700477 149.19949285 48 152 C46.97083339 158.03707014 47.01172861 164.34010079 46.81103516 170.45629883 C46.26892551 186.88404939 45.20593628 203.2388969 43.9375 219.625 C43.74890855 222.10803951 43.56075576 224.59111237 43.37304688 227.07421875 C42.92038916 233.0498708 42.46243916 239.02509735 42 245 C44.41979691 244.07000343 46.83562379 243.13138275 49.25 242.1875 C49.93191406 241.92646484 50.61382812 241.66542969 51.31640625 241.39648438 C54.98006286 239.95592037 57.89187619 238.46429816 61 236 C61.66 236 62.32 236 63 236 C63.25652344 235.35160156 63.51304687 234.70320312 63.77734375 234.03515625 C64.70945199 231.72126455 65.66202768 229.42038487 66.62890625 227.12109375 C70.8264745 217.02743693 74.58879266 206.8023843 78.0625 196.4375 C78.46863525 195.273396 78.87477051 194.10929199 79.29321289 192.90991211 C81.44549082 186.33170395 82.38485634 181.192478 81.23510742 174.32446289 C80.77502875 169.77575151 82.8452884 166.6795805 85.375 163 C87 162 87 162 89.5625 162.1875 C92 163 92 163 94 165 C94.99049864 170.55139937 94.00400752 174.99322868 91.16796875 179.78515625 C87.23242572 187.24820941 85.10788604 195.74414475 82.5625 203.75 C79.76642237 212.52015918 76.93530057 221.27532799 74 230 C85.71782994 223.93051959 98.0884979 217.51698981 106.2890625 206.91015625 C108.8223239 204.08192606 111.4033465 202.23779946 115.203125 201.671875 C120.88888889 201.88888889 120.88888889 201.88888889 122 203 C121.83960286 207.17032576 121.47628957 209.41484424 118.8125 212.6875 C111.30426092 218.86094102 111.30426092 218.86094102 106.65454102 219.35668945 C102.45248836 220.09637873 100.67184195 221.35678302 97.40234375 224.04296875 C91.62463855 228.58663587 85.64034923 232.48608603 79.32440186 236.25961304 C77.51237514 237.34245389 75.70638031 238.43488346 73.90087891 239.52856445 C68.18435969 242.97846599 62.43779795 246.34461511 56.58203125 249.5546875 C55.61257568 250.08924561 54.64312012 250.62380371 53.64428711 251.17456055 C51.84594607 252.15704485 50.03849713 253.12310324 48.22094727 254.06958008 C47.02489868 254.72156372 47.02489868 254.72156372 45.8046875 255.38671875 C45.11358887 255.74983154 44.42249023 256.11294434 43.71044922 256.48706055 C39.48433016 260.22517927 39.38490615 266.94432034 38.5625 272.2578125 C38.43689697 273.04211639 38.31129395 273.82642029 38.18188477 274.63449097 C37.78317644 277.13059961 37.3914054 279.62773688 37 282.125 C36.60807521 284.59364232 36.21474387 287.06205768 35.82128906 289.53045654 C35.56652816 291.13344876 35.31325969 292.73667893 35.06152344 294.34014893 C34.36074594 298.79650985 33.60550065 303.23860462 32.8125 307.6796875 C31.3282985 316.90974062 31.94730491 322.15404807 37.0625 330.125 C37.59472168 330.98101807 38.12694336 331.83703613 38.67529297 332.71899414 C54.33253684 357.63849183 71.79556857 380.62492555 92 402 C92.74765625 402.80179688 93.4953125 403.60359375 94.265625 404.4296875 C99.74337632 410.13060647 105.79563607 414.91957613 112.05859375 419.71484375 C115 422 115 422 117 424 C116.8125 426.5 116.8125 426.5 116 429 C112.71362292 431.19091805 111.81238423 431.59988987 108 431 C105.34375 429.05078125 105.34375 429.05078125 102.5 426.3125 C101.98590576 425.82136719 101.47181152 425.33023437 100.94213867 424.82421875 C99.28190234 423.22886867 97.64098326 421.61512592 96 420 C94.8818301 418.92024176 93.76334042 417.84081459 92.64453125 416.76171875 C86.74206998 411.01451731 81.28055295 405.12411952 76.16015625 398.65625 C73.9589005 395.94946173 71.63682379 393.41890209 69.25 390.875 C54.91021305 375.24773992 42.4047068 357.28208154 31.7421875 338.9765625 C30.55486511 336.94799824 29.30381776 334.95572663 28 333 C27.79020508 333.93960571 27.79020508 333.93960571 27.57617188 334.89819336 C9.24419744 416.13212347 9.24419744 416.13212347 -10 429 C-12.73828125 428.71484375 -12.73828125 428.71484375 -15 428 C-17.48715532 420.53853405 -10.97194301 410.71896118 -7.6875 404 C-3.32145596 395.02968265 0.105263 385.91945751 3.20019531 376.44238281 C3.96771584 374.09858691 4.75908119 371.76407105 5.5546875 369.4296875 C13.52948665 345.62071814 17.87619052 320.71985838 22 296 C22.21962402 294.74453369 22.43924805 293.48906738 22.66552734 292.19555664 C23.34699145 289.01660366 23.34699145 289.01660366 21.55078125 286.8828125 C20.81214844 286.30273438 20.07351563 285.72265625 19.3125 285.125 C18.47847656 284.4546875 17.64445312 283.784375 16.78515625 283.09375 C15.86605469 282.4028125 14.94695312 281.711875 14 281 C12.60587891 279.93265625 12.60587891 279.93265625 11.18359375 278.84375 C9.19609043 277.34055175 7.19693291 275.85266126 5.1875 274.37890625 C2.95570401 272.71326439 0.78270214 271.03264684 -1.375 269.27734375 C-7.10207295 264.64880576 -11.60393413 261.29755542 -19 260 C-24.44121879 257.06174186 -29.2050157 252.58996861 -32 247 C-32.57189542 240.70915033 -32.57189542 240.70915033 -30.4375 238.0625 C-26.89725714 236.51931722 -24.85570261 236.43112584 -21 237 C-14.50637292 240.08843239 -9.51547115 244.7297826 -6 251 C-5.71511719 251.98484375 -5.43023437 252.9696875 -5.13671875 253.984375 C-3.76996112 257.61027498 -2.29365568 258.8907166 0.75 261.25 C1.72582031 262.00925781 2.70164062 262.76851562 3.70703125 263.55078125 C4.80217648 264.37055276 5.89996932 265.1867959 7 266 C7.60118652 266.44520996 8.20237305 266.89041992 8.82177734 267.34912109 C16.59306878 273.18429134 16.59306878 273.18429134 25 278 C26.80575282 265.15071984 27.86960577 252.26720922 28.85986328 239.33300781 C29.12717549 235.84662645 29.401074 232.36080571 29.67578125 228.875 C29.84934266 226.64325902 30.02253333 224.41148917 30.1953125 222.1796875 C30.27653351 221.14528534 30.35775452 220.11088318 30.44143677 219.0451355 C31.76921982 210.26340586 31.76921982 210.26340586 28.98046875 202.54296875 C28.05878906 201.76566406 27.13710938 200.98835937 26.1875 200.1875 C25.44089111 199.54530518 25.44089111 199.54530518 24.67919922 198.89013672 C23.13578277 197.57227782 21.57297884 196.28236838 20 195 C19.10152344 194.26652344 18.20304687 193.53304687 17.27734375 192.77734375 C15.4822848 191.32067588 13.68535364 189.86631264 11.88671875 188.4140625 C7.48659699 184.7343937 3.31480889 180.82155203 -0.875 176.90625 C-3.56547606 174.39252054 -6.30455439 171.93972112 -9.0625 169.5 C-11.80511992 167.06853631 -14.42388234 164.58611948 -16.93359375 161.91796875 C-22.09702046 156.45552421 -26.36851078 152.27026216 -33.68359375 149.8984375 C-40.40920014 147.28985492 -45.0414067 141.50121848 -48.21875 135.2109375 C-49.4350609 131.76877766 -49.16172575 129.41684045 -48 126 C-45.84389912 123.52447677 -44.46582137 123.0846948 -41.25 122.5 C-33.08313942 123.75644009 -27.84179432 129.71979463 -23 136 C-20.75806294 139.06398064 -20.04084092 140.51686364 -19.71899414 144.32421875 C-18.85898375 148.7209306 -17.55395598 150.15927871 -14.37109375 153.25 C-13.9031691 153.71180664 -13.43524445 154.17361328 -12.95314026 154.64941406 C-11.46148913 156.11430724 -9.95011026 157.55679328 -8.4375 159 C-7.44854427 159.96739679 -6.4609013 160.93613751 -5.47460938 161.90625 C-0.68667999 166.59120081 4.1992956 171.14173036 9.27709961 175.51123047 C11.73790484 177.63762841 14.11414543 179.85271 16.5 182.0625 C23.38107582 189.28932953 23.38107582 189.28932953 32 193 C33.33985214 180.36227792 34.43293377 167.73301325 35.26205444 155.05184937 C36.32561272 138.8246769 37.56715343 122.62409783 39.08569336 106.43310547 C39.20565674 105.13904785 39.32562012 103.84499023 39.44921875 102.51171875 C39.55580811 101.39240967 39.66239746 100.27310059 39.7722168 99.11987305 C40.32249227 91.79371715 40.32249227 91.79371715 37.46484375 85.19140625 C36.91022461 84.29107666 36.35560547 83.39074707 35.78417969 82.46313477 C35.17477539 81.50592529 34.56537109 80.54871582 33.9375 79.5625 C33.31133789 78.55695068 32.68517578 77.55140137 32.04003906 76.51538086 C26.91764938 68.33240787 21.66698043 60.22839406 16.34106445 52.17651367 C13.51112169 47.89472912 10.73156275 43.61177726 8.1484375 39.17578125 C2.83944679 29.84785995 2.83944679 29.84785995 -5.953125 24.0078125 C-10.04348078 21.9938587 -12.98547719 18.02904562 -15 14 C-15.55512815 9.36786507 -15.6364242 6.01827873 -13.125 2 C-8.99882197 -1.88346168 -5.28191423 -1.38542013 0 0 Z " fill="#062442" transform="translate(338,266)"/>
<path d="M0 0 C1.83111328 -0.04350586 1.83111328 -0.04350586 3.69921875 -0.08789062 C17.43950694 -0.18341135 27.89559917 4.29396337 38.0625 13.4375 C47.01936179 22.77017417 48.77145433 33.67017245 48.58984375 45.97265625 C48.17538709 57.85803753 43.37287282 68.29859098 34.7421875 76.45703125 C24.26224981 84.67150386 12.93704568 86.66789471 0 86.625 C-0.96421875 86.64111328 -1.9284375 86.65722656 -2.921875 86.67382812 C-15.53074024 86.68227911 -26.78546302 82.94595437 -36.50390625 74.72265625 C-45.45390883 65.16508169 -49.2419757 52.07757618 -48.93359375 39.234375 C-47.62248843 26.82036513 -42.23001468 16.93074219 -32.75 8.9375 C-22.27121687 1.04252641 -12.81964796 0.09963457 0 0 Z " fill="#032341" transform="translate(712.625,517.6875)"/>
<path d="M0 0 C3.54102808 2.14467496 5.34939256 4.7759697 7.3125 8.375 C7.951875 7.4675 8.59125 6.56 9.25 5.625 C13.39464426 0.75302262 18.20583163 -1.2523519 24.50390625 -2.0078125 C31.17173034 -2.23960245 37.00187864 -1.96785437 42.3125 2.375 C47.27797833 7.69594881 50.57714712 13.10719449 50.53955078 20.5324707 C50.53939972 21.53313065 50.53924866 22.53379059 50.53909302 23.56477356 C50.52877045 24.6326561 50.51844788 25.70053864 50.5078125 26.80078125 C50.5049826 27.90350876 50.50215271 29.00623627 50.49923706 30.14237976 C50.48805981 33.65753114 50.46295937 37.17242589 50.4375 40.6875 C50.42746704 43.07356402 50.41834174 45.45963205 50.41015625 47.84570312 C50.38812849 53.68888935 50.35467514 59.53192634 50.3125 65.375 C52.33072917 65.32820638 54.34895833 65.28141276 56.3671875 65.23461914 C58.3125 65.375 58.3125 65.375 60.3125 66.8125 C61.79455178 70.61025768 62.33296103 74.39385928 61.3125 78.375 C59.54296875 81.13671875 59.54296875 81.13671875 56.3125 83.375 C52.2337125 84.01261837 48.24180702 83.89070407 44.125 83.75 C42.46694336 83.72873047 42.46694336 83.72873047 40.77539062 83.70703125 C32.67946429 83.55848214 32.67946429 83.55848214 30.3125 82.375 C29.2705606 79.2491818 29.1757847 77.03803897 29.15478516 73.7578125 C29.14452301 72.60651855 29.13426086 71.45522461 29.12368774 70.26904297 C29.11638641 69.02525879 29.10908508 67.78147461 29.1015625 66.5 C29.07350446 63.88020197 29.04484008 61.26041038 29.015625 58.640625 C28.97312295 54.49938297 28.93633764 50.35818187 28.91113281 46.21679688 C28.88620248 42.22764817 28.83776559 38.238931 28.7890625 34.25 C28.78580963 33.00621582 28.78255676 31.76243164 28.77920532 30.48095703 C28.76263885 29.32966309 28.74607239 28.17836914 28.72900391 26.9921875 C28.72091705 25.97753418 28.7128302 24.96288086 28.70449829 23.91748047 C28.505739 21.35213566 28.505739 21.35213566 26.99740601 19.54736328 C24.14909162 17.56549653 21.66616752 18.02806888 18.3125 18.375 C15.43944028 19.77960697 13.56739001 21.12010999 11.3125 23.375 C10.98337115 25.27111525 10.98337115 25.27111525 10.99365234 27.45751953 C10.97378265 28.29824005 10.95391296 29.13896057 10.93344116 30.00515747 C10.92188995 30.91353363 10.91033875 31.82190979 10.8984375 32.7578125 C10.87907135 33.68721649 10.8597052 34.61662048 10.8397522 35.57418823 C10.77986315 38.5493648 10.7335339 41.52457988 10.6875 44.5 C10.64932879 46.51434 10.61027757 48.52866354 10.5703125 50.54296875 C10.474154 55.48684575 10.3901576 60.43079917 10.3125 65.375 C11.59189453 65.35034668 12.87128906 65.32569336 14.18945312 65.30029297 C18.06640625 65.22558594 18.06640625 65.22558594 20.28125 66.5703125 C21.61607019 68.90624784 21.77982854 70.56277243 21.8125 73.25 C21.8434375 74.09304688 21.874375 74.93609375 21.90625 75.8046875 C20.98351411 79.7991626 19.70814531 81.04820188 16.3125 83.375 C12.2554043 84.05977709 8.29116492 83.98184098 4.1875 83.875 C3.09050781 83.87757813 1.99351563 83.88015625 0.86328125 83.8828125 C-7.11879001 83.78487298 -7.11879001 83.78487298 -9.31945801 82.19883728 C-11.22219719 79.66215589 -11.0529247 77.92645506 -11.04052734 74.77368164 C-11.04418304 73.62561539 -11.04783875 72.47754913 -11.05160522 71.29469299 C-11.04230988 70.05404587 -11.03301453 68.81339874 -11.0234375 67.53515625 C-11.03594827 64.91991939 -11.04898531 62.30468499 -11.0625 59.68945312 C-11.06955774 55.55699725 -11.06308868 51.42466558 -11.04785156 47.29223633 C-11.03483933 43.31048827 -11.06092677 39.32934835 -11.0859375 35.34765625 C-11.07259369 34.10903336 -11.05924988 32.87041046 -11.04550171 31.59425354 C-11.05546173 30.44303513 -11.06542175 29.29181671 -11.07568359 28.10571289 C-11.07329681 27.09328018 -11.07091003 26.08084747 -11.06845093 25.03773499 C-11.91877057 21.38022872 -13.57436994 20.34392916 -16.6875 18.375 C-20.46821436 17.73147415 -22.33663677 18.21497626 -25.82861328 19.80761719 C-28.891229 22.55795595 -29.11557861 22.86460399 -29.46044922 26.68457031 C-29.50132101 28.44031141 -29.50997051 30.19699827 -29.4921875 31.953125 C-29.50589386 32.8796991 -29.51960022 33.80627319 -29.53372192 34.76092529 C-29.57106898 37.71610865 -29.56730394 40.66961384 -29.5625 43.625 C-29.58062349 45.63023466 -29.60142508 47.63544703 -29.625 49.640625 C-29.67689517 54.55236515 -29.6919275 59.46300071 -29.6875 64.375 C-28.4190625 64.34535156 -27.150625 64.31570313 -25.84375 64.28515625 C-22.85228038 64.21523369 -21.8646295 64.27315054 -19.1875 65.8125 C-16.95250741 69.63061235 -17.04095747 73.05701956 -17.6875 77.375 C-19 80.375 -19 80.375 -20.6875 82.375 C-26.00724085 84.14824695 -31.73968201 83.67994102 -37.31103516 83.72509766 C-38.80858903 83.74166136 -40.30606371 83.76895771 -41.80322266 83.80712891 C-43.97079128 83.86204638 -46.13651594 83.88378833 -48.3046875 83.8984375 C-50.24770752 83.9281665 -50.24770752 83.9281665 -52.22998047 83.95849609 C-56.5584355 83.22801964 -58.0031548 81.77352878 -60.6875 78.375 C-61.28125 75.8046875 -61.28125 75.8046875 -61.1875 73.25 C-61.1771875 72.40179687 -61.166875 71.55359375 -61.15625 70.6796875 C-60.6875 68.375 -60.6875 68.375 -59.59375 66.5703125 C-57.6875 65.375 -57.6875 65.375 -50.6875 65.375 C-50.6875 50.195 -50.6875 35.015 -50.6875 19.375 C-52.6675 19.375 -54.6475 19.375 -56.6875 19.375 C-59.38740662 17.57506226 -61.2293865 16.291227 -62.6875 13.375 C-62.92578125 11.3515625 -62.92578125 11.3515625 -63 9 C-63.03738281 8.22914063 -63.07476563 7.45828125 -63.11328125 6.6640625 C-62.51764953 3.46185896 -61.19218867 2.40951628 -58.6875 0.375 C-56.06201172 -0.11083984 -56.06201172 -0.11083984 -53.1171875 -0.0859375 C-51.52583984 -0.08013672 -51.52583984 -0.08013672 -49.90234375 -0.07421875 C-48.24912109 -0.03748047 -48.24912109 -0.03748047 -46.5625 0 C-44.89767578 0.00193359 -44.89767578 0.00193359 -43.19921875 0.00390625 C-34.96836515 0.09413485 -34.96836515 0.09413485 -32.6875 2.375 C-32.6875 3.695 -32.6875 5.015 -32.6875 6.375 C-32.16800781 5.96507812 -31.64851563 5.55515625 -31.11328125 5.1328125 C-30.41589844 4.59398437 -29.71851563 4.05515625 -29 3.5 C-28.31550781 2.96632813 -27.63101562 2.43265625 -26.92578125 1.8828125 C-19.57729761 -3.06747491 -8.11927466 -3.67665268 0 0 Z " fill="#042442" transform="translate(1063.6875,519.625)"/>
<path d="M0 0 C0.33379443 6.77958581 -0.92439163 13.18428392 -2.125 19.83984375 C-2.3477359 21.09894562 -2.5704718 22.35804749 -2.79995728 23.65530396 C-3.40119413 27.04969856 -4.01061057 30.44257639 -4.62195587 33.83516312 C-5.00043945 35.9399438 -5.37625058 38.04518413 -5.75115967 40.15060425 C-9.12245347 59.07790553 -12.62933144 77.97181144 -16.625 96.77905273 C-18.38700802 105.17013741 -19.61773637 113.41398591 -20 122 C-16.77557055 123.05422135 -16.77557055 123.05422135 -13.640625 121.78515625 C-12.85171875 121.21667969 -12.0628125 120.64820313 -11.25 120.0625 C-10.05117187 119.21365234 -10.05117187 119.21365234 -8.828125 118.34765625 C-8.22484375 117.90292969 -7.6215625 117.45820313 -7 117 C-6.01 117.99 -5.02 118.98 -4 120 C-5.95049402 126.02785653 -9.86450021 128.60549588 -15 132 C-20.02037048 134.45677704 -25.49492732 134.77071018 -31 134 C-33.93423195 132.20353146 -35.47205355 131.0558929 -37 128 C-37.0716735 125.44842345 -37.09308442 122.92527029 -37.0625 120.375 C-37.05798828 119.66859375 -37.05347656 118.9621875 -37.04882812 118.234375 C-37.03703875 116.48954725 -37.01910324 114.744763 -37 113 C-37.47566406 113.81791016 -37.47566406 113.81791016 -37.9609375 114.65234375 C-43.03751932 122.85621215 -50.31419493 131.57854873 -60 134 C-67.90233182 134.73031029 -74.70422663 135.22415237 -81 130 C-89.92577009 120.09047568 -88.76308599 107.64636277 -88.24707031 95.07080078 C-87.69889795 88.25764664 -85.66965276 82.24639748 -83 76 C-82.61585937 75.06285156 -82.23171875 74.12570312 -81.8359375 73.16015625 C-75.86488618 59.97916201 -65.24506861 49.7090813 -52 44 C-43.646632 41.35742711 -33.860896 42.29074604 -26 46 C-25.01 46.66 -24.02 47.32 -23 48 C-23.04125 47.07058594 -23.0825 46.14117187 -23.125 45.18359375 C-23.125 39.07926483 -21.61767236 33.14042814 -20.421875 27.18164062 C-19.35857558 21.67147111 -18.78796194 16.61238237 -19 11 C-22.96 10.67 -26.92 10.34 -31 10 C-31.04241723 7.66705225 -31.04092937 5.33297433 -31 3 C-28.30975051 0.30975051 -21.39048727 0.81137361 -17.75 0.375 C-16.60402344 0.22804688 -15.45804688 0.08109375 -14.27734375 -0.0703125 C-13.17003906 -0.204375 -12.06273437 -0.3384375 -10.921875 -0.4765625 C-9.90706055 -0.60111816 -8.89224609 -0.72567383 -7.84667969 -0.85400391 C-5.02009119 -0.99896959 -2.7351191 -0.68409329 0 0 Z " fill="#052342" transform="translate(1157,319)"/>
<path d="M0 0 C0.99 -1.98 1.98 -3.96 3 -6 C6.3 -6 9.6 -6 13 -6 C10.84148186 5.74731987 8.61206438 17.46379782 5.95703125 29.109375 C5.78050018 29.88665955 5.60396912 30.66394409 5.42208862 31.46478271 C4.5511373 35.29079514 3.66817254 39.11347695 2.76757812 42.93261719 C0.38021462 53.23931059 -1.03786466 63.46682407 -2 74 C-0.08960938 73.57267578 -0.08960938 73.57267578 1.859375 73.13671875 C2.93396973 72.89634888 2.93396973 72.89634888 4.03027344 72.65112305 C6.70831527 71.76585562 8.07141906 69.99745883 10 68 C12.125 68 12.125 68 14 69 C14.710001 70.31077107 15.3819029 71.64346832 16 73 C9.04458318 79.7745431 2.77604141 85.06616513 -7.25 85.4375 C-11.21529721 85.26482765 -13.92253843 84.68036976 -17 82 C-18.2062252 78.38132441 -18.10816918 75.07493749 -18.0625 71.3125 C-18.05798828 70.61060547 -18.05347656 69.90871094 -18.04882812 69.18554688 C-18.03706927 67.45699462 -18.01913454 65.72848635 -18 64 C-18.72703125 65.08667969 -18.72703125 65.08667969 -19.46875 66.1953125 C-25.94206117 75.53181899 -32.72204016 82.1606824 -44 85 C-51.20648637 85.927911 -57.44737642 85.96784025 -63.41796875 81.48046875 C-68.9797335 76.27575557 -70.68799694 70.29141056 -71.22265625 62.9375 C-71.77535955 41.79059096 -65.12756664 22.70828676 -50.625 7.125 C-35.18578508 -7.24204722 -18.61288401 -9.56495428 0 0 Z " fill="#052341" transform="translate(627,368)"/>
<path d="M0 0 C0.45375 -0.825 0.9075 -1.65 1.375 -2.5 C4 -5 4 -5 6.44384766 -5.24414062 C7.34151855 -5.21513672 8.23918945 -5.18613281 9.1640625 -5.15625 C10.06850098 -5.13369141 10.97293945 -5.11113281 11.90478516 -5.08789062 C12.59620605 -5.05888672 13.28762695 -5.02988281 14 -5 C11.34588126 8.38637739 8.64714454 21.76253289 5.875 35.125 C5.62073242 36.35597412 5.36646484 37.58694824 5.10449219 38.85522461 C4.07072483 43.85775087 3.03567154 48.85934088 1.953125 53.8515625 C0.56436348 60.38922289 -0.35198669 66.31225288 0 73 C2.93727294 73.34967535 5.13527757 73.57851148 7.6640625 71.88671875 C9.12525122 70.60907837 10.56378463 69.30565034 12 68 C12.66 68 13.32 68 14 68 C14 68.66 14 69.32 14 70 C14.66 70 15.32 70 16 70 C15.92095422 72.68755653 15.45570449 74.46811804 13.69140625 76.52734375 C7.69540509 81.9694418 1.39946281 85.15721758 -6.75 85.5625 C-10.36000267 85.38529089 -11.95021051 85.02733541 -15.1875 83.25 C-17.95812477 78.28198318 -17.35621424 73.55694221 -17 68 C-17 67.01 -17 66.02 -17 65 C-17.72703125 66.08667969 -17.72703125 66.08667969 -18.46875 67.1953125 C-24.28348171 75.58194478 -30.59765277 82.85149455 -41 85 C-47.93212228 85.66637223 -53.99672988 85.72202747 -60 82 C-64.4243553 77.84254316 -67.60563471 73.56254359 -68.29052734 67.37548828 C-68.65504225 44.85787403 -66.23131825 25.09885422 -50 8 C-35.6631266 -5.46732931 -17.63761941 -11.75841294 0 0 Z " fill="#052341" transform="translate(938,368)"/>
<path d="M0 0 C9.50128983 -0.17119441 19.28798105 -0.23839825 27.52734375 5.1171875 C30.15847293 8.46589736 29.88875773 11.99706814 29.52734375 16.1171875 C27.32734375 20.7171875 27.32734375 20.7171875 24.52734375 22.1171875 C22.94641541 22.21386297 21.36121796 22.24698712 19.77734375 22.2421875 C18.936875 22.24476563 18.09640625 22.24734375 17.23046875 22.25 C14.52734375 22.1171875 14.52734375 22.1171875 11.703125 21.625 C7.94773939 21.02450784 4.25782297 20.89551974 0.46484375 20.8671875 C-0.22931641 20.8465625 -0.92347656 20.8259375 -1.63867188 20.8046875 C-6.12103603 20.77063345 -8.92611696 21.342773 -12.47265625 24.1171875 C-15.42534012 28.59712165 -15.59123814 31.84965497 -15.47265625 37.1171875 C-14.43334961 37.10147705 -13.39404297 37.0857666 -12.32324219 37.06958008 C-8.46183035 37.01521908 -4.60045225 36.98081517 -0.73876953 36.95239258 C0.93153576 36.93731996 2.60180156 36.9168583 4.27197266 36.89086914 C6.67490388 36.85441777 9.07731119 36.83744619 11.48046875 36.82421875 C12.22540588 36.80873489 12.97034302 36.79325104 13.737854 36.77729797 C16.94746537 36.77625964 19.16287462 36.91191594 21.98779297 38.50292969 C23.92674753 40.53597244 24.16811259 41.77670599 24.40234375 44.5546875 C24.52222656 45.69744141 24.52222656 45.69744141 24.64453125 46.86328125 C24.50665885 49.51502707 24.02520203 50.92622088 22.52734375 53.1171875 C18.90011513 55.6124954 15.15294868 55.37511263 10.91796875 55.3125 C10.27327637 55.31048584 9.62858398 55.30847168 8.96435547 55.30639648 C6.56861196 55.29597531 4.1729703 55.26805276 1.77734375 55.2421875 C-6.26640625 55.1803125 -6.26640625 55.1803125 -14.47265625 55.1171875 C-14.47265625 70.6271875 -14.47265625 86.1371875 -14.47265625 102.1171875 C-4.07612049 101.9590076 -4.07612049 101.9590076 6.31958008 101.75683594 C7.6114624 101.7468457 8.90334473 101.73685547 10.234375 101.7265625 C10.9099646 101.70609863 11.5855542 101.68563477 12.28161621 101.66455078 C15.43482673 101.66220333 17.09291927 101.71739623 19.4597168 103.89550781 C21.07538555 107.25763579 21.07275865 110.50022552 20.52734375 114.1171875 C18.38845486 118.68663194 18.38845486 118.68663194 15.52734375 120.1171875 C13.36360486 120.22958725 11.19636971 120.27655213 9.02978516 120.29418945 C8.36292191 120.30076065 7.69605865 120.30733185 7.00898743 120.31410217 C4.79895926 120.33383641 2.58899901 120.34549726 0.37890625 120.35546875 C-0.75272383 120.36158204 -0.75272383 120.36158204 -1.90721512 120.36781883 C-5.89940365 120.38867901 -9.89155781 120.40298154 -13.88378906 120.41235352 C-18.00887119 120.4234247 -22.13341488 120.45783223 -26.2583065 120.49752522 C-29.42903656 120.52365746 -32.59963757 120.53204223 -35.77046585 120.53563499 C-37.29113023 120.54050893 -38.81178854 120.55214595 -40.33234787 120.57067299 C-42.46077038 120.59499666 -44.58778994 120.59411305 -46.71630859 120.5871582 C-47.92717133 120.59302444 -49.13803406 120.59889069 -50.3855896 120.60493469 C-54.07394754 120.0221853 -55.24428964 119.05785785 -57.47265625 116.1171875 C-57.96875 113.6796875 -57.96875 113.6796875 -57.91015625 111.1171875 C-57.90822266 109.84875 -57.90822266 109.84875 -57.90625 108.5546875 C-57.47265625 106.1171875 -57.47265625 106.1171875 -54.47265625 102.1171875 C-48.20265625 102.1171875 -41.93265625 102.1171875 -35.47265625 102.1171875 C-35.47265625 86.6071875 -35.47265625 71.0971875 -35.47265625 55.1171875 C-41.74265625 55.1171875 -48.01265625 55.1171875 -54.47265625 55.1171875 C-58.47265625 51.1171875 -58.47265625 51.1171875 -58.96875 48.42578125 C-58.94941406 47.47832031 -58.93007813 46.53085937 -58.91015625 45.5546875 C-58.90886719 44.60464844 -58.90757812 43.65460937 -58.90625 42.67578125 C-58.39618132 39.66591651 -57.86515868 38.94473878 -55.47265625 37.1171875 C-53.2043457 36.77661133 -53.2043457 36.77661133 -50.5859375 36.82421875 C-49.17924805 36.8387207 -49.17924805 36.8387207 -47.74414062 36.85351562 C-46.76767578 36.87865234 -45.79121094 36.90378906 -44.78515625 36.9296875 C-43.79708984 36.94322266 -42.80902344 36.95675781 -41.79101562 36.97070312 C-39.35101394 37.00606547 -36.91210906 37.05541717 -34.47265625 37.1171875 C-34.80265625 36.4571875 -35.13265625 35.7971875 -35.47265625 35.1171875 C-35.65044248 32.51742818 -35.75018647 29.96893943 -35.78515625 27.3671875 C-35.81416016 26.66335938 -35.84316406 25.95953125 -35.87304688 25.234375 C-35.94731624 19.08715695 -33.83207711 15.78226061 -29.75390625 11.17578125 C-21.17728996 3.37030809 -11.38806909 0.38429929 0 0 Z " fill="#022241" transform="translate(613.47265625,482.8828125)"/>
<path d="M0 0 C1.24136719 0.00386719 2.48273437 0.00773438 3.76171875 0.01171875 C5.05464844 0.03621094 6.34757813 0.06070313 7.6796875 0.0859375 C9.63068359 0.08787109 9.63068359 0.08787109 11.62109375 0.08984375 C21.27399554 0.18024554 21.27399554 0.18024554 23.5546875 2.4609375 C23.81970215 4.67988586 23.81970215 4.67988586 23.84179688 7.47387695 C23.85521118 8.51868729 23.86862549 9.56349762 23.88244629 10.63996887 C23.88772339 11.77327133 23.89300049 12.90657379 23.8984375 14.07421875 C23.9130603 15.23592087 23.92768311 16.39762299 23.94274902 17.5945282 C23.98938735 21.32079617 24.02349999 25.04701004 24.0546875 28.7734375 C24.09580577 33.66556283 24.14951289 38.55731102 24.2109375 43.44921875 C24.2162146 44.57644852 24.2214917 45.70367828 24.22692871 46.86506653 C24.24034302 47.91933334 24.25375732 48.97360016 24.26757812 50.05981445 C24.27486938 50.98421829 24.28216064 51.90862213 24.28967285 52.86103821 C24.73410456 57.22109038 25.78985519 59.77258842 29.0546875 62.7109375 C32.96104101 65.44538495 35.84128267 66.08248539 40.5546875 65.4609375 C46.74890489 63.68564778 51.3351506 61.47163757 55.5546875 56.4609375 C56.5446875 55.4709375 56.5446875 55.4709375 57.5546875 54.4609375 C57.80025121 51.74093393 57.92825236 49.11519493 57.96875 46.390625 C57.98811615 45.59439728 58.0074823 44.79816956 58.0274353 43.97781372 C58.08729224 41.43063116 58.13364029 38.88340355 58.1796875 36.3359375 C58.21786171 34.6106572 58.25691311 32.88539607 58.296875 31.16015625 C58.39299859 26.92723874 58.47700658 22.69423201 58.5546875 18.4609375 C57.30316895 18.49574219 57.30316895 18.49574219 56.02636719 18.53125 C54.93743164 18.54929687 53.84849609 18.56734375 52.7265625 18.5859375 C51.6447168 18.60914063 50.56287109 18.63234375 49.44824219 18.65625 C46.5546875 18.4609375 46.5546875 18.4609375 43.8046875 16.4609375 C42.24916686 12.72768798 41.5318406 9.43199016 42.5546875 5.4609375 C44.15771484 2.86694336 44.15771484 2.86694336 46.5546875 0.4609375 C49.73095703 -0.13842773 49.73095703 -0.13842773 53.4375 -0.09765625 C54.42071732 -0.09415916 54.42071732 -0.09415916 55.42379761 -0.09059143 C56.80398647 -0.08087787 58.18413688 -0.05914485 59.56396484 -0.02612305 C61.67995941 0.02344387 63.79363258 0.03536698 65.91015625 0.04101562 C76.24314718 0.14939718 76.24314718 0.14939718 78.5546875 2.4609375 C78.79519653 5.09317017 78.79519653 5.09317017 78.78173828 8.47119141 C78.78158722 9.73234772 78.78143616 10.99350403 78.78128052 12.2928772 C78.77106648 13.67441972 78.76063447 15.05596065 78.75 16.4375 C78.74627038 17.84711507 78.74342317 19.25673273 78.74142456 20.66635132 C78.73378405 24.37853132 78.71413211 28.09055511 78.6920166 31.80267334 C78.67156709 35.58978156 78.66242477 39.376915 78.65234375 43.1640625 C78.6308865 50.59642543 78.59674566 58.02865958 78.5546875 65.4609375 C79.32554687 65.43773437 80.09640625 65.41453125 80.890625 65.390625 C82.39496094 65.36355469 82.39496094 65.36355469 83.9296875 65.3359375 C84.92742187 65.31273437 85.92515625 65.28953125 86.953125 65.265625 C89.5546875 65.4609375 89.5546875 65.4609375 91.5546875 67.4609375 C91.92578125 70.140625 91.92578125 70.140625 91.9921875 73.3359375 C92.05212891 74.90988281 92.05212891 74.90988281 92.11328125 76.515625 C91.5546875 79.4609375 91.5546875 79.4609375 89.81640625 81.81640625 C84.66452001 84.4139441 79.61174455 83.99829224 73.9296875 83.8984375 C72.785 83.90552734 71.6403125 83.91261719 70.4609375 83.91992188 C62.11465228 83.85609734 62.11465228 83.85609734 59.71728516 82.16430664 C57.83907118 79.41245891 58.37229481 76.6832084 58.5546875 73.4609375 C57.97460938 73.93144531 57.39453125 74.40195312 56.796875 74.88671875 C45.708968 83.72410998 36.44581769 85.41028107 22.5546875 84.4609375 C15.42804387 82.84074816 10.67153772 77.21883631 6.5546875 71.4609375 C2.7391709 64.21145596 2.40543426 56.56239908 2.45703125 48.5625 C2.4584462 47.72753998 2.45986115 46.89257996 2.46131897 46.03231812 C2.46688576 43.38348708 2.47943203 40.7347427 2.4921875 38.0859375 C2.4972068 36.28255331 2.50176895 34.47916779 2.50585938 32.67578125 C2.5168443 28.27080029 2.53408587 23.86588356 2.5546875 19.4609375 C1.2965625 19.49960937 0.0384375 19.53828125 -1.2578125 19.578125 C-4.66084024 19.68272626 -5.38065138 19.5013507 -8.4453125 17.5859375 C-10.87952284 13.78248384 -11.00490154 11.28764886 -11.01171875 6.86328125 C-9.60032318 0.87701726 -5.59248244 -0.04033611 0 0 Z " fill="#032241" transform="translate(895.4453125,519.5390625)"/>
<path d="M0 0 C3.6413032 1.85281859 6.16277235 3.55453436 8 7.3125 C8.74123429 11.19858269 8.9246748 14.67128754 6.94140625 18.19140625 C4.59559039 21.08017059 2.6767023 23.09063013 -1.06640625 23.5859375 C-6.04389343 23.78846437 -9.28591864 23.47783416 -13.5625 20.8125 C-18.11431999 18.00768134 -21.72499019 17.15800497 -27 18.3125 C-35.15653332 21.7035862 -40.51899301 28.39051155 -44 36.3125 C-44.49586098 39.58912529 -44.49586098 39.58912529 -44.51171875 43.0234375 C-44.54716797 44.26738281 -44.58261719 45.51132812 -44.61914062 46.79296875 C-44.64169922 48.07816406 -44.66425781 49.36335937 -44.6875 50.6875 C-44.72166016 51.99589844 -44.75582031 53.30429687 -44.79101562 54.65234375 C-44.87327754 57.87231025 -44.94250263 61.09201179 -45 64.3125 C-44.17798096 64.28631592 -43.35596191 64.26013184 -42.5090332 64.2331543 C-38.77705062 64.1290856 -35.0453734 64.06413872 -31.3125 64 C-30.01892578 63.95810547 -28.72535156 63.91621094 -27.39257812 63.87304688 C-25.52182617 63.84887695 -25.52182617 63.84887695 -23.61328125 63.82421875 C-21.89298706 63.78494263 -21.89298706 63.78494263 -20.13793945 63.74487305 C-16.01755618 64.49021585 -14.55751292 66.06630119 -12 69.3125 C-11.43615874 73.25938882 -11.62665221 75.51246903 -13.3125 79.125 C-15 81.3125 -15 81.3125 -18 83.3125 C-20.72557068 83.57992554 -20.72557068 83.57992554 -24.06030273 83.60302734 C-25.30847275 83.61578705 -26.55664276 83.62854675 -27.84263611 83.64169312 C-29.20628708 83.64475044 -30.56994013 83.64697837 -31.93359375 83.6484375 C-33.33220049 83.65486466 -34.73080588 83.66159296 -36.12940979 83.66860962 C-39.06067014 83.68058342 -41.99181262 83.68429031 -44.9230957 83.68310547 C-48.67716594 83.68290217 -52.43048002 83.71021359 -56.18437099 83.74464989 C-59.07289596 83.76689871 -61.96123829 83.77094367 -64.84984016 83.76988602 C-66.23373078 83.77224468 -67.61762623 83.78108327 -69.00143242 83.79655075 C-70.93762324 83.81616751 -72.87403595 83.80786125 -74.81030273 83.79833984 C-75.91155991 83.80118988 -77.01281708 83.80403992 -78.14744568 83.80697632 C-81.66990113 83.19637592 -82.84082092 82.10966605 -85 79.3125 C-85.56640625 76.65625 -85.56640625 76.65625 -85.5625 73.8125 C-85.58441406 72.8740625 -85.60632813 71.935625 -85.62890625 70.96875 C-85 68.3125 -85 68.3125 -80 64.3125 C-75.38 64.3125 -70.76 64.3125 -66 64.3125 C-66 49.1325 -66 33.9525 -66 18.3125 C-70.95 18.3125 -75.9 18.3125 -81 18.3125 C-85 15.3125 -85 15.3125 -86 12.3125 C-86.57507454 5.06656078 -86.57507454 5.06656078 -84.40136719 2.21630859 C-81.19549474 -0.32531334 -79.21270246 -0.18977717 -75.15234375 -0.18359375 C-74.49923721 -0.18504898 -73.84613068 -0.18650421 -73.17323303 -0.18800354 C-71.79732791 -0.18634854 -70.42140351 -0.17483152 -69.0456543 -0.15405273 C-66.9404446 -0.12504058 -64.83774645 -0.13345972 -62.73242188 -0.14648438 C-61.39321694 -0.14024797 -60.05401994 -0.13185778 -58.71484375 -0.12109375 C-57.49917725 -0.11134521 -56.28351074 -0.10159668 -55.03100586 -0.09155273 C-52 0.3125 -52 0.3125 -50.11230469 1.67089844 C-48.49290376 4.06090104 -48.48047318 6.14445587 -48.3125 9 C-48.21388672 10.49080078 -48.21388672 10.49080078 -48.11328125 12.01171875 C-48.05720703 13.15060547 -48.05720703 13.15060547 -48 14.3125 C-47.46632813 13.64863281 -46.93265625 12.98476563 -46.3828125 12.30078125 C-34.99904805 -1.19035828 -17.03318349 -6.35222482 0 0 Z " fill="#042442" transform="translate(864,519.6875)"/>
<path d="M0 0 C0.79196777 -0.01095703 1.58393555 -0.02191406 2.39990234 -0.03320312 C8.07299446 0.10444144 12.50352142 1.47578011 17.25 4.625 C22.06506176 9.686988 22.61750826 13.95443 22.51953125 20.71484375 C21.83004572 28.15928891 18.16764827 33.70596789 12.75390625 38.7109375 C2.66680328 46.42182744 -8.55173474 49.1877964 -20.75 51.625 C-22.60520768 52.03700678 -24.45963772 52.45257071 -26.3125 52.875 C-27.446875 53.1225 -28.58125 53.37 -29.75 53.625 C-31.57318754 61.1456486 -30.66998226 66.6654568 -27.75 73.625 C-27.42 74.615 -27.09 75.605 -26.75 76.625 C-19.7559713 80.34392554 -12.50493493 80.61388125 -5.0625 78.375 C-1.36133338 77.04130375 1.28130326 75.23385471 4.25 72.625 C4.91 72.625 5.57 72.625 6.25 72.625 C6.25 71.965 6.25 71.305 6.25 70.625 C6.91 70.625 7.57 70.625 8.25 70.625 C8.4975 69.985625 8.745 69.34625 9 68.6875 C10.25 66.625 10.25 66.625 12.375 65.875 C12.99375 65.7925 13.6125 65.71 14.25 65.625 C15.24 66.945 16.23 68.265 17.25 69.625 C9.88903511 79.84987727 1.9064609 88.5699922 -10.75 91.625 C-20.08431704 92.7888533 -30.66529264 93.02545669 -38.75 87.625 C-41.23201536 85.53317046 -42.99665268 83.34816756 -44.75 80.625 C-45.1625 80.03589844 -45.575 79.44679688 -46 78.83984375 C-51.90204563 68.53175711 -49.60298491 53.26647025 -46.65942383 42.27880859 C-41.77241185 26.0435021 -30.94386482 11.80129746 -16.375 3.125 C-10.90111445 0.5498816 -5.95599031 0.05998673 0 0 Z " fill="#042240" transform="translate(747.75,361.375)"/>
<path d="M0 0 C3.78060651 3.37417214 6.65967629 6.74074601 7.203125 11.9453125 C7.37660856 20.0122982 5.74864926 26.23082856 0.6875 32.625 C-10.57646934 44.35915317 -29.30685189 48.543775 -45 50 C-45.33594131 57.46536244 -45.10644611 63.16581856 -42 70 C-41.67 70.99 -41.34 71.98 -41 73 C-39.03327085 74.1500831 -39.03327085 74.1500831 -37 75 C-36.505 75.495 -36.505 75.495 -36 76 C-24.96093976 76.84915848 -17.74891416 75.99502975 -9.125 68.9375 C-6.92637514 67.00986844 -5.66136902 65.49205352 -4 63 C-2.35 63.66 -0.7 64.32 1 65 C1 70.67172228 -1.73211882 72.52775224 -5.49609375 76.52734375 C-14.60304669 85.52063737 -24.16451808 89.36474313 -36.99975586 89.45092773 C-44.00573289 89.26955687 -49.42723518 87.19030698 -55 83 C-62.84927153 74.55400023 -63.55780392 64.66837232 -63.30859375 53.703125 C-62.46715844 36.53924135 -54.16507286 19.33824875 -41.55078125 7.75 C-36.70089385 3.70966502 -31.83361832 0.42006 -26 -2 C-25.05125 -2.4125 -24.1025 -2.825 -23.125 -3.25 C-14.89518253 -5.22515619 -7.33469295 -4.34274419 0 0 Z " fill="#062442" transform="translate(1224,364)"/>
<path d="M0 0 C3.11765675 2.14381169 4.31657797 3.71329845 5.80078125 7.23828125 C6.9297501 18.02170104 4.53928445 28.48550696 2.42578125 38.98828125 C2.10438275 40.6352051 1.78406423 42.2823401 1.46484375 43.9296875 C0.14066641 50.71799894 -1.23033399 57.48626099 -2.78198242 64.22673035 C-3.37230612 67.07275809 -3.62442609 69.90378765 -3.82421875 72.80078125 C-3.89898438 73.83332031 -3.97375 74.86585938 -4.05078125 75.9296875 C-4.09976562 76.69152344 -4.14875 77.45335937 -4.19921875 78.23828125 C0.82343482 77.05648041 3.89569635 75.78835843 7.80078125 72.23828125 C8.79078125 73.22828125 9.78078125 74.21828125 10.80078125 75.23828125 C9.43234736 80.88307106 5.27411854 83.92409341 0.80078125 87.23828125 C-4.06505457 90.069313 -7.65931951 90.66185793 -13.11328125 89.82421875 C-16.1467627 88.97211722 -18.0275019 87.47786425 -20.19921875 85.23828125 C-24.73513954 76.16643967 -19.29175028 61.4832053 -17.32421875 52.11328125 C-16.95476032 50.31269852 -16.58626374 48.51191816 -16.21875 46.7109375 C-14.75280739 39.55846152 -13.26694513 32.41642214 -11.59274292 25.30935669 C-10.67360663 20.47204114 -10.38978831 16.45242691 -13.19921875 12.23828125 C-17.42984151 11.22387542 -21.60152609 11.38562662 -25.4609375 13.4453125 C-27.47239608 14.95869563 -29.33114538 16.55198728 -31.19921875 18.23828125 C-32.01648438 18.86992187 -32.83375 19.5015625 -33.67578125 20.15234375 C-36.19256975 22.23278502 -38.19463661 24.3400438 -40.26171875 26.86328125 C-40.91269531 27.63929688 -41.56367187 28.4153125 -42.234375 29.21484375 C-46.69320915 36.07595237 -48.87386527 43.89039766 -50.69921875 51.80078125 C-50.90571045 52.67758545 -51.11220215 53.55438965 -51.32495117 54.45776367 C-53.86248136 65.6141296 -55.52712797 76.92597993 -57.19921875 88.23828125 C-62.47921875 88.23828125 -67.75921875 88.23828125 -73.19921875 88.23828125 C-72.64558404 76.10864806 -70.59203176 64.51980619 -68.32421875 52.61328125 C-67.61375684 48.8511361 -66.9082417 45.08809905 -66.20703125 41.32421875 C-65.95086029 39.95157867 -65.95086029 39.95157867 -65.68951416 38.5512085 C-63.95787977 29.14820733 -62.54761461 19.70280962 -61.19921875 10.23828125 C-65.15921875 9.90828125 -69.11921875 9.57828125 -73.19921875 9.23828125 C-73.19921875 3.23828125 -73.19921875 3.23828125 -72.19921875 1.23828125 C-69.35334791 0.58660074 -66.57796156 0.06251182 -63.69921875 -0.38671875 C-62.920625 -0.52078125 -62.14203125 -0.65484375 -61.33984375 -0.79296875 C-56.06019971 -1.64959974 -50.53768709 -2.47247 -45.19921875 -1.76171875 C-43.19921875 0.23828125 -43.19921875 0.23828125 -43.1171875 2.34765625 C-43.90997479 10.11467379 -45.43470157 17.63643051 -47.19921875 25.23828125 C-46.84730469 24.68140625 -46.49539063 24.12453125 -46.1328125 23.55078125 C-36.88969315 9.26376648 -18.58771964 -10.50296391 0 0 Z " fill="#062442" transform="translate(1045.19921875,363.76171875)"/>
<path d="M0 0 C7.53191924 7.17325642 10.12120179 16.65527852 12.625 26.5 C12.625 27.82 12.625 29.14 12.625 30.5 C13.285 30.5 13.945 30.5 14.625 30.5 C14.8621875 29.81292969 15.099375 29.12585938 15.34375 28.41796875 C16.88229327 24.91403027 18.90276538 21.90569077 21.125 18.8125 C21.56424805 18.20108154 22.00349609 17.58966309 22.45605469 16.9597168 C28.12778371 9.24636717 34.89492234 0.05160691 44.78515625 -1.93359375 C48.17340358 -1.94055114 50.56864151 -1.52700511 53.625 -0.0625 C56.17528538 3.20505314 56.21886032 5.25905664 55.9921875 9.3125 C55.32030226 13.31522056 53.42681354 15.69818646 50.625 18.5 C44.04807692 17.92307692 44.04807692 17.92307692 42.625 16.5 C39.57717113 15.90530168 37.49548618 15.97248911 34.80078125 17.60546875 C28.06647314 23.1377097 19.66454828 32.21739496 16.625 40.5 C16.94059476 43.17418353 16.94059476 43.17418353 17.85546875 46.0078125 C18.31856445 47.61269531 18.31856445 47.61269531 18.79101562 49.25 C19.12810547 50.36375 19.46519531 51.4775 19.8125 52.625 C20.13025391 53.71554687 20.44800781 54.80609375 20.77539062 55.9296875 C21.40733908 58.09046013 22.04896786 60.24842732 22.70068359 62.40332031 C23.30150532 64.41621593 23.87875576 66.43635106 24.42822266 68.46386719 C24.67491699 69.36008789 24.92161133 70.25630859 25.17578125 71.1796875 C25.38501221 71.96843262 25.59424316 72.75717773 25.80981445 73.56982422 C26.56823724 75.85987256 26.56823724 75.85987256 29.625 77.5 C36.09517815 77.5 39.25639622 74.84204691 43.625 70.5 C46.07661057 71.44901054 47.35063615 71.99215789 48.62109375 74.34375 C48.625 76.5 48.625 76.5 47.03515625 78.71875 C39.94358821 85.6097246 35.07590985 89.60554264 25 90.0625 C20.58028493 89.8887771 16.9514827 89.72872906 13.75390625 86.2734375 C8.06897591 77.34278569 6.73761364 65.71471167 4.625 55.5 C3.965 55.5 3.305 55.5 2.625 55.5 C2.27695312 56.77037109 2.27695312 56.77037109 1.921875 58.06640625 C0.4174356 62.04954551 -1.6076207 65.03889866 -4.125 68.4375 C-4.57601074 69.05431641 -5.02702148 69.67113281 -5.49169922 70.30664062 C-11.11278919 77.93598357 -16.68954568 85.15727284 -25.375 89.5 C-29.38152595 90.06020451 -33.56316833 90.5838993 -37.14453125 88.44140625 C-39.66985002 85.75598081 -40.70982205 83.08765252 -40.9375 79.5 C-40.65656921 75.32617118 -39.1900551 72.627839 -36.375 69.5 C-35.055 69.5 -33.735 69.5 -32.375 69.5 C-31.941875 70.16 -31.50875 70.82 -31.0625 71.5 C-29.45024633 73.84576727 -29.45024633 73.84576727 -26.125 74.0625 C-20.23752772 73.17937916 -16.25760247 69.93093399 -12.6796875 65.23046875 C-11.85674011 64.05853648 -11.04698001 62.87724389 -10.25 61.6875 C-9.82549561 61.06875 -9.40099121 60.45 -8.96362305 59.8125 C-8.13175307 58.59414811 -7.30525722 57.37210488 -6.48486328 56.14599609 C-5.54550336 54.75286706 -4.57133286 53.38330715 -3.58984375 52.01953125 C-0.93262064 48.19918853 -0.93262064 48.19918853 -0.63916016 43.68261719 C-1.97151169 37.91999789 -3.88982725 32.35995136 -5.75 26.75 C-6.14960937 25.50605469 -6.54921875 24.26210938 -6.9609375 22.98046875 C-7.3528125 21.79582031 -7.7446875 20.61117188 -8.1484375 19.390625 C-8.50341309 18.30813477 -8.85838867 17.22564453 -9.22412109 16.11035156 C-10.22181396 13.21388604 -10.22181396 13.21388604 -13.375 11.5 C-16.66944058 11.70590254 -18.68610367 11.92591972 -21.25 14.0625 C-21.62125 14.536875 -21.9925 15.01125 -22.375 15.5 C-24.8125 14.6875 -24.8125 14.6875 -27.375 13.5 C-27.705 12.51 -28.035 11.52 -28.375 10.5 C-21.99452201 0.27864216 -11.61208002 -5.16092445 0 0 Z " fill="#052341" transform="translate(810.375,363.5)"/>
<path d="M0 0 C-0.60497612 10.79163675 -2.68249316 21.37620013 -4.5625 32 C-4.9182526 34.02838046 -5.27388218 36.0567825 -5.62939453 38.08520508 C-8.59774036 54.96077316 -11.70423203 71.81034791 -14.86869812 88.65013123 C-15.17476859 90.27899866 -15.4803787 91.90795269 -15.78547668 93.53700256 C-16.40305484 96.83371901 -17.02506801 100.12906984 -17.66455078 103.42163086 C-18.55275435 108.06728766 -19.24844915 112.43470769 -19.125 117.1875 C-19.09792969 118.57001953 -19.09792969 118.57001953 -19.0703125 119.98046875 C-19.04710937 120.64691406 -19.02390625 121.31335938 -19 122 C-16.21061788 122.41890218 -16.21061788 122.41890218 -13 122 C-10.24958334 119.58333229 -10.24958334 119.58333229 -8 117 C-7.34 117 -6.68 117 -6 117 C-4 120 -4 120 -4.11328125 121.9296875 C-6.32342148 127.0899268 -12.02772612 130.97098754 -16.875 133.5 C-22.91199881 134.46591981 -28.69412441 135.33740784 -34.125 132.1875 C-37.75646722 127.95078825 -37.38269123 123.3010912 -37 118 C-36.18355729 112.1872308 -35.13218465 106.42207082 -34.078125 100.6484375 C-33.77312939 98.94532486 -33.46884215 97.24208522 -33.16522217 95.53872681 C-32.36473056 91.05832354 -31.5550603 86.57962824 -30.74328613 82.10125732 C-29.93301803 77.62312747 -29.13078249 73.14356158 -28.328125 68.6640625 C-28.01325755 66.90846164 -27.69835706 65.15286671 -27.38342285 63.39727783 C-27.22936478 62.53841225 -27.0753067 61.67954666 -26.9165802 60.79465485 C-26.76363998 59.94202812 -26.61069977 59.0894014 -26.453125 58.2109375 C-26.3008696 57.36203697 -26.1486142 56.51313644 -25.991745 55.63851166 C-25.54355112 53.14015198 -25.09509413 50.64183972 -24.64648438 48.14355469 C-24.50435265 47.35171154 -24.36222092 46.55986839 -24.21578217 45.74403 C-23.36137352 40.99033505 -22.49392048 36.23924433 -21.61914062 31.48925781 C-21.24070709 29.40172503 -20.86243481 27.314163 -20.484375 25.2265625 C-20.3130304 24.31796478 -20.14168579 23.40936707 -19.96514893 22.47323608 C-19.81906189 21.65787384 -19.67297485 20.8425116 -19.52246094 20.00244141 C-19.39579041 19.31679108 -19.26911987 18.63114075 -19.13861084 17.92471313 C-18.87263591 15.62660446 -18.87263591 15.62660446 -20 12 C-25.94 11.01 -25.94 11.01 -32 10 C-32 7.69 -32 5.38 -32 3 C-21.2702488 1.20427903 -10.90446559 -0.46701904 0 0 Z " fill="#052442" transform="translate(692,319)"/>
<path d="M0 0 C1.83726302 2.54077196 1.26364129 4.76676642 0.828125 7.74609375 C-0.45127368 14.12625294 -2.1062554 20.41686277 -3.765625 26.70703125 C-3.46011719 25.98 -3.15460938 25.25296875 -2.83984375 24.50390625 C1.59008887 14.77053317 8.74307031 3.38856882 19.12890625 -0.80859375 C24.89101382 -2.1341992 30.20952166 -2.50788076 35.359375 0.58203125 C38.23399971 3.83993925 38.57112359 6.11732657 38.5234375 10.47265625 C38.03052927 14.28270368 36.43137498 17.57685737 34.234375 20.70703125 C31.14548978 22.76628806 30.52501573 22.94606865 27.046875 22.83203125 C25.78875 22.79078125 24.530625 22.74953125 23.234375 22.70703125 C22.244375 20.72703125 21.254375 18.74703125 20.234375 16.70703125 C16.7046544 16.37868515 14.80832141 16.32624877 11.80859375 18.31640625 C8.91798867 21.00085285 6.80948982 23.88548382 4.734375 27.20703125 C4.14692505 28.14712036 4.14692505 28.14712036 3.54760742 29.10620117 C-7.15959991 46.62567197 -10.2730475 67.72172667 -13.765625 87.70703125 C-19.045625 87.70703125 -24.325625 87.70703125 -29.765625 87.70703125 C-27.537806 67.45413128 -23.77939452 47.3900694 -19.28979492 27.52148438 C-18.10689579 22.12102343 -17.44052826 17.2400502 -17.765625 11.70703125 C-19.41939211 10.05326414 -21.57510864 10.07231917 -23.828125 9.64453125 C-24.74722656 9.46792969 -25.66632813 9.29132813 -26.61328125 9.109375 C-27.32355469 8.97660156 -28.03382812 8.84382813 -28.765625 8.70703125 C-28.435625 6.39703125 -28.105625 4.08703125 -27.765625 1.70703125 C-4.3373887 -3.17627359 -4.3373887 -3.17627359 0 0 Z " fill="#052441" transform="translate(1272.765625,363.29296875)"/>
<path d="M0 0 C1 1 1 1 1.19921875 4.328125 C0.94388237 23.13092857 -5.40759814 41.41154995 -17 56 C-17.98613281 57.30904297 -17.98613281 57.30904297 -18.9921875 58.64453125 C-20.91332445 60.89831642 -22.53509868 62.25011637 -25.0625 63.75 C-25.73410156 64.15734375 -26.40570312 64.5646875 -27.09765625 64.984375 C-31.13119375 67.13780365 -34.48422468 67.46714917 -39 67 C-42.47449319 64.28083142 -44.2316679 62.30422778 -45 58 C-46.55157387 40.06738662 -42.47407864 20.13920693 -31 6 C-22.29540464 -3.16696417 -11.35286342 -6.03875714 0 0 Z " fill="#FBFBFB" transform="translate(619,374)"/>
<path d="M0 0 C2.25 1.875 2.25 1.875 3.0234375 4.30859375 C3.34536399 9.37616076 2.26087033 13.8887892 1.125 18.8125 C0.89127686 19.83722412 0.65755371 20.86194824 0.41674805 21.91772461 C-0.28205007 24.9097848 -1.00747865 27.89351511 -1.75 30.875 C-1.93836426 31.6371582 -2.12672852 32.39931641 -2.32080078 33.18457031 C-5.73765579 46.4276543 -13.31353148 58.98433613 -24.75 66.875 C-28.62702369 69.11556793 -32.33393292 69.74244175 -36.75 68.875 C-40.26811939 66.18027026 -42.02771888 64.20139093 -42.75 59.875 C-43.76626818 41.95350153 -41.29614358 22.40006871 -29.9375 7.75 C-21.27768006 -0.88703094 -11.84753327 -3.55425998 0 0 Z " fill="#FCFCFC" transform="translate(929.75,372.125)"/>
<path d="M0 0 C2 2 2 2 2.05786133 3.97851562 C1.27499173 10.57026439 0.10763298 17.01659653 -1.3125 23.5 C-1.51294922 24.46808594 -1.71339844 25.43617188 -1.91992188 26.43359375 C-3.97603951 35.91847077 -6.94307079 44.35217737 -12.75 52.1875 C-13.18320557 52.78264404 -13.61641113 53.37778809 -14.06274414 53.9909668 C-18.08845118 59.37899376 -22.46056694 64.82018898 -29 67 C-36.07993475 67.68515498 -36.07993475 67.68515498 -39.9375 64.8125 C-45.13399389 57.72637197 -43.68460738 46.28582682 -42.46875 37.8828125 C-39.95363043 22.7848729 -36.22067185 8.71197164 -23.29296875 -0.62109375 C-15.82171114 -5.11403061 -7.14806946 -5.25593343 0 0 Z " fill="#FBFBFC" transform="translate(1129,374)"/>
<path d="M0 0 C4.96463789 3.5820805 8.29231712 7.70379756 10.16015625 13.55859375 C11.14645489 22.64292329 10.96013523 31.08151242 5.16015625 38.55859375 C-0.65988893 44.28303243 -6.90116977 46.82465599 -15.08984375 46.99609375 C-23.26898468 46.84687339 -29.56235098 44.28218921 -35.27734375 38.37109375 C-40.06627668 32.13055792 -41.69558079 24.26022711 -40.83984375 16.55859375 C-37.91149987 7.63840778 -33.22541908 1.81689372 -24.83984375 -2.44140625 C-16.56809286 -5.17558332 -7.48032279 -4.29358365 0 0 Z " fill="#FBFBFC" transform="translate(727.83984375,539.44140625)"/>
<path d="M0 0 C2.97239241 1.78476241 5.42604027 3.85208055 7 7 C7.37376296 12.60644443 7.25518577 16.21894589 4 21 C-3.90141942 29.67606838 -14.71665619 33.65565661 -26 36 C-26.99 36 -27.98 36 -29 36 C-28.35889528 24.88751813 -23.29045295 13.36849827 -15.42578125 5.40625 C-10.38456674 1.03804397 -6.76292714 -0.81621534 0 0 Z " fill="#F8F9F9" transform="translate(747,370)"/>
<path d="M0 0 C3.02508145 1.73602105 5.41790069 3.83580137 7 7 C7.70672853 13.83170916 6.31289328 17.68038361 2 23 C-4.76689909 29.92426884 -14.72540245 32.85219846 -24 35 C-25.32 35 -26.64 35 -28 35 C-27.64380065 24.49211904 -22.98262827 12.69902738 -15.26953125 5.3515625 C-10.3803242 1.05712497 -6.79128508 -1.15918038 0 0 Z " fill="#F9FAFA" transform="translate(1208,370)"/>
<path d="M0 0 C2.36293002 1.15632746 4.14983755 2.14983755 6 4 C6.38500602 7.27255121 6.65717256 9.87201725 4.953125 12.796875 C3.625 14.4375 3.625 14.4375 1 17 C0.34 17 -0.32 17 -1 17 C3.455 22.445 3.455 22.445 8 28 C8.33 25.69 8.66 23.38 9 21 C10.65 21 12.3 21 14 21 C13.855625 22.2375 13.71125 23.475 13.5625 24.75 C13.47871094 25.48476563 13.39492188 26.21953125 13.30859375 26.9765625 C13 29 13 29 12.125 31.125 C11.95646018 33.6530973 12.84897905 34.32587603 14.4375 36.25 C15.283125 37.1575 16.12875 38.065 17 39 C15.35 39.66 13.7 40.32 12 41 C10.68 39.68 9.36 38.36 8 37 C7.47277344 37.4846875 6.94554687 37.969375 6.40234375 38.46875 C1.81299874 41.39399105 -3.76546483 40.7297831 -9 40 C-12.05254735 38.32821951 -13.44819751 36.10360497 -15 33 C-15.64660342 27.50387094 -14.65909538 24.78406253 -11.38671875 20.578125 C-9.98466813 18.9825519 -8.52157738 17.48141845 -7 16 C-7.66 16 -8.32 16 -9 16 C-11.38005611 11.8349018 -12.73383453 8.8223412 -12 4 C-9.06188993 -0.65200761 -5.1111501 -0.87214069 0 0 Z " fill="#0B2440" transform="translate(926,646)"/>
<path d="M0 0 C17.2231405 0 17.2231405 0 22.78515625 4.41796875 C24.80725091 7.05124314 24.46668008 9.49943677 24.3515625 12.70703125 C23.8030924 16.28427515 22.43144432 18.37141155 20 21 C17.35546875 21.65625 17.35546875 21.65625 15 22 C16.269376 23.91763215 17.54055945 25.83406793 18.8125 27.75 C19.52019531 28.81734375 20.22789062 29.8846875 20.95703125 30.984375 C22.17393863 32.78065128 23.42987409 34.55283142 24.76171875 36.265625 C26 38 26 38 26 40 C23.72265625 40.2890625 23.72265625 40.2890625 21 40 C19.12109375 38.0234375 19.12109375 38.0234375 17.4375 35.375 C16.84066406 34.46621094 16.24382813 33.55742188 15.62890625 32.62109375 C14.68452668 31.10148059 13.74952352 29.57579237 12.83984375 28.03515625 C11.79970054 26.24531941 11.79970054 26.24531941 10 24 C8.35 23.67 6.7 23.34 5 23 C5 28.61 5 34.22 5 40 C3.35 40 1.7 40 0 40 C0 26.8 0 13.6 0 0 Z " fill="#203851" transform="translate(966,646)"/>
<path d="M0 0 C3.36973114 2.90171293 4.80040255 4.94512792 5.23828125 9.453125 C5.40971845 15.91360037 4.97192323 19.81443356 1 25 C-3.79798473 28.107065 -9.52472114 27.9795559 -15 27 C-18.7348105 24.37932622 -20.57550148 21.27349556 -22 17 C-22.63400175 11.81929995 -22.77728717 7.42021072 -19.75 3 C-14.60781446 -3.08754555 -6.97570382 -3.87539101 0 0 Z " fill="#F5F6F7" transform="translate(849,659)"/>
<path d="M0 0 C18 0 18 0 23 4 C24.65033578 7.91954748 24.21730963 11.36014386 22.875 15.3125 C20.83531419 18.23604967 19.21689341 19.51527997 16 21 C15.34 21 14.68 21 14 21 C14.33322266 21.50974365 14.66644531 22.0194873 15.00976562 22.54467773 C16.50886253 24.84075955 18.00447288 27.13909162 19.5 29.4375 C20.02464844 30.23994141 20.54929687 31.04238281 21.08984375 31.86914062 C21.58613281 32.63291016 22.08242188 33.39667969 22.59375 34.18359375 C23.05458984 34.89056396 23.51542969 35.59753418 23.99023438 36.32592773 C25 38 25 38 25 39 C22.31640625 39.49609375 22.31640625 39.49609375 19 39 C16.84340528 36.63311978 15.43709647 33.87753197 13.9375 31.0625 C13.12849068 29.56589666 12.30476246 28.07713392 11.46484375 26.59765625 C11.110271 25.93258057 10.75569824 25.26750488 10.39038086 24.58227539 C8.78327676 22.43046041 8.78327676 22.43046041 4 22 C4 27.61 4 33.22 4 39 C2.68 39 1.36 39 0 39 C0 26.13 0 13.26 0 0 Z " fill="#122C47" transform="translate(650,647)"/>
<path d="M0 0 C3.23870591 0.71470448 5.4480009 2.34645578 7.96484375 4.43359375 C8.96484375 6.43359375 8.96484375 6.43359375 8.96484375 15.43359375 C2.69484375 15.43359375 -3.57515625 15.43359375 -10.03515625 15.43359375 C-8.76362065 22.02889131 -8.76362065 22.02889131 -6.03515625 24.43359375 C-3.73202518 24.71506568 -3.73202518 24.71506568 -1.16015625 24.62109375 C-0.29648437 24.61464844 0.5671875 24.60820313 1.45703125 24.6015625 C3.75676601 24.44753042 5.75767864 24.07521151 7.96484375 23.43359375 C7.63484375 25.08359375 7.30484375 26.73359375 6.96484375 28.43359375 C1.88197396 30.64920366 -2.76241797 31.23197413 -8.03515625 29.43359375 C-11.49106686 26.61846657 -13.62932636 23.65108342 -15.03515625 19.43359375 C-15.40341849 13.81759459 -15.25071632 10.25693386 -12.03515625 5.43359375 C-8.22961253 1.36254698 -5.48781448 -0.34759669 0 0 Z " fill="#1E344E" transform="translate(765.03515625,656.56640625)"/>
<path d="M0 0 C2.5625 2.125 2.5625 2.125 3.5625 4.125 C3.5625 7.095 3.5625 10.065 3.5625 13.125 C-3.0375 13.125 -9.6375 13.125 -16.4375 13.125 C-14.5803089 20.83711684 -14.5803089 20.83711684 -11.4375 22.125 C-9.81481009 22.22111752 -8.18802694 22.25482352 -6.5625 22.25 C-5.69882812 22.25257813 -4.83515625 22.25515625 -3.9453125 22.2578125 C-1.63084029 22.13523921 0.34539116 21.77466445 2.5625 21.125 C2.1875 23.5625 2.1875 23.5625 1.5625 26.125 C-2.86818656 28.34034328 -8.62702944 27.66214932 -13.4375 27.125 C-17.00376794 24.6076344 -18.76135951 22.08613542 -20.4375 18.125 C-21.22546856 12.70875292 -21.35277646 7.69841259 -18.1875 3.0625 C-13.14524307 -2.80842868 -6.78179216 -3.69915936 0 0 Z " fill="#0A223E" transform="translate(1018.4375,658.875)"/>
<path d="M0 0 C3.86138433 1.85918505 5.55194128 3.04278363 7.375 6.9375 C8 10 8 10 8 15 C1.07 15 -5.86 15 -13 15 C-10.95936115 22.45925209 -10.95936115 22.45925209 -8.1875 24.5 C-2.97284554 25.69192102 1.0525732 24.88473402 6 23 C5.67 24.65 5.34 26.3 5 28 C0.08837147 29.63720951 -4.88018652 29.62268002 -10 29 C-13.51538145 26.46892536 -15.33401123 23.93779165 -17 20 C-17.74473394 14.13884719 -17.51540162 8.92156227 -14 4 C-9.57196408 0.08685198 -5.73141744 -1.11888229 0 0 Z " fill="#0C2845" transform="translate(1119,657)"/>
<path d="M0 0 C3.51732742 1.28517733 5.4770624 2.37247488 7.875 5.25 C9 8 9 8 9 15 C2.4 15 -4.2 15 -11 15 C-8.97384121 22.77277038 -8.97384121 22.77277038 -5 25 C-2.84050899 25.1004252 -2.84050899 25.1004252 -0.5625 24.75 C0.19933594 24.66234375 0.96117187 24.5746875 1.74609375 24.484375 C4.09438552 23.97971611 5.9079315 23.16278978 8 22 C8 23.65 8 25.3 8 27 C2.82218305 30.15226508 -3.1538866 29.74095227 -9 29 C-12.55423623 26.47102422 -13.63748421 25.08754738 -15 21 C-16.1568041 10.16411351 -16.1568041 10.16411351 -13.73046875 5.625 C-9.47646131 0.65681613 -6.65495844 -0.4436639 0 0 Z " fill="#0B2440" transform="translate(696,657)"/>
<path d="M0 0 C3.36973114 2.90171293 4.80040255 4.94512792 5.23828125 9.453125 C5.40971845 15.91360037 4.97192323 19.81443356 1 25 C-3.79798473 28.107065 -9.52472114 27.9795559 -15 27 C-18.7348105 24.37932622 -20.57550148 21.27349556 -22 17 C-22.63400175 11.81929995 -22.77728717 7.42021072 -19.75 3 C-14.60781446 -3.08754555 -6.97570382 -3.87539101 0 0 Z M-14.9375 3.8125 C-17.95347332 8.47354967 -17.85985664 12.59750451 -17 18 C-15.66983836 21.22838773 -15.66983836 21.22838773 -13 23 C-9.57822616 23.91654656 -7.18207959 24.32835544 -3.75 23.375 C-0.84372588 21.0914989 0.73345078 18.77939614 1.2890625 15.0703125 C1.47603251 10.56603489 0.8828517 7.6302577 -2 4 C-6.60852716 0.92764856 -10.20473083 0.89228072 -14.9375 3.8125 Z " fill="#0B2441" transform="translate(849,659)"/>
<path d="M0 0 C3.23613354 1.74253345 3.82395315 2.47185944 5 6 C5.08209792 7.77313851 5.10746294 9.54920775 5.09765625 11.32421875 C5.09443359 12.35224609 5.09121094 13.38027344 5.08789062 14.43945312 C5.07951172 15.51130859 5.07113281 16.58316406 5.0625 17.6875 C5.05798828 18.77095703 5.05347656 19.85441406 5.04882812 20.97070312 C5.03703743 23.64719085 5.02058063 26.32356777 5 29 C3.68 29 2.36 29 1 29 C0.98018066 28.37955811 0.96036133 27.75911621 0.93994141 27.11987305 C0.84468155 24.30865463 0.73500698 21.49817834 0.625 18.6875 C0.5940625 17.71103516 0.563125 16.73457031 0.53125 15.72851562 C0.49257812 14.79072266 0.45390625 13.85292969 0.4140625 12.88671875 C0.3826416 12.02264404 0.3512207 11.15856934 0.31884766 10.26831055 C0.12811963 7.72257555 0.12811963 7.72257555 -2 5 C-6.60449156 4.41173339 -6.60449156 4.41173339 -10.69067383 6.21801758 C-12.39214047 8.53370004 -12.42511464 10.02878311 -12.51171875 12.88671875 C-12.56489258 14.2934082 -12.56489258 14.2934082 -12.61914062 15.72851562 C-12.64169922 16.70498047 -12.66425781 17.68144531 -12.6875 18.6875 C-12.72166016 19.67556641 -12.75582031 20.66363281 -12.79101562 21.68164062 C-12.87350538 24.12098053 -12.94265068 26.55996063 -13 29 C-14.65 29 -16.3 29 -18 29 C-18 19.76 -18 10.52 -18 1 C-15.33333333 1 -12.66666667 1 -10 1 C-6.81496713 -0.59251643 -3.4667595 -0.39129761 0 0 Z " fill="#213751" transform="translate(1153,657)"/>
<path d="M0 0 C1.32 0 2.64 0 4 0 C4.02187378 0.93066284 4.02187378 0.93066284 4.04418945 1.88012695 C4.11866588 4.69154633 4.21532564 7.50177749 4.3125 10.3125 C4.33505859 11.28896484 4.35761719 12.26542969 4.38085938 13.27148438 C4.41630859 14.20927734 4.45175781 15.14707031 4.48828125 16.11328125 C4.51446533 16.97735596 4.54064941 17.84143066 4.56762695 18.73168945 C5.08801445 21.46174041 5.73602448 22.41080361 8 24 C11.57756686 24.00082535 11.57756686 24.00082535 15 23 C17.08745045 19.86882433 17.27653996 18.93053776 17.4140625 15.33203125 C17.45273437 14.43935547 17.49140625 13.54667969 17.53125 12.62695312 C17.57765625 11.23379883 17.57765625 11.23379883 17.625 9.8125 C17.66367187 8.87212891 17.70234375 7.93175781 17.7421875 6.96289062 C17.83643187 4.6421229 17.92204025 2.32136252 18 0 C19.65 0 21.3 0 23 0 C23 9.24 23 18.48 23 28 C21.35 28 19.7 28 18 28 C17.67 27.34 17.34 26.68 17 26 C15.948125 26.7425 15.948125 26.7425 14.875 27.5 C11.46483475 29.27921665 9.79446342 29.61950423 6 29 C3.12121963 27.39909994 1.78098639 26.65120566 0 24 C-0.74898415 19.87547787 -0.56530646 15.86204295 -0.375 11.6875 C-0.34792969 10.56537109 -0.32085938 9.44324219 -0.29296875 8.28710938 C-0.22239001 5.52277541 -0.12384488 2.76237585 0 0 Z " fill="#18314C" transform="translate(577,658)"/>
<path d="M0 0 C3.67007339 1.03882897 4.90425151 2.45869392 7.09765625 5.59375 C7.71209771 9.71447803 7.56797908 13.75186758 7.41015625 17.90625 C7.38759766 19.02837891 7.36503906 20.15050781 7.34179688 21.30664062 C7.28299401 24.07037536 7.20086026 26.83137554 7.09765625 29.59375 C5.77765625 29.59375 4.45765625 29.59375 3.09765625 29.59375 C3.08307373 28.97330811 3.06849121 28.35286621 3.0534668 27.71362305 C2.97899037 24.90220367 2.88233061 22.09197251 2.78515625 19.28125 C2.76259766 18.30478516 2.74003906 17.32832031 2.71679688 16.32226562 C2.66362305 14.91557617 2.66362305 14.91557617 2.609375 13.48046875 C2.58319092 12.61639404 2.55700684 11.75231934 2.5300293 10.86206055 C2.00981998 8.13294435 1.3558109 7.18776075 -0.90234375 5.59375 C-4.39443569 5.65610878 -6.8703884 5.70131309 -9.578125 8.04296875 C-11.63076475 11.99687364 -11.47623554 15.94873531 -11.58984375 20.34375 C-11.62400391 21.23191406 -11.65816406 22.12007812 -11.69335938 23.03515625 C-11.77563089 25.22122803 -11.84484547 27.40690951 -11.90234375 29.59375 C-13.22234375 29.59375 -14.54234375 29.59375 -15.90234375 29.59375 C-15.90234375 20.35375 -15.90234375 11.11375 -15.90234375 1.59375 C-14.25234375 1.59375 -12.60234375 1.59375 -10.90234375 1.59375 C-10.57234375 2.25375 -10.24234375 2.91375 -9.90234375 3.59375 C-9.40734375 3.09875 -8.91234375 2.60375 -8.40234375 2.09375 C-5.57415419 0.39683627 -3.26856886 0.15595557 0 0 Z " fill="#08223F" transform="translate(878.90234375,656.40625)"/>
<path d="M0 0 C2.32421875 -0.2421875 2.32421875 -0.2421875 5 0 C6.58203125 1.6796875 6.58203125 1.6796875 7.8125 3.875 C8.44091797 4.95394531 8.44091797 4.95394531 9.08203125 6.0546875 C10 8 10 8 10 10 C10.66 10 11.32 10 12 10 C12.37125 8.9171875 12.37125 8.9171875 12.75 7.8125 C14.15343389 4.65477374 15.5530258 2.4469742 18 0 C20.63671875 -0.13671875 20.63671875 -0.13671875 23 0 C22.50628906 0.75925781 22.01257813 1.51851562 21.50390625 2.30078125 C20.54291016 3.79158203 20.54291016 3.79158203 19.5625 5.3125 C18.92441406 6.29863281 18.28632812 7.28476562 17.62890625 8.30078125 C15.89384394 10.95276993 15.89384394 10.95276993 15 14 C16.23557787 16.31926437 17.49557798 18.44185857 18.9375 20.625 C23 26.91882304 23 26.91882304 23 28 C20.70703125 28.2734375 20.70703125 28.2734375 18 28 C16.19921875 26.1015625 16.19921875 26.1015625 14.6875 23.625 C14.17574219 22.81289063 13.66398438 22.00078125 13.13671875 21.1640625 C12 19 12 19 12 17 C8.32966073 20.27708863 6.30718811 23.71522208 4 28 C2.35 28 0.7 28 -1 28 C0.39741848 23.52826088 2.87764393 20.48662721 5.85546875 16.96484375 C7.18527943 15.10565744 7.18527943 15.10565744 6.8671875 13.11328125 C5.74254492 10.37259821 4.38401307 7.8352574 2.9375 5.25 C2.38964844 4.26515625 1.84179688 3.2803125 1.27734375 2.265625 C0.85582031 1.51796875 0.43429687 0.7703125 0 0 Z " fill="#0D2541" transform="translate(782,658)"/>
<path d="M0 0 C1.19109375 -0.00386719 1.19109375 -0.00386719 2.40625 -0.0078125 C4.5 0.125 4.5 0.125 6.5 1.125 C6.5 2.445 6.5 3.765 6.5 5.125 C2.87 5.125 -0.76 5.125 -4.5 5.125 C-5.16 6.445 -5.82 7.765 -6.5 9.125 C-5.65695312 9.53492188 -4.81390625 9.94484375 -3.9453125 10.3671875 C-2.30175781 11.17542969 -2.30175781 11.17542969 -0.625 12 C1.01082031 12.80050781 1.01082031 12.80050781 2.6796875 13.6171875 C5.5 15.125 5.5 15.125 7.5 17.125 C8.27777778 24.01388889 8.27777778 24.01388889 5.75 27.625 C0.77152376 29.92275826 -4.10469406 29.43477833 -9.5 29.125 C-9.83 27.475 -10.16 25.825 -10.5 24.125 C-9.81292969 24.22039063 -9.12585937 24.31578125 -8.41796875 24.4140625 C-7.51691406 24.52492188 -6.61585937 24.63578125 -5.6875 24.75 C-4.79417969 24.86601563 -3.90085937 24.98203125 -2.98046875 25.1015625 C-0.24309609 25.36000743 -0.24309609 25.36000743 2.5 23.125 C2.5 21.805 2.5 20.485 2.5 19.125 C1.65695312 18.71507812 0.81390625 18.30515625 -0.0546875 17.8828125 C-1.15039062 17.34398437 -2.24609375 16.80515625 -3.375 16.25 C-4.46554687 15.71632813 -5.55609375 15.18265625 -6.6796875 14.6328125 C-9.5 13.125 -9.5 13.125 -11.5 11.125 C-11.9375 8.8125 -11.9375 8.8125 -11.5 6.125 C-7.78977607 1.82895124 -5.61751786 -0.01823869 0 0 Z " fill="#1D324C" transform="translate(1040.5,656.875)"/>
<path d="M0 0 C0 1.65 0 3.3 0 5 C-1.134375 4.979375 -2.26875 4.95875 -3.4375 4.9375 C-6.81575674 4.58422523 -6.81575674 4.58422523 -8 6 C-8.23192865 7.51469448 -8.41215238 9.03754562 -8.5625 10.5625 C-8.64628906 11.38878906 -8.73007812 12.21507812 -8.81640625 13.06640625 C-8.87699219 13.70449219 -8.93757812 14.34257813 -9 15 C-6.36 15 -3.72 15 -1 15 C-1 15.99 -1 16.98 -1 18 C-3.64 18 -6.28 18 -9 18 C-9 26.25 -9 34.5 -9 43 C-10.32 43 -11.64 43 -13 43 C-13 34.75 -13 26.5 -13 18 C-14.98 18 -16.96 18 -19 18 C-19 17.01 -19 16.02 -19 15 C-17.02 15 -15.04 15 -13 15 C-13.08701172 13.87851562 -13.08701172 13.87851562 -13.17578125 12.734375 C-13.54251917 4.72901013 -13.54251917 4.72901013 -11 1.3125 C-7.03558756 -0.42193044 -4.30166212 -0.29163811 0 0 Z " fill="#041E3B" transform="translate(730,643)"/>
<path d="M0 0 C6.27 0 12.54 0 19 0 C18.0924016 4.537992 17.63775402 5.94516691 15.05859375 9.42578125 C14.47529297 10.22177734 13.89199219 11.01777344 13.29101562 11.83789062 C12.37352539 13.06282227 12.37352539 13.06282227 11.4375 14.3125 C10.82197266 15.14845703 10.20644531 15.98441406 9.57226562 16.84570312 C8.05587025 18.90282864 6.52894845 20.95218727 5 23 C11.93 23.495 11.93 23.495 19 24 C19 25.32 19 26.64 19 28 C12.4 28 5.8 28 -1 28 C0.12473483 21.25159101 0.12473483 21.25159101 2.6875 17.765625 C3.22117187 17.02699219 3.75484375 16.28835938 4.3046875 15.52734375 C4.86414062 14.77582031 5.42359375 14.02429688 6 13.25 C7.10504675 11.73501655 8.20925483 10.2194209 9.3125 8.703125 C9.80363281 8.03958008 10.29476563 7.37603516 10.80078125 6.69238281 C12.06086652 5.00512631 12.06086652 5.00512631 13 3 C8.71 3 4.42 3 0 3 C0 2.01 0 1.02 0 0 Z " fill="#0A233F" transform="translate(1168,658)"/>
<path d="M0 0 C0 1.32 0 2.64 0 4 C-1.7015625 4.2165625 -1.7015625 4.2165625 -3.4375 4.4375 C-6.80777201 4.61171478 -6.80777201 4.61171478 -8 6 C-8.23192865 7.51469448 -8.41215238 9.03754562 -8.5625 10.5625 C-8.64628906 11.38878906 -8.73007812 12.21507812 -8.81640625 13.06640625 C-8.87699219 13.70449219 -8.93757812 14.34257813 -9 15 C-6.69 15 -4.38 15 -2 15 C-2 15.99 -2 16.98 -2 18 C-4.31 18 -6.62 18 -9 18 C-9 26.25 -9 34.5 -9 43 C-10.32 43 -11.64 43 -13 43 C-13 34.75 -13 26.5 -13 18 C-14.65 18 -16.3 18 -18 18 C-18 17.01 -18 16.02 -18 15 C-16.35 15 -14.7 15 -13 15 C-13.08701172 13.87851562 -13.08701172 13.87851562 -13.17578125 12.734375 C-13.54251917 4.72901013 -13.54251917 4.72901013 -11 1.3125 C-7.03558756 -0.42193044 -4.30166212 -0.29163811 0 0 Z " fill="#052240" transform="translate(571,643)"/>
<path d="M0 0 C2.89217373 1.29649167 4.98073496 2.53831172 7 5 C7.97457168 9.60946067 7.34108157 13.29257156 5.3125 17.5 C2.71684336 20.30611528 1.64532765 20.46801188 -2 21 C-0.730624 22.91763215 0.54055945 24.83406793 1.8125 26.75 C2.52019531 27.81734375 3.22789062 28.8846875 3.95703125 29.984375 C5.17393863 31.78065128 6.42987409 33.55283142 7.76171875 35.265625 C9 37 9 37 9 39 C6.72265625 39.2890625 6.72265625 39.2890625 4 39 C2.12109375 37.0234375 2.12109375 37.0234375 0.4375 34.375 C-0.15933594 33.46621094 -0.75617187 32.55742188 -1.37109375 31.62109375 C-2.31547332 30.10148059 -3.25047648 28.57579237 -4.16015625 27.03515625 C-5.83586977 24.26039176 -6.58775005 23.13117044 -9.75 22.125 C-10.4925 22.08375 -11.235 22.0425 -12 22 C-12 21.01 -12 20.02 -12 19 C-11.22914063 18.81824219 -10.45828125 18.63648438 -9.6640625 18.44921875 C-8.66117188 18.19785156 -7.65828125 17.94648437 -6.625 17.6875 C-5.12839844 17.32205078 -5.12839844 17.32205078 -3.6015625 16.94921875 C-0.6915014 16.17806142 -0.6915014 16.17806142 1 13 C1.50010524 10.04230823 1.50010524 10.04230823 1 7 C-0.87501931 4.62280307 -0.87501931 4.62280307 -3 3 C-2.01 2.67 -1.02 2.34 0 2 C0 1.34 0 0.68 0 0 Z " fill="#0E2743" transform="translate(983,647)"/>
<path d="M0 0 C1.65 0 3.3 0 5 0 C5 14.19 5 28.38 5 43 C3.35 43 1.7 43 0 43 C0 28.81 0 14.62 0 0 Z " fill="#1E354F" transform="translate(1073,643)"/>
<path d="M0 0 C2.36293002 1.15632746 4.14983755 2.14983755 6 4 C6.4695122 10.33841463 6.4695122 10.33841463 4.625 12.9375 C3 14 3 14 1 14 C1 13.01 1 12.02 1 11 C0.21625 11.66 -0.5675 12.32 -1.375 13 C-4 15 -4 15 -6 15 C-6.99 15.33 -7.98 15.66 -9 16 C-11.38005611 11.8349018 -12.73383453 8.8223412 -12 4 C-9.06188993 -0.65200761 -5.1111501 -0.87214069 0 0 Z " fill="#0E2541" transform="translate(926,646)"/>
<path d="M0 0 C5.28 0 10.56 0 16 0 C15.67 0.99 15.34 1.98 15 3 C11.37 3 7.74 3 4 3 C4 8.28 4 13.56 4 19 C6.31 19 8.62 19 11 19 C10.67 19.99 10.34 20.98 10 22 C8.02 22 6.04 22 4 22 C4 27.61 4 33.22 4 39 C2.68 39 1.36 39 0 39 C0 26.13 0 13.26 0 0 Z " fill="#011735" transform="translate(650,647)"/>
<path d="M0 0 C1.5675 -0.061875 3.135 -0.12375 4.75 -0.1875 C6.07257812 -0.23970703 6.07257812 -0.23970703 7.421875 -0.29296875 C10.52351115 0.0594899 11.82221815 0.78225885 14 3 C14.54889545 7.32255167 14.71716742 9.69605923 12.625 13.5 C8.46285285 15.8783698 4.74014469 15.2494813 0 15 C0 10.05 0 5.1 0 0 Z " fill="#F4F6F6" transform="translate(654,650)"/>
<path d="M0 0 C8.08978328 -0.48297214 8.08978328 -0.48297214 12.0625 1.625 C14 4 14 4 14.5 7 C13.95698679 10.25807925 13.31873852 11.68126148 11 14 C8.24921116 14.91692961 6.64051087 15.10886083 3.8125 15.0625 C1.9253125 15.0315625 1.9253125 15.0315625 0 15 C0 10.05 0 5.1 0 0 Z " fill="#F7F8F8" transform="translate(971,650)"/>
<path d="M0 0 C1.32 0 2.64 0 4 0 C4 14.19 4 28.38 4 43 C2.68 43 1.36 43 0 43 C0 28.81 0 14.62 0 0 Z " fill="#051F3D" transform="translate(737,643)"/>
<path d="M0 0 C0.99 0.33 1.98 0.66 3 1 C3 1.66 3 2.32 3 3 C4.66289063 2.94779297 4.66289063 2.94779297 6.359375 2.89453125 C7.82290148 2.86638651 9.28644439 2.83908708 10.75 2.8125 C11.47960938 2.78736328 12.20921875 2.76222656 12.9609375 2.73632812 C17.78731876 2.67051384 18.94866839 2.96150129 23 6 C16.4 6 9.8 6 3 6 C5.04063885 13.45925209 5.04063885 13.45925209 7.8125 15.5 C13.02715446 16.69192102 17.0525732 15.88473402 22 14 C21.67 15.65 21.34 17.3 21 19 C16.08837147 20.63720951 11.11981348 20.62268002 6 20 C2.4946931 17.47617903 0.63842285 14.94223141 -1 11 C-1.23046875 8.45703125 -1.23046875 8.45703125 -1.1875 5.8125 C-1.18105469 4.93207031 -1.17460938 4.05164063 -1.16796875 3.14453125 C-1 1 -1 1 0 0 Z " fill="#061B38" transform="translate(1103,666)"/>
<path d="M0 0 C3.35861695 1.43409972 5.35874939 3.19369321 7.75 5.9375 C8.36359375 6.62714844 8.9771875 7.31679688 9.609375 8.02734375 C11 10 11 10 11 13 C4.22918384 16.77906018 4.22918384 16.77906018 0 16 C-2.55648714 14.08263465 -3.7616689 12.56603636 -5 9.625 C-5 5.60322842 -2.79977548 2.79977548 0 0 Z " fill="#F3F4F5" transform="translate(920,667)"/>
<path d="M0 0 C0 1.32 0 2.64 0 4 C-2.31 4.33 -4.62 4.66 -7 5 C-9.44698897 9.80445395 -9.43620061 14.53791706 -9.625 19.8125 C-9.66367187 20.69615234 -9.70234375 21.57980469 -9.7421875 22.49023438 C-9.83600784 24.65982972 -9.91907326 26.82988547 -10 29 C-11.32 29 -12.64 29 -14 29 C-14 19.76 -14 10.52 -14 1 C-12.68 1 -11.36 1 -10 1 C-9.67 1.66 -9.34 2.32 -9 3 C-8.443125 2.505 -7.88625 2.01 -7.3125 1.5 C-4.61837017 -0.24754367 -3.14624993 -0.26218749 0 0 Z " fill="#112844" transform="translate(626,657)"/>
<path d="M0 0 C1.65 0 3.3 0 5 0 C5 9.24 5 18.48 5 28 C3.35 28 1.7 28 0 28 C0 18.76 0 9.52 0 0 Z " fill="#19324C" transform="translate(1057,658)"/>
<path d="M0 0 C1.65 0 3.3 0 5 0 C5 9.24 5 18.48 5 28 C3.35 28 1.7 28 0 28 C0 18.76 0 9.52 0 0 Z " fill="#1C344E" transform="translate(813,658)"/>
<path d="M0 0 C1.65 0 3.3 0 5 0 C5.33 0.66 5.66 1.32 6 2 C8.02463255 2.65213292 8.02463255 2.65213292 10 3 C9.19175781 3.78632812 8.38351562 4.57265625 7.55078125 5.3828125 C4.09409835 9.53083198 4.2228385 13.66060835 4.1875 18.875 C4.16236328 19.75414062 4.13722656 20.63328125 4.11132812 21.5390625 C4.05281805 23.6922332 4.02345764 25.84616221 4 28 C2.68 28 1.36 28 0 28 C0 18.76 0 9.52 0 0 Z " fill="#132A46" transform="translate(863,658)"/>
<path d="M0 0 C2.875 0.25 2.875 0.25 6 1 C8.13939888 4.08857503 8.23628594 6.73426516 8.1953125 10.421875 C8.18564453 11.95908203 8.18564453 11.95908203 8.17578125 13.52734375 C8.15902344 14.59082031 8.14226562 15.65429688 8.125 16.75 C8.11597656 17.82894531 8.10695313 18.90789063 8.09765625 20.01953125 C8.07411305 22.67991278 8.04122799 25.33984336 8 28 C6.68 28 5.36 28 4 28 C3.98018066 27.37955811 3.96036133 26.75911621 3.93994141 26.11987305 C3.84468155 23.30865463 3.73500698 20.49817834 3.625 17.6875 C3.5940625 16.71103516 3.563125 15.73457031 3.53125 14.72851562 C3.49257812 13.79072266 3.45390625 12.85292969 3.4140625 11.88671875 C3.3826416 11.02264404 3.3512207 10.15856934 3.31884766 9.26831055 C3.12811963 6.72257555 3.12811963 6.72257555 1 4 C-1.05003955 2.80767387 -1.05003955 2.80767387 -3 2 C-2.01 2 -1.02 2 0 2 C0 1.34 0 0.68 0 0 Z " fill="#051F3D" transform="translate(1150,658)"/>
<path d="M0 0 C1.32 0 2.64 0 4 0 C4.02187378 0.93066284 4.02187378 0.93066284 4.04418945 1.88012695 C4.11866588 4.69154633 4.21532564 7.50177749 4.3125 10.3125 C4.33505859 11.28896484 4.35761719 12.26542969 4.38085938 13.27148438 C4.41630859 14.20927734 4.45175781 15.14707031 4.48828125 16.11328125 C4.51446533 16.97735596 4.54064941 17.84143066 4.56762695 18.73168945 C5.08580238 21.45013547 5.81433804 22.3466467 8 24 C10.60611077 24.72197162 10.60611077 24.72197162 13 25 C13 25.33 13 25.66 13 26 C11.59205466 26.44524767 10.17292985 26.85525172 8.75 27.25 C7.96109375 27.48203125 7.1721875 27.7140625 6.359375 27.953125 C4 28 4 28 1.87695312 26.35546875 C-0.44437066 23.44234025 -0.46897553 22.04184995 -0.390625 18.359375 C-0.37773438 17.28945313 -0.36484375 16.21953125 -0.3515625 15.1171875 C-0.31804688 14.00601563 -0.28453125 12.89484375 -0.25 11.75 C-0.23195313 10.62335937 -0.21390625 9.49671875 -0.1953125 8.3359375 C-0.14820222 5.55643104 -0.08243361 2.7786466 0 0 Z " fill="#0D2542" transform="translate(577,658)"/>
<path d="M0 0 C1.32 0 2.64 0 4 0 C4 9.24 4 18.48 4 28 C2.68 28 1.36 28 0 28 C0 18.76 0 9.52 0 0 Z " fill="#021A39" transform="translate(1089,658)"/>
<path d="M0 0 C2.89217373 1.29649167 4.98073496 2.53831172 7 5 C7.78297172 8.70324463 7.71863048 12.4694104 6.09765625 15.921875 C5 17.5625 5 17.5625 3 20 C0.69 19.34 -1.62 18.68 -4 18 C-3.175 17.29875 -2.35 16.5975 -1.5 15.875 C1.22581535 13.23293596 1.22581535 13.23293596 1.5625 9.9375 C0.88943111 6.4225847 -0.26293696 5.22386372 -3 3 C-2.01 2.67 -1.02 2.34 0 2 C0 1.34 0 0.68 0 0 Z " fill="#0A2542" transform="translate(983,647)"/>
<path d="M0 0 C2.4375 1.75 2.4375 1.75 4 4 C4 5.32 4 6.64 4 8 C-1.28 8 -6.56 8 -12 8 C-9.17500078 0.93750195 -7.88773614 -0.96866935 0 0 Z " fill="#EDEFF0" transform="translate(1118,661)"/>
<path d="M0 0 C0.495 0.33 0.99 0.66 1.5 1 C1.17 1.66 0.84 2.32 0.5 3 C1.82 3.66 3.14 4.32 4.5 5 C2.6875 5.625 2.6875 5.625 0.5 6 C-0.49 5.34 -1.48 4.68 -2.5 4 C-6.27569938 3.58810552 -8.58643205 3.44705098 -11.875 5.4375 C-14.21075023 9.12079843 -14.31663185 12.70918538 -14.5 17 C-14.83 17 -15.16 17 -15.5 17 C-15.62375 15.9275 -15.7475 14.855 -15.875 13.75 C-16.39643936 10.62136385 -16.90088254 8.66519576 -18.5 6 C-13.62511716 -0.61591243 -7.99226106 -3.19690443 0 0 Z " fill="#122845" transform="translate(846.5,658)"/>
<path d="M0 0 C2.4375 1.75 2.4375 1.75 4 4 C4 5.32 4 6.64 4 8 C-0.95 8 -5.9 8 -11 8 C-10 3 -10 3 -8.875 1.1875 C-5.84814901 -0.72950563 -3.4846244 -0.42793633 0 0 Z " fill="#EEEFF1" transform="translate(1014,661)"/>
<path d="M0 0 C2.4375 1.1875 2.4375 1.1875 4 3 C4 4.65 4 6.3 4 8 C-0.95 8 -5.9 8 -11 8 C-10 3 -10 3 -8.875 1.1875 C-5.88203065 -0.70804726 -3.45004411 -0.36316254 0 0 Z " fill="#EBEEEF" transform="translate(696,661)"/>
<path d="M0 0 C2.375 1.75 2.375 1.75 4 4 C4 5.32 4 6.64 4 8 C-0.95 8 -5.9 8 -11 8 C-10 3 -10 3 -8.3125 1.1875 C-5.26453845 -0.37766945 -3.38514427 -0.49366687 0 0 Z " fill="#F1F3F3" transform="translate(766,661)"/>
<path d="M0 0 C0.66 0.99 1.32 1.98 2 3 C3.75238665 5.22558304 4.49338595 5.92895563 7.33984375 6.328125 C8.19707031 6.30234375 9.05429687 6.2765625 9.9375 6.25 C10.79214844 6.23453125 11.64679687 6.2190625 12.52734375 6.203125 C14.79809898 6.01658587 16.81524914 5.62855941 19 5 C18.625 7.4375 18.625 7.4375 18 10 C13.57146276 12.21426862 7.80791809 11.54215681 3 11 C-0.55423623 8.47102422 -1.63748421 7.08754738 -3 3 C-2.34 3 -1.68 3 -1 3 C-0.67 2.01 -0.34 1.02 0 0 Z " fill="#172D48" transform="translate(1002,675)"/>
<path d="M0 0 C2.97 0.495 2.97 0.495 6 1 C5.195625 1.886875 4.39125 2.77375 3.5625 3.6875 C1.3004577 6.41092203 0.19073613 8.37601353 0 12 C0.21717352 14.20800528 0.21717352 14.20800528 1 16 C1.66 16.33 2.32 16.66 3 17 C3 17.66 3 18.32 3 19 C1.68 19.33 0.36 19.66 -1 20 C-3.48004265 16.82244535 -4.90635277 14.5722886 -5.5625 10.5625 C-4.81653321 5.83804366 -3.00432405 3.68029696 0 0 Z " fill="#102B47" transform="translate(916,665)"/>
<path d="M0 0 C6.93 0.495 6.93 0.495 14 1 C14 1.33 14 1.66 14 2 C10.37 2 6.74 2 3 2 C3 7.28 3 12.56 3 18 C5.31 18 7.62 18 10 18 C9.67 18.66 9.34 19.32 9 20 C6.36 20 3.72 20 1 20 C0.67 20.99 0.34 21.98 0 23 C0 15.41 0 7.82 0 0 Z " fill="#02203E" transform="translate(651,648)"/>
<path d="M0 0 C0.66 0.99 1.32 1.98 2 3 C4.51276004 5.72215671 5.94862666 6.92831545 9.75 7.1875 C13.15855484 6.99085261 15.82227123 6.21056334 19 5 C18.67 6.65 18.34 8.3 18 10 C14.8234489 11.05885037 12.40011989 11.20049266 9.0625 11.25 C8.02222656 11.27578125 6.98195313 11.3015625 5.91015625 11.328125 C2.68278581 10.96423357 1.36286359 10.16358594 -1 8 C-0.67 5.36 -0.34 2.72 0 0 Z " fill="#142E49" transform="translate(1106,675)"/>
<path d="M0 0 C0.99 0.33 1.98 0.66 3 1 C2.71125 1.515625 2.4225 2.03125 2.125 2.5625 C0.71219973 5.62356725 -0.1248517 8.74944918 -1 12 C2.3 12 5.6 12 9 12 C9 12.33 9 12.66 9 13 C5.7 13 2.4 13 -1 13 C-1 14.98 -1 16.96 -1 19 C-2.33333333 19 -3.66666667 19 -5 19 C-5.86140345 6.0980905 -5.86140345 6.0980905 -2.5 2.1875 C-1.2625 1.1046875 -1.2625 1.1046875 0 0 Z " fill="#07203D" transform="translate(686,659)"/>
<path d="M0 0 C1.9375 0.25 1.9375 0.25 4 1 C4.66 1.99 5.32 2.98 6 4 C4.90751403 5.50852857 3.80061501 7.00662831 2.6875 8.5 C2.07261719 9.3353125 1.45773437 10.170625 0.82421875 11.03125 C0.22222656 11.6809375 -0.37976563 12.330625 -1 13 C-1.99 13 -2.98 13 -4 13 C-4.59732819 10.23735711 -5 7.83967231 -5 5 C-4.34 5 -3.68 5 -3 5 C-2.5359375 4.0409375 -2.5359375 4.0409375 -2.0625 3.0625 C-1 1 -1 1 0 0 Z " fill="#082340" transform="translate(759,427)"/>
<path d="M0 0 C3.29714793 0.32971479 4.6226839 0.6226839 7 3 C6.9375 5.375 6.9375 5.375 6 8 C3.4375 10.3125 3.4375 10.3125 1 12 C-3.03448276 6.62068966 -3.03448276 6.62068966 -2.875 3.75 C-2 2 -2 2 0 0 Z " fill="#EDEFF0" transform="translate(921,649)"/>
<path d="M0 0 C0.41195187 3.6251765 0.44853908 5.39126838 -1.75 8.375 C-6.70709566 10.85354783 -11.55768977 10.31247714 -17 10 C-17.33 8.35 -17.66 6.7 -18 5 C-17.00419922 5.14308594 -17.00419922 5.14308594 -15.98828125 5.2890625 C-9.28354475 6.20315322 -9.28354475 6.20315322 -3 4 C-3 3.01 -3 2.02 -3 1 C-1 0 -1 0 0 0 Z " fill="#0D2542" transform="translate(1048,676)"/>
<path d="M0 0 C0.56847656 0.15855469 1.13695312 0.31710937 1.72265625 0.48046875 C3.99568293 0.99901515 6.11385413 1.17155094 8.4375 1.3125 C12.67180399 1.73173802 14.93670873 2.93670873 18 6 C17.67 6.99 17.34 7.98 17 9 C16.34 9 15.68 9 15 9 C15.33 9.99 15.66 10.98 16 12 C14.02 12.99 14.02 12.99 12 14 C12.33 12.02 12.66 10.04 13 8 C11.71802734 7.38511719 11.71802734 7.38511719 10.41015625 6.7578125 C8.75306641 5.94957031 8.75306641 5.94957031 7.0625 5.125 C5.96035156 4.59132813 4.85820313 4.05765625 3.72265625 3.5078125 C1 2 1 2 0 0 Z " fill="#132945" transform="translate(1030,668)"/>
<path d="M0 0 C0 1.65 0 3.3 0 5 C-1.134375 4.979375 -2.26875 4.95875 -3.4375 4.9375 C-6.81575674 4.58422523 -6.81575674 4.58422523 -8 6 C-8.23192865 7.51469448 -8.41215238 9.03754562 -8.5625 10.5625 C-8.64628906 11.38878906 -8.73007812 12.21507812 -8.81640625 13.06640625 C-8.87699219 13.70449219 -8.93757812 14.34257813 -9 15 C-9.99 15 -10.98 15 -12 15 C-12.64199852 11.31327584 -13.10783238 7.74717532 -13 4 C-9.49823939 -0.85728084 -5.5062088 -0.37330229 0 0 Z " fill="#0E2541" transform="translate(730,643)"/>
<path d="M0 0 C4.31582643 2.19145591 6.31911313 4.50738073 8.8125 8.625 C9.41707031 9.60726562 10.02164063 10.58953125 10.64453125 11.6015625 C12 14 12 14 12 15 C9.375 15.625 9.375 15.625 6 15 C2.17022149 10.47154568 -0.45634056 6.03021458 0 0 Z " fill="#0A2340" transform="translate(663,671)"/>
<path d="M0 0 C0.33 0 0.66 0 1 0 C1 2.31 1 4.62 1 7 C-5.27 7 -11.54 7 -18 7 C-18 6.01 -18 5.02 -18 4 C-13.05 4 -8.1 4 -3 4 C-2.67 3.34 -2.34 2.68 -2 2 C-1.34 1.34 -0.68 0.68 0 0 Z " fill="#041B38" transform="translate(773,665)"/>
<path d="M0 0 C0.89203125 0.10183594 1.7840625 0.20367188 2.703125 0.30859375 C3.37859375 0.39238281 4.0540625 0.47617187 4.75 0.5625 C4.42 1.2225 4.09 1.8825 3.75 2.5625 C2.76 2.5625 1.77 2.5625 0.75 2.5625 C1.74 4.0475 1.74 4.0475 2.75 5.5625 C2.75 6.5525 2.75 7.5425 2.75 8.5625 C2.09 8.5625 1.43 8.5625 0.75 8.5625 C0.42 9.2225 0.09 9.8825 -0.25 10.5625 C-0.806875 9.593125 -1.36375 8.62375 -1.9375 7.625 C-3.93035805 4.37258721 -3.93035805 4.37258721 -7 3.6875 C-7.7425 3.64625 -8.485 3.605 -9.25 3.5625 C-9.25 2.5725 -9.25 1.5825 -9.25 0.5625 C-5.98086376 -0.46865279 -3.38958652 -0.4013984 0 0 Z " fill="#061E3C" transform="translate(980.25,665.4375)"/>
<path d="M0 0 C0.04241723 2.33294775 0.04092937 4.66702567 0 7 C-0.33 7.33 -0.66 7.66 -1 8 C-1.15825258 9.99782126 -1.25119171 12.00088834 -1.31640625 14.00390625 C-1.35830078 15.21884766 -1.40019531 16.43378906 -1.44335938 17.68554688 C-1.48267578 18.96494141 -1.52199219 20.24433594 -1.5625 21.5625 C-1.60568359 22.84576172 -1.64886719 24.12902344 -1.69335938 25.45117188 C-1.799848 28.63399853 -1.90185962 31.81690674 -2 35 C-2.33 35 -2.66 35 -3 35 C-3 26.75 -3 18.5 -3 10 C-4.65 10 -6.3 10 -8 10 C-8 9.01 -8 8.02 -8 7 C-6.35 7 -4.7 7 -3 7 C-3 5.02 -3 3.04 -3 1 C-1 0 -1 0 0 0 Z " fill="#011634" transform="translate(561,651)"/>
<path d="M0 0 C2.0625 1.6875 2.0625 1.6875 3 4 C2.1875 7.25 2.1875 7.25 1 10 C0.566875 9.401875 0.13375 8.80375 -0.3125 8.1875 C-2.97851223 4.73155822 -4.58279875 2.76158642 -9 2 C-9 1.34 -9 0.68 -9 0 C-5.8168485 -1.59157575 -3.38676935 -0.77242108 0 0 Z " fill="#0E2642" transform="translate(771,659)"/>
<path d="M0 0 C0.33 0 0.66 0 1 0 C0.67 3.3 0.34 6.6 0 10 C2.2236068 8.0745356 2.2236068 8.0745356 3 5 C3.66 5.33 4.32 5.66 5 6 C4.14264765 10.05293836 3.52898842 12.47101158 0.5625 15.4375 C-2 17 -2 17 -5 17 C-1.92482916 5.47835991 -1.92482916 5.47835991 0 0 Z " fill="#152C46" transform="translate(418,456)"/>
<path d="M0 0 C0.061875 0.53625 0.12375 1.0725 0.1875 1.625 C1.38027382 5.11156962 3.56197166 7.24940393 6 10 C4.35 10.66 2.7 11.32 1 12 C-0.65 10.02 -2.3 8.04 -4 6 C-2.25 1.125 -2.25 1.125 0 0 Z " fill="#021B37" transform="translate(937,675)"/>
<path d="M0 0 C1.32 0.66 2.64 1.32 4 2 C3.67 2.66 3.34 3.32 3 4 C1.68 3.67 0.36 3.34 -1 3 C-1.33 6.96 -1.66 10.92 -2 15 C-2.99 15 -3.98 15 -5 15 C-5.42277492 8.86976372 -4.99795398 5.96715495 -1 1 C-0.67 0.67 -0.34 0.34 0 0 Z " fill="#243851" transform="translate(775,432)"/>
<path d="M0 0 C4.95 0 9.9 0 15 0 C15.33 0.66 15.66 1.32 16 2 C11.38 2 6.76 2 2 2 C2 6.95 2 11.9 2 17 C1.67 17 1.34 17 1 17 C0.67 11.39 0.34 5.78 0 0 Z " fill="#021D3A" transform="translate(968,648)"/>
<path d="M0 0 C6.26079448 -0.43177893 9.09075703 0.07260562 14 4 C13.01 5.485 13.01 5.485 12 7 C12 6.34 12 5.68 12 5 C8.7 4.67 5.4 4.34 2 4 C2 3.01 2 2.02 2 1 C1.34 0.67 0.68 0.34 0 0 Z " fill="#172F49" transform="translate(1111,657)"/>
<path d="M0 0 C0.99 0 1.98 0 3 0 C1.95902388 3.86648272 0.96301592 7.49461443 -1 11 C-2.65 11 -4.3 11 -6 11 C-4.54923295 6.88949336 -2.65754275 3.46285873 0 0 Z " fill="#172D46" transform="translate(787,675)"/>
<path d="M0 0 C0.66 0.33 1.32 0.66 2 1 C2.474377 8.28695785 2.28670939 12.97181491 -2 19 C-2.99 17.68 -3.98 16.36 -5 15 C-4.03320312 14.70996094 -4.03320312 14.70996094 -3.046875 14.4140625 C-0.65648799 13.11291753 -0.65648799 13.11291753 -0.390625 9.9609375 C-0.34421875 8.77757812 -0.2978125 7.59421875 -0.25 6.375 C-0.19328125 5.18648437 -0.1365625 3.99796875 -0.078125 2.7734375 C-0.05234375 1.85820313 -0.0265625 0.94296875 0 0 Z " fill="#142A46" transform="translate(852,665)"/>
<path d="M0 0 C0 1.32 0 2.64 0 4 C-2.31 4.33 -4.62 4.66 -7 5 C-7.33 5.99 -7.66 6.98 -8 8 C-8.66 7.67 -9.32 7.34 -10 7 C-8.07091409 1.3611335 -6.01450566 -0.32510841 0 0 Z " fill="#172B45" transform="translate(626,657)"/>
<path d="M0 0 C-0.33 1.65 -0.66 3.3 -1 5 C-4.01490557 6.00496852 -6.04181692 6.10335303 -9.1875 6.0625 C-10.53908203 6.04896484 -10.53908203 6.04896484 -11.91796875 6.03515625 C-12.60503906 6.02355469 -13.29210938 6.01195312 -14 6 C-11.8123843 2.71857644 -11.58522112 2.5999528 -8 1.875 C-5.27165806 1.30325187 -2.72097054 0 0 0 Z " fill="#0B1E3A" transform="translate(1125,680)"/>
<path d="M0 0 C0 0.99 0 1.98 0 3 C-0.99 3.66 -1.98 4.32 -3 5 C-3.45375 4.360625 -3.9075 3.72125 -4.375 3.0625 C-8.25013836 0.01774843 -12.1922647 0.18350135 -17 0 C-17 -0.33 -17 -0.66 -17 -1 C-15.10590022 -1.22354607 -13.2095652 -1.42819951 -11.3125 -1.625 C-9.72888672 -1.79902344 -9.72888672 -1.79902344 -8.11328125 -1.9765625 C-4.86283654 -2.0010326 -2.89769204 -1.40852563 0 0 Z " fill="#0D2C4B" transform="translate(671,649)"/>
<path d="M0 0 C0.33 1.32 0.66 2.64 1 4 C-2.45214853 6.30143236 -3.23479324 6.13833854 -7.1875 5.625 C-8.53908203 5.45871094 -8.53908203 5.45871094 -9.91796875 5.2890625 C-10.94857422 5.14597656 -10.94857422 5.14597656 -12 5 C-12 4.01 -12 3.02 -12 2 C-8.04 1.34 -4.08 0.68 0 0 Z " fill="#243B54" transform="translate(1020,680)"/>
<path d="M0 0 C2.31 0 4.62 0 7 0 C6.34 2.31 5.68 4.62 5 7 C4.01 7 3.02 7 2 7 C2 6.34 2 5.68 2 5 C0.68 5.33 -0.64 5.66 -2 6 C-1.34 4.02 -0.68 2.04 0 0 Z " fill="#0F2945" transform="translate(407,488)"/>
<path d="M0 0 C-0.33 1.65 -0.66 3.3 -1 5 C-4.82092412 6.37553268 -8.08234111 5.81309902 -12 5 C-12.33 4.34 -12.66 3.68 -13 3 C-12.37351562 2.86722656 -11.74703125 2.73445312 -11.1015625 2.59765625 C-10.28429687 2.42105469 -9.46703125 2.24445312 -8.625 2.0625 C-7.81289063 1.88847656 -7.00078125 1.71445312 -6.1640625 1.53515625 C-3.88723554 0.9721142 -2.3530537 0 0 0 Z " fill="#0C2340" transform="translate(773,680)"/>
<path d="M0 0 C0 1.65 0 3.3 0 5 C-4.76052962 6.97387813 -7.96488101 7.0070238 -13 6 C-13 5.67 -13 5.34 -13 5 C-12.2575 4.87625 -11.515 4.7525 -10.75 4.625 C-7.42553512 3.8694398 -2.93471243 0 0 0 Z " fill="#162E4A" transform="translate(704,679)"/>
<path d="M0 0 C0.33 0 0.66 0 1 0 C1 8.91 1 17.82 1 27 C0.01 27 -0.98 27 -2 27 C-1.84152588 26.28432861 -1.68305176 25.56865723 -1.51977539 24.83129883 C-1.01543043 22.08405198 -0.79773833 19.4876077 -0.68359375 16.69921875 C-0.64169922 15.72275391 -0.59980469 14.74628906 -0.55664062 13.74023438 C-0.51732422 12.73283203 -0.47800781 11.72542969 -0.4375 10.6875 C-0.37272461 9.14739258 -0.37272461 9.14739258 -0.30664062 7.57617188 C-0.20093175 5.05090431 -0.09883532 2.52554438 0 0 Z " fill="#011839" transform="translate(598,659)"/>
<path d="M0 0 C2.97 0.495 2.97 0.495 6 1 C6.33 1.99 6.66 2.98 7 4 C6.01 5.485 6.01 5.485 5 7 C4.34 7 3.68 7 3 7 C2.34 6.01 1.68 5.02 1 4 C-1.05003955 2.80767387 -1.05003955 2.80767387 -3 2 C-2.01 2 -1.02 2 0 2 C0 1.34 0 0.68 0 0 Z " fill="#132C47" transform="translate(1150,658)"/>
<path d="M0 0 C0.66 0.33 1.32 0.66 2 1 C1.67 5.29 1.34 9.58 1 14 C0.01 14 -0.98 14 -2 14 C-2.24915939 12.23186888 -2.47366632 10.46025018 -2.6875 8.6875 C-2.81511719 7.70136719 -2.94273437 6.71523438 -3.07421875 5.69921875 C-3 3 -3 3 -1.51953125 1.14453125 C-1.01808594 0.76683594 -0.51664063 0.38914062 0 0 Z " fill="#142F4B" transform="translate(720,644)"/>
<path d="M0 0 C0 1.32 0 2.64 0 4 C-0.61488281 3.9278125 -1.22976563 3.855625 -1.86328125 3.78125 C-2.67152344 3.6884375 -3.47976563 3.595625 -4.3125 3.5 C-5.51326172 3.36078125 -5.51326172 3.36078125 -6.73828125 3.21875 C-9.11896555 2.95186537 -9.11896555 2.95186537 -12 3 C-8.2391768 -0.7608232 -5.0273023 -0.25136512 0 0 Z " fill="#132944" transform="translate(571,643)"/>
<path d="M0 0 C1.2065625 0.0309375 1.2065625 0.0309375 2.4375 0.0625 C3.0625 1.9375 3.0625 1.9375 3.4375 4.0625 C2.7775 4.7225 2.1175 5.3825 1.4375 6.0625 C-0.6875 5.6875 -0.6875 5.6875 -2.5625 5.0625 C-3.125 3.125 -3.125 3.125 -3.5625 1.0625 C-2.5625 0.0625 -2.5625 0.0625 0 0 Z " fill="#21344E" transform="translate(815.5625,645.9375)"/>
<path d="M0 0 C4 4.5 4 4.5 4 9 C0.2047869 7.50902342 -1.61042731 5.24299151 -4 2 C-3.34 1.67 -2.68 1.34 -2 1 C-1.34 1.33 -0.68 1.66 0 2 C0 1.34 0 0.68 0 0 Z " fill="#152C47" transform="translate(832,677)"/>
<path d="M0 0 C2.0625 0.4375 2.0625 0.4375 4 1 C4.33 2.32 4.66 3.64 5 5 C3.125 6.0625 3.125 6.0625 1 7 C0.34 6.67 -0.32 6.34 -1 6 C-1.042721 4.33388095 -1.04063832 2.66617115 -1 1 C-0.67 0.67 -0.34 0.34 0 0 Z " fill="#172C47" transform="translate(1089,645)"/>
<path d="M0 0 C1.65 0.33 3.3 0.66 5 1 C4.67 2.65 4.34 4.3 4 6 C2.35 5.67 0.7 5.34 -1 5 C-0.67 3.35 -0.34 1.7 0 0 Z " fill="#1C314A" transform="translate(592,646)"/>
<path d="M0 0 C3.75283733 1.45271122 3.75283733 1.45271122 4.875 3.9375 C5 6 5 6 3 9 C2.38125 8.21625 1.7625 7.4325 1.125 6.625 C-0.89858661 4.03162353 -0.89858661 4.03162353 -3 2 C-2.01 2 -1.02 2 0 2 C0 1.34 0 0.68 0 0 Z " fill="#18304A" transform="translate(1017,659)"/>
<path d="M0 0 C2.125 0.375 2.125 0.375 4 1 C4 2.65 4 4.3 4 6 C2.35 6 0.7 6 -1 6 C-1.625 4.125 -1.625 4.125 -2 2 C-1.34 1.34 -0.68 0.68 0 0 Z " fill="#192D47" transform="translate(1058,645)"/>
<path d="M0 0 C2.97 0.33 5.94 0.66 9 1 C9 1.99 9 2.98 9 4 C5.7 4 2.4 4 -1 4 C-0.67 2.68 -0.34 1.36 0 0 Z " fill="#081F3C" transform="translate(918,682)"/>
<path d="M0 0 C0.66 0.33 1.32 0.66 2 1 C1.67 1.99 1.34 2.98 1 4 C-0.1865126 8.08594833 -0.14865179 11.76342394 0 16 C-0.33 16 -0.66 16 -1 16 C-1.12375 14.9275 -1.2475 13.855 -1.375 12.75 C-1.89643936 9.62136385 -2.40088254 7.66519576 -4 5 C-2.68 3.35 -1.36 1.7 0 0 Z " fill="#2E435B" transform="translate(832,659)"/>
<path d="M0 0 C0.33 0.66 0.66 1.32 1 2 C-2.01490557 3.00496852 -4.04181692 3.10335303 -7.1875 3.0625 C-8.53908203 3.04896484 -8.53908203 3.04896484 -9.91796875 3.03515625 C-10.60503906 3.02355469 -11.29210937 3.01195312 -12 3 C-7.82744729 -0.58050131 -5.33135955 -0.26656798 0 0 Z " fill="#162C47" transform="translate(1015,657)"/>
<path d="M0 0 C1.32 0.66 2.64 1.32 4 2 C3.67 2.66 3.34 3.32 3 4 C0.93359375 4.4140625 0.93359375 4.4140625 -1.5625 4.625 C-2.38878906 4.69976563 -3.21507812 4.77453125 -4.06640625 4.8515625 C-5.02353516 4.92503906 -5.02353516 4.92503906 -6 5 C-5.67 4.01 -5.34 3.02 -5 2 C-3.35 1.67 -1.7 1.34 0 1 C0 0.67 0 0.34 0 0 Z " fill="#263D55" transform="translate(589,682)"/>
<path d="M0 0 C0 0.66 0 1.32 0 2 C-1.97133986 3.37535339 -3.97681922 4.70211044 -6 6 C-7.68083079 7.31543279 -9.3524116 8.64316249 -11 10 C-11 7 -11 7 -9.5390625 5.4296875 C-8.90742188 4.91664063 -8.27578125 4.40359375 -7.625 3.875 C-6.99851562 3.35679687 -6.37203125 2.83859375 -5.7265625 2.3046875 C-3.70000512 0.77330704 -2.56749236 0 0 0 Z " fill="#1C3048" transform="translate(453,468)"/>
<path d="M0 0 C1.32 0.66 2.64 1.32 4 2 C2.02 5.96 0.04 9.92 -2 14 C-3.49341969 11.01316063 -2.40648676 9.04839022 -1.5625 5.875 C-1.27503906 4.77929688 -0.98757813 3.68359375 -0.69140625 2.5546875 C-0.46324219 1.71164062 -0.23507812 0.86859375 0 0 Z " fill="#CCD3D8" transform="translate(1271,377)"/>
<path d="M0 0 C0.33 0.66 0.66 1.32 1 2 C1.66 2 2.32 2 3 2 C3.33 2.99 3.66 3.98 4 5 C3.01 5.66 2.02 6.32 1 7 C-2.1875 6.125 -2.1875 6.125 -5 5 C-3.35 3.35 -1.7 1.7 0 0 Z " fill="#17314C" transform="translate(984,660)"/>
<path d="M0 0 C0.763125 0.0825 1.52625 0.165 2.3125 0.25 C0.3325 3.22 0.3325 3.22 -1.6875 6.25 C-3.0075 5.59 -4.3275 4.93 -5.6875 4.25 C-3.34903846 0.31153846 -3.34903846 0.31153846 0 0 Z " fill="#09203C" transform="translate(802.6875,657.75)"/>
<path d="M0 0 C1.98 0 3.96 0 6 0 C3 3 0 6 -3 9 C-1.125 2.25 -1.125 2.25 0 0 Z " fill="#09213F" transform="translate(834,658)"/>
<path d="M0 0 C2.0625 0.4375 2.0625 0.4375 4 1 C3.67 2.65 3.34 4.3 3 6 C1.68 6 0.36 6 -1 6 C-1.042721 4.33388095 -1.04063832 2.66617115 -1 1 C-0.67 0.67 -0.34 0.34 0 0 Z " fill="#112640" transform="translate(582,646)"/>
<path d="M0 0 C2 2 2 2 2 5 C0.35 5.33 -1.3 5.66 -3 6 C-3.66 4.68 -4.32 3.36 -5 2 C-3.35 1.34 -1.7 0.68 0 0 Z " fill="#19314B" transform="translate(930,680)"/>
<path d="M0 0 C4.29 0 8.58 0 13 0 C12.34 1.65 11.68 3.3 11 5 C10.01 5 9.02 5 8 5 C8.33 4.01 8.66 3.02 9 2 C6.03 1.67 3.06 1.34 0 1 C0 0.67 0 0.34 0 0 Z " fill="#EDEFF1" transform="translate(1168,661)"/>
<path d="M0 0 C-0.66 0.66 -1.32 1.32 -2 2 C-1.67 2.66 -1.34 3.32 -1 4 C-6.75 4.125 -6.75 4.125 -9 3 C-9 2.34 -9 1.68 -9 1 C-6.04335481 -0.4783226 -3.25770263 -0.06032783 0 0 Z " fill="#19304A" transform="translate(696,657)"/>
<path d="M0 0 C-1.36944102 2.94956528 -2.87830409 5.52468811 -5 8 C-5.66 8 -6.32 8 -7 8 C-7 6.02 -7 4.04 -7 2 C-4.35261084 0.5393715 -3.10551666 0 0 0 Z " fill="#16324D" transform="translate(921,648)"/>
<path d="M0 0 C1.32 0.66 2.64 1.32 4 2 C4 3.32 4 4.64 4 6 C3.01 6.33 2.02 6.66 1 7 C-0.32 5.68 -1.64 4.36 -3 3 C-2.01 2.67 -1.02 2.34 0 2 C0 1.34 0 0.68 0 0 Z " fill="#152D48" transform="translate(983,647)"/>
<path d="M0 0 C1.46726798 3.81489674 0.43336419 6.29011622 -1 10 C-1.66 10 -2.32 10 -3 10 C-2.88637738 8.5199159 -2.75877092 7.04089926 -2.625 5.5625 C-2.55539062 4.73878906 -2.48578125 3.91507812 -2.4140625 3.06640625 C-2.27742187 2.38449219 -2.14078125 1.70257813 -2 1 C-1.34 0.67 -0.68 0.34 0 0 Z " fill="#19334E" transform="translate(976,433)"/>
<path d="M0 0 C1.98 0.66 3.96 1.32 6 2 C4.25 6.875 4.25 6.875 2 8 C1.34 5.36 0.68 2.72 0 0 Z " fill="#0C2340" transform="translate(1120,661)"/>
<path d="M0 0 C0.66 0.66 1.32 1.32 2 2 C4.06874034 2.6425235 4.06874034 2.6425235 6 3 C4.35 4.32 2.7 5.64 1 7 C0.34 6.67 -0.32 6.34 -1 6 C-0.67 4.02 -0.34 2.04 0 0 Z " fill="#17304B" transform="translate(867,658)"/>
<path d="M0 0 C1.69141656 0.08963062 3.37959602 0.24577676 5.0625 0.4375 C6.44115234 0.59025391 6.44115234 0.59025391 7.84765625 0.74609375 C8.55792969 0.82988281 9.26820313 0.91367187 10 1 C9.67 1.99 9.34 2.98 9 4 C6.36 4 3.72 4 1 4 C1 3.34 1 2.68 1 2 C0.34 1.67 -0.32 1.34 -1 1 C-0.67 0.67 -0.34 0.34 0 0 Z " fill="#011432" transform="translate(1006,682)"/>
<path d="M0 0 C0.66 0 1.32 0 2 0 C2.33 2.97 2.66 5.94 3 9 C2.01 8.67 1.02 8.34 0 8 C0 5.36 0 2.72 0 0 Z " fill="#042241" transform="translate(752,672)"/>
<path d="M0 0 C0.99 0.33 1.98 0.66 3 1 C1.62845496 3.95409701 0.01136276 6.44008376 -2 9 C-1.67 7.35 -1.34 5.7 -1 4 C-1.66 3.67 -2.32 3.34 -3 3 C-2.01 2.01 -1.02 1.02 0 0 Z " fill="#051B38" transform="translate(686,659)"/>
<path d="M0 0 C1.32 0.66 2.64 1.32 4 2 C2 4 0 6 -2 8 C-2.33 6.02 -2.66 4.04 -3 2 C-2.01 1.34 -1.02 0.68 0 0 Z " fill="#0E2642" transform="translate(1034,658)"/>
<path d="M0 0 C3.3 0 6.6 0 10 0 C9.34 1.32 8.68 2.64 8 4 C8 3.34 8 2.68 8 2 C5.36 2 2.72 2 0 2 C0 1.34 0 0.68 0 0 Z " fill="#22344D" transform="translate(630,362)"/>
<path d="M0 0 C2.64 0.33 5.28 0.66 8 1 C8.33 1.99 8.66 2.98 9 4 C6.36 4 3.72 4 1 4 C0.67 2.68 0.34 1.36 0 0 Z " fill="#041735" transform="translate(835,682)"/>
<path d="M0 0 C3.125 0.375 3.125 0.375 6 1 C4.35 2.98 2.7 4.96 1 7 C0.67 6.01 0.34 5.02 0 4 C-0.66 3.34 -1.32 2.68 -2 2 C-1.34 1.34 -0.68 0.68 0 0 Z " fill="#1A3049" transform="translate(916,665)"/>
<path d="M0 0 C3.63 0.66 7.26 1.32 11 2 C11 2.33 11 2.66 11 3 C9.9275 2.979375 8.855 2.95875 7.75 2.9375 C4.85209576 2.9857984 2.71387859 3.13155885 0 4 C0 2.68 0 1.36 0 0 Z " fill="#071935" transform="translate(1030,681)"/>
<path d="M0 0 C3.63 0.33 7.26 0.66 11 1 C11 1.33 11 1.66 11 2 C8.03 2.66 5.06 3.32 2 4 C1.34 2.68 0.68 1.36 0 0 Z " fill="#051C3B" transform="translate(579,682)"/>
<path d="M0 0 C0.33 0 0.66 0 1 0 C1.36923077 5.53846154 1.36923077 5.53846154 -0.5 7.875 C-1.2425 8.431875 -1.2425 8.431875 -2 9 C-2 8.34 -2 7.68 -2 7 C-2.66 7 -3.32 7 -4 7 C-4 6.01 -4 5.02 -4 4 C-3.01 4 -2.02 4 -1 4 C-0.67 2.68 -0.34 1.36 0 0 Z " fill="#041B38" transform="translate(989,655)"/>
<path d="M0 0 C0.99 0 1.98 0 3 0 C1.92598892 2.91517292 1.22189824 4.77810176 -1 7 C-1.66 6.34 -2.32 5.68 -3 5 C-1.6875 2.5 -1.6875 2.5 0 0 Z " fill="#0C2744" transform="translate(787,675)"/>
<path d="M0 0 C0.33 0.66 0.66 1.32 1 2 C3.01669827 3.13350534 3.01669827 3.13350534 5 4 C4.34 4.66 3.68 5.32 3 6 C2.67 5.34 2.34 4.68 2 4 C1.01 5.485 1.01 5.485 0 7 C-0.66 5.35 -1.32 3.7 -2 2 C-1.34 2 -0.68 2 0 2 C0 1.34 0 0.68 0 0 Z " fill="#162E48" transform="translate(662,668)"/>
<path d="M0 0 C-1.32 1.32 -2.64 2.64 -4 4 C-5.32 2.68 -6.64 1.36 -8 0 C-4.71023192 -1.09658936 -3.28696233 -0.79953138 0 0 Z " fill="#08213F" transform="translate(672,650)"/>
<path d="M0 0 C0.28875 0.639375 0.5775 1.27875 0.875 1.9375 C1.82823451 4.15206079 1.82823451 4.15206079 4 5 C4 5.66 4 6.32 4 7 C2.68 7.33 1.36 7.66 0 8 C0 5.36 0 2.72 0 0 Z " fill="#19304B" transform="translate(915,677)"/>
<path d="M0 0 C1.65 1.65 3.3 3.3 5 5 C4.67 5.66 4.34 6.32 4 7 C3.34 7 2.68 7 2 7 C0.3125 4.625 0.3125 4.625 -1 2 C-0.67 1.34 -0.34 0.68 0 0 Z " fill="#0D2944" transform="translate(936,680)"/>
<path d="M0 0 C0.99 0.33 1.98 0.66 3 1 C2.34 3.97 1.68 6.94 1 10 C0.67 10 0.34 10 0 10 C0 6.66666667 0 3.33333333 0 0 Z " fill="#051C3A" transform="translate(914,668)"/>
<path d="M0 0 C2.64 0 5.28 0 8 0 C8 0.66 8 1.32 8 2 C5.69 2.33 3.38 2.66 1 3 C0.67 2.01 0.34 1.02 0 0 Z " fill="#1E334D" transform="translate(873,657)"/>
<path d="M0 0 C0.66 0.66 1.32 1.32 2 2 C1.34 4.31 0.68 6.62 0 9 C-0.66 8.67 -1.32 8.34 -2 8 C-1.125 1.125 -1.125 1.125 0 0 Z " fill="#21344D" transform="translate(291,391)"/>
<path d="M0 0 C0.99 0.66 1.98 1.32 3 2 C3 2.66 3 3.32 3 4 C1.35 4 -0.3 4 -2 4 C-2.33 3.01 -2.66 2.02 -3 1 C-2.01 0.67 -1.02 0.34 0 0 Z " fill="#0B213C" transform="translate(989,682)"/>
<path d="M0 0 C0.99 0 1.98 0 3 0 C3 2.31 3 4.62 3 7 C2.01 6.67 1.02 6.34 0 6 C0 4.02 0 2.04 0 0 Z " fill="#021D3C" transform="translate(999,672)"/>
<path d="M0 0 C0.33 0 0.66 0 1 0 C1.33 3.63 1.66 7.26 2 11 C1.01 10.67 0.02 10.34 -1 10 C-0.67 6.7 -0.34 3.4 0 0 Z " fill="#031A36" transform="translate(830,668)"/>
<path d="M0 0 C0.66 0.33 1.32 0.66 2 1 C1.67 1.66 1.34 2.32 1 3 C2.32 3.66 3.64 4.32 5 5 C3.1875 5.6875 3.1875 5.6875 1 6 C-0.75 4.5625 -0.75 4.5625 -2 3 C-1.34 2.01 -0.68 1.02 0 0 Z " fill="#17324F" transform="translate(846,658)"/>
<path d="M0 0 C-0.25561323 2.3431213 -0.59270772 4.67843403 -1 7 C-1.99 7.495 -1.99 7.495 -3 8 C-3.6875 5.6875 -3.6875 5.6875 -4 3 C-1.72413793 0 -1.72413793 0 0 0 Z " fill="#071D39" transform="translate(757,659)"/>
<path d="M0 0 C0.99 0 1.98 0 3 0 C3.33 1.98 3.66 3.96 4 6 C1.69 5.01 -0.62 4.02 -3 3 C-2.01 2.67 -1.02 2.34 0 2 C0 1.34 0 0.68 0 0 Z " fill="#061E3A" transform="translate(1150,658)"/>
<path d="M0 0 C0.99 0.33 1.98 0.66 3 1 C1.35 2.65 -0.3 4.3 -2 6 C-2.99 5.67 -3.98 5.34 -5 5 C-4.34 5 -3.68 5 -3 5 C-2.5359375 4.0409375 -2.5359375 4.0409375 -2.0625 3.0625 C-1 1 -1 1 0 0 Z " fill="#25384E" transform="translate(759,427)"/>
<path d="M0 0 C0 4.38968456 -2.12805101 5.76905739 -5 9 C-5 4.61031544 -2.87194899 3.23094261 0 0 Z " fill="#061A36" transform="translate(1282,370)"/>
</svg>
